<svg width="24" height="24" viewBox="0 0 24 24" fill="none" xmlns="http://www.w3.org/2000/svg">
<path fill-rule="evenodd" clip-rule="evenodd" d="M8.98895 5.30801C9.81138 3.56965 11.2907 2.2292 13.1015 1.58154C14.9122 0.933882 16.9061 1.03207 18.6444 1.85451C20.3828 2.67694 21.7233 4.15626 22.3709 5.96701C23.0186 7.77777 22.9204 9.77165 22.0979 11.51C21.9879 11.749 21.9669 11.975 22.0159 12.157L22.1429 12.633C22.5509 14.157 21.1569 15.551 19.6329 15.143L19.1569 15.016C19.0028 14.9789 18.8414 14.9841 18.6899 15.031C18.5261 16.4125 18.0354 17.735 17.2583 18.8888C16.4812 20.0427 15.4402 20.9946 14.2217 21.6658C13.0032 22.3369 11.6422 22.7079 10.2517 22.748C8.86113 22.788 7.48107 22.4959 6.22595 21.896C6.03129 21.7946 5.80687 21.7659 5.59295 21.815L4.36695 22.143C2.84295 22.551 1.44895 21.157 1.85695 19.633L2.18495 18.407C2.23398 18.1931 2.20527 17.9687 2.10395 17.774C1.50336 16.5174 1.21139 15.1355 1.25231 13.7433C1.29324 12.3512 1.66587 10.9888 2.33923 9.76966C3.01259 8.55046 3.96724 7.5096 5.12381 6.73359C6.28039 5.95759 7.60548 5.46885 8.98895 5.30801ZM10.7349 5.28001C12.8351 5.45723 14.8008 6.38648 16.2707 7.89699C17.7406 9.40749 18.616 11.3978 18.7359 13.502C19.007 13.4752 19.2807 13.4973 19.5439 13.567L20.0199 13.694C20.1133 13.7191 20.2116 13.7192 20.3049 13.6942C20.3983 13.6693 20.4834 13.6201 20.5517 13.5518C20.6201 13.4835 20.6692 13.3983 20.6942 13.305C20.7191 13.2116 20.7191 13.1133 20.6939 13.02L20.5669 12.544C20.4099 11.957 20.5119 11.371 20.7329 10.886C21.3354 9.57302 21.4215 8.08138 20.9742 6.70777C20.527 5.33415 19.579 4.17923 18.319 3.47271C17.059 2.76619 15.5791 2.55985 14.1739 2.89472C12.7686 3.2296 11.5409 4.08115 10.7349 5.28001ZM9.99995 6.75001C8.77497 6.74975 7.56989 7.05988 6.49722 7.65144C5.42455 8.24301 4.51927 9.09673 3.86587 10.1329C3.21247 11.1691 2.83227 12.3539 2.76076 13.5768C2.68926 14.7997 2.92877 16.0207 3.45695 17.126C3.71291 17.6431 3.77568 18.2347 3.63395 18.794L3.30595 20.02C3.28092 20.1132 3.28087 20.2114 3.3058 20.3046C3.33072 20.3979 3.37974 20.4829 3.44794 20.5512C3.51614 20.6195 3.60111 20.6687 3.69432 20.6937C3.78753 20.7188 3.88569 20.7189 3.97895 20.694L5.20595 20.366C5.76527 20.2243 6.35683 20.287 6.87395 20.543C7.85581 21.0116 8.93056 21.2532 10.0185 21.25C11.1065 21.2467 12.1798 20.9986 13.1588 20.5241C14.1378 20.0496 14.9975 19.3608 15.6741 18.5088C16.3507 17.6569 16.8269 16.6635 17.0674 15.6025C17.3079 14.5414 17.3065 13.4399 17.0633 12.3794C16.8201 11.319 16.3413 10.3269 15.6625 9.47664C14.9837 8.62641 14.1223 7.93984 13.1421 7.46784C12.1618 6.99583 11.0879 6.75049 9.99995 6.75001Z" fill="#7750DE"/>
<path d="M7.5 14C7.5 14.2652 7.39464 14.5196 7.20711 14.7071C7.01957 14.8946 6.76522 15 6.5 15C6.23478 15 5.98043 14.8946 5.79289 14.7071C5.60536 14.5196 5.5 14.2652 5.5 14C5.5 13.7348 5.60536 13.4804 5.79289 13.2929C5.98043 13.1054 6.23478 13 6.5 13C6.76522 13 7.01957 13.1054 7.20711 13.2929C7.39464 13.4804 7.5 13.7348 7.5 14ZM11 14C11 14.2652 10.8946 14.5196 10.7071 14.7071C10.5196 14.8946 10.2652 15 10 15C9.73478 15 9.48043 14.8946 9.29289 14.7071C9.10536 14.5196 9 14.2652 9 14C9 13.7348 9.10536 13.4804 9.29289 13.2929C9.48043 13.1054 9.73478 13 10 13C10.2652 13 10.5196 13.1054 10.7071 13.2929C10.8946 13.4804 11 13.7348 11 14ZM14.5 14C14.5 14.2652 14.3946 14.5196 14.2071 14.7071C14.0196 14.8946 13.7652 15 13.5 15C13.2348 15 12.9804 14.8946 12.7929 14.7071C12.6054 14.5196 12.5 14.2652 12.5 14C12.5 13.7348 12.6054 13.4804 12.7929 13.2929C12.9804 13.1054 13.2348 13 13.5 13C13.7652 13 14.0196 13.1054 14.2071 13.2929C14.3946 13.4804 14.5 13.7348 14.5 14Z" fill="#7750DE"/>
</svg>
