<svg width="24" height="24" viewBox="0 0 24 24" fill="none" xmlns="http://www.w3.org/2000/svg">
<path fill-rule="evenodd" clip-rule="evenodd" d="M18.75 18.9271C19.2105 18.5146 19.5 17.9161 19.5 17.2501V10.4656C19.5001 10.1209 19.421 9.78088 19.2689 9.47165C19.1167 9.16242 18.8956 8.89227 18.6225 8.68205L13.3725 4.64405C12.9791 4.34118 12.4965 4.17695 12 4.17695C11.5035 4.17695 11.0209 4.34118 10.6275 4.64405L5.3775 8.68205C5.10421 8.89243 4.88295 9.16282 4.7308 9.47232C4.57864 9.78183 4.49968 10.1222 4.5 10.4671V17.2501C4.49921 17.5449 4.55652 17.8369 4.66866 18.1096C4.7808 18.3823 4.94556 18.6301 5.15354 18.8391C5.36151 19.048 5.60863 19.214 5.88075 19.3274C6.15288 19.4408 6.44469 19.4995 6.7395 19.5001H7.5V14.2501C7.5 13.4544 7.81607 12.6913 8.37868 12.1287C8.94129 11.5661 9.70435 11.2501 10.5 11.2501H13.5C14.2956 11.2501 15.0587 11.5661 15.6213 12.1287C16.1839 12.6913 16.5 13.4544 16.5 14.2501V19.5001H17.2605C17.832 19.4971 18.3555 19.2811 18.75 18.9271ZM21.75 17.2501C21.75 18.4435 21.2759 19.5881 20.432 20.432C19.5881 21.2759 18.4435 21.7501 17.25 21.7501H6.75C5.55653 21.7501 4.41193 21.2759 3.56802 20.432C2.72411 19.5881 2.25 18.4435 2.25 17.2501V10.4656C2.25005 9.77655 2.40831 9.09675 2.71259 8.47857C3.01686 7.8604 3.45903 7.32034 4.005 6.90005L9.255 2.86205C10.0419 2.25631 11.007 1.92786 12 1.92786C12.993 1.92786 13.9581 2.25631 14.745 2.86205L19.995 6.90005C20.5409 7.32073 20.983 7.86107 21.2873 8.47947C21.5915 9.09788 21.7498 9.77785 21.75 10.4671V17.2501ZM14.25 14.2501C14.25 14.0511 14.171 13.8604 14.0303 13.7197C13.8897 13.5791 13.6989 13.5001 13.5 13.5001H10.5C10.3011 13.5001 10.1103 13.5791 9.96967 13.7197C9.82902 13.8604 9.75 14.0511 9.75 14.2501V19.5001H14.25V14.2501Z" fill="#272727"/>
</svg>
