<svg width="40" height="40" viewBox="0 0 40 40" fill="none" xmlns="http://www.w3.org/2000/svg">
<rect width="40" height="40" rx="4" fill="#F1EBFF"/>
<path d="M13.8469 31C13.3204 31 12.8811 30.8118 12.5291 30.4353C12.1771 30.0589 12.0008 29.5891 12 29.0261V10.9739C12 10.4117 12.1764 9.94233 12.5291 9.56589C12.8819 9.18944 13.3211 9.00081 13.8469 9H26.1543C26.68 9 27.1192 9.18863 27.472 9.56589C27.8248 9.94315 28.0008 10.4129 28 10.9751V29.0261C28 29.5883 27.824 30.0581 27.472 30.4353C27.12 30.8126 26.6804 31.0008 26.1531 31H13.8469ZM13.8469 29.7778H26.1543C26.3295 29.7778 26.4907 29.6996 26.6377 29.5431C26.7848 29.3867 26.8579 29.2139 26.8571 29.0249V10.9751C26.8571 10.7869 26.784 10.6141 26.6377 10.4569C26.4914 10.2996 26.3299 10.2214 26.1531 10.2222H24.5714V17.6973L22.2857 16.2392L20 17.6973V10.2222H13.8469C13.6709 10.2222 13.5093 10.3004 13.3623 10.4569C13.2152 10.6133 13.1421 10.7857 13.1429 10.9739V29.0261C13.1429 29.2135 13.216 29.3859 13.3623 29.5431C13.5086 29.7004 13.6697 29.7786 13.8457 29.7778" fill="black"/>
</svg>
