<svg width="34" height="34" viewBox="0 0 34 34" fill="none" xmlns="http://www.w3.org/2000/svg">
<rect width="34" height="34" rx="4" fill="#F1EBFF"/>
<path d="M20.75 28.25H13.25V17.75C13.25 17.3358 13.5858 17 14 17H20C20.4142 17 20.75 17.3358 20.75 17.75V28.25Z" stroke="#341069" stroke-width="2" stroke-linecap="round" stroke-linejoin="round"/>
<path d="M27.5 28.25H20.75V24.625C20.75 24.2108 21.0858 23.875 21.5 23.875H27.5C27.9142 23.875 28.25 24.2108 28.25 24.625V27.5C28.25 27.9142 27.9142 28.25 27.5 28.25Z" stroke="#341069" stroke-width="2" stroke-linecap="round" stroke-linejoin="round"/>
<path d="M13.25 28.25V22.125C13.25 21.7108 12.9142 21.375 12.5 21.375H6.5C6.08579 21.375 5.75 21.7108 5.75 22.125V27.5C5.75 27.9142 6.08579 28.25 6.5 28.25H13.25Z" stroke="#341069" stroke-width="2" stroke-linecap="round" stroke-linejoin="round"/>
<path d="M15.507 8.39156L16.6434 5.982C16.7893 5.67267 17.2108 5.67267 17.3566 5.982L18.493 8.39156L21.0344 8.78034C21.3605 8.83023 21.4904 9.24972 21.2544 9.49037L19.4158 11.3646L19.8496 14.0125C19.9054 14.3525 19.5644 14.6119 19.2726 14.4512L17 13.2004L14.7274 14.4512C14.4356 14.6119 14.0946 14.3525 14.1503 14.0125L14.5843 11.3646L12.7456 9.49037C12.5096 9.24972 12.6395 8.83023 12.9656 8.78034L15.507 8.39156Z" stroke="#341069" stroke-width="2" stroke-linecap="round" stroke-linejoin="round"/>
</svg>
