<svg width="24" height="24" viewBox="0 0 24 24" fill="none" xmlns="http://www.w3.org/2000/svg">
<path fill-rule="evenodd" clip-rule="evenodd" d="M20.25 12C20.25 14.188 19.3808 16.2865 17.8336 17.8336C16.2865 19.3808 14.188 20.25 12 20.25C9.81196 20.25 7.71354 19.3808 6.16637 17.8336C4.61919 16.2865 3.75 14.188 3.75 12C3.75 9.81196 4.61919 7.71354 6.16637 6.16637C7.71354 4.61919 9.81196 3.75 12 3.75C14.188 3.75 16.2865 4.61919 17.8336 6.16637C19.3808 7.71354 20.25 9.81196 20.25 12ZM22.5 12C22.5 14.7848 21.3938 17.4555 19.4246 19.4246C17.4555 21.3938 14.7848 22.5 12 22.5C9.21523 22.5 6.54451 21.3938 4.57538 19.4246C2.60625 17.4555 1.5 14.7848 1.5 12C1.5 9.21523 2.60625 6.54451 4.57538 4.57538C6.54451 2.60625 9.21523 1.5 12 1.5C14.7848 1.5 17.4555 2.60625 19.4246 4.57538C21.3938 6.54451 22.5 9.21523 22.5 12ZM13.125 8.25C13.125 7.95163 13.0065 7.66548 12.7955 7.4545C12.5845 7.24353 12.2984 7.125 12 7.125C11.7016 7.125 11.4155 7.24353 11.2045 7.4545C10.9935 7.66548 10.875 7.95163 10.875 8.25V10.875H8.25C7.95163 10.875 7.66548 10.9935 7.4545 11.2045C7.24353 11.4155 7.125 11.7016 7.125 12C7.125 12.2984 7.24353 12.5845 7.4545 12.7955C7.66548 13.0065 7.95163 13.125 8.25 13.125H10.875V15.75C10.875 16.0484 10.9935 16.3345 11.2045 16.5455C11.4155 16.7565 11.7016 16.875 12 16.875C12.2984 16.875 12.5845 16.7565 12.7955 16.5455C13.0065 16.3345 13.125 16.0484 13.125 15.75V13.125H15.75C16.0484 13.125 16.3345 13.0065 16.5455 12.7955C16.7565 12.5845 16.875 12.2984 16.875 12C16.875 11.7016 16.7565 11.4155 16.5455 11.2045C16.3345 10.9935 16.0484 10.875 15.75 10.875H13.125V8.25Z" fill="#6730EC"/>
</svg>
