<svg width="18" height="17" viewBox="0 0 18 17" fill="none" xmlns="http://www.w3.org/2000/svg">
<path fill-rule="evenodd" clip-rule="evenodd" d="M9 16.75C10.0834 16.75 11.1562 16.5366 12.1571 16.122C13.1581 15.7074 14.0675 15.0997 14.8336 14.3336C15.5997 13.5675 16.2074 12.6581 16.622 11.6571C17.0366 10.6562 17.25 9.58341 17.25 8.5C17.25 7.41659 17.0366 6.3438 16.622 5.34286C16.2074 4.34193 15.5997 3.43245 14.8336 2.66637C14.0675 1.90029 13.1581 1.2926 12.1571 0.877994C11.1562 0.463392 10.0834 0.25 9 0.25C6.81196 0.25 4.71354 1.11919 3.16637 2.66637C1.61919 4.21354 0.75 6.31196 0.75 8.5C0.75 10.688 1.61919 12.7865 3.16637 14.3336C4.71354 15.8808 6.81196 16.75 9 16.75ZM8.78733 11.8367L13.3707 6.33667L11.9627 5.16333L8.021 9.89242L5.98142 7.85192L4.68525 9.14808L7.43525 11.8981L8.14475 12.6076L8.78733 11.8367Z" fill="#0FA958"/>
</svg>
