<svg width="41" height="40" viewBox="0 0 41 40" fill="none" xmlns="http://www.w3.org/2000/svg">
<rect x="0.5" width="40" height="40" rx="4" fill="#F1EBFF"/>
<g clip-path="url(#clip0_1011_2970)">
<path fill-rule="evenodd" clip-rule="evenodd" d="M28.3751 29.6H12.6258C11.7781 29.6 11.1522 28.7636 11.4719 27.9944C12.9553 24.4376 16.4403 22.4 20.4998 22.4C24.5605 22.4 28.0455 24.4376 29.529 27.9944C29.8487 28.7636 29.2227 29.6 28.3751 29.6ZM15.6 15.2C15.6 12.5528 17.7988 10.4 20.4998 10.4C23.2021 10.4 25.3996 12.5528 25.3996 15.2C25.3996 17.8472 23.2021 20 20.4998 20C17.7988 20 15.6 17.8472 15.6 15.2ZM32.4468 29.1632C31.5563 25.1324 28.7707 22.1575 25.1044 20.8075C27.0472 19.2751 28.1803 16.7971 27.7638 14.0839C27.2812 10.9363 24.6083 8.41757 21.3818 8.05037C16.9279 7.54277 13.1501 10.9388 13.1501 15.2C13.1501 17.468 14.2231 19.4887 15.8964 20.8075C12.2289 22.1575 9.4446 25.1324 8.55283 29.1632C8.22944 30.6284 9.4348 32 10.9648 32H30.0349C31.5661 32 32.7714 30.6284 32.4468 29.1632Z" fill="#341069"/>
</g>
<defs>
<clipPath id="clip0_1011_2970">
<rect width="24" height="24" fill="white" transform="translate(8.5 8)"/>
</clipPath>
</defs>
</svg>
