<svg width="18" height="17" viewBox="0 0 18 17" fill="none" xmlns="http://www.w3.org/2000/svg">
<path d="M13.167 1.28332C14.4338 2.01473 15.4858 3.06672 16.2172 4.33356C16.9486 5.6004 17.3337 7.03744 17.3337 8.50026C17.3336 9.96307 16.9486 11.4001 16.2172 12.6669C15.4857 13.9338 14.4337 14.9857 13.1669 15.7171C11.9001 16.4485 10.463 16.8336 9.00019 16.8335C7.53738 16.8335 6.10034 16.4484 4.83352 15.717C3.5667 14.9856 2.51473 13.9336 1.78335 12.6667C1.05198 11.3999 0.666955 9.96281 0.666992 8.49999L0.671159 8.22999C0.717828 6.79082 1.13662 5.38829 1.88669 4.15915C2.63677 2.93001 3.69254 1.9162 4.95107 1.21656C6.2096 0.516919 7.62795 0.155322 9.06783 0.167023C10.5077 0.178724 11.92 0.563323 13.167 1.28332ZM9.00033 3.49999C8.77931 3.49999 8.56735 3.58779 8.41107 3.74407C8.25479 3.90035 8.16699 4.11231 8.16699 4.33333V8.52166L8.17449 8.60916L8.19116 8.69832L8.22449 8.80582L8.26449 8.89082L8.30283 8.95582L8.33783 9.00583L8.39533 9.07249L8.46866 9.14166L8.53783 9.19332L11.0378 10.86C11.1289 10.9207 11.231 10.9629 11.3384 10.9842C11.4457 11.0055 11.5562 11.0054 11.6635 10.984C11.7709 10.9625 11.8729 10.9202 11.9639 10.8593C12.0548 10.7984 12.1329 10.7202 12.1937 10.6292C12.2544 10.5381 12.2966 10.436 12.3179 10.3286C12.3391 10.2213 12.3391 10.1108 12.3176 10.0034C12.2962 9.8961 12.2538 9.79405 12.1929 9.70309C12.1321 9.61214 12.0539 9.53406 11.9628 9.47332L9.83366 8.05332V4.33333C9.83363 4.12921 9.7587 3.93221 9.62306 3.77968C9.48743 3.62715 9.30053 3.52971 9.09783 3.50583L9.00033 3.49999Z" fill="#C49900"/>
</svg>
