<svg width="27" height="27" viewBox="0 0 27 27" fill="none" xmlns="http://www.w3.org/2000/svg">
<path fill-rule="evenodd" clip-rule="evenodd" d="M22.7812 13.5C22.7812 15.9615 21.8034 18.3223 20.0628 20.0628C18.3223 21.8034 15.9615 22.7812 13.5 22.7812C11.0385 22.7812 8.67774 21.8034 6.93717 20.0628C5.19659 18.3223 4.21875 15.9615 4.21875 13.5C4.21875 11.0385 5.19659 8.67774 6.93717 6.93717C8.67774 5.19659 11.0385 4.21875 13.5 4.21875C15.9615 4.21875 18.3223 5.19659 20.0628 6.93717C21.8034 8.67774 22.7812 11.0385 22.7812 13.5ZM25.3125 13.5C25.3125 16.6329 24.068 19.6374 21.8527 21.8527C19.6374 24.068 16.6329 25.3125 13.5 25.3125C10.3671 25.3125 7.36257 24.068 5.1473 21.8527C2.93203 19.6374 1.6875 16.6329 1.6875 13.5C1.6875 10.3671 2.93203 7.36257 5.1473 5.1473C7.36257 2.93203 10.3671 1.6875 13.5 1.6875C16.6329 1.6875 19.6374 2.93203 21.8527 5.1473C24.068 7.36257 25.3125 10.3671 25.3125 13.5ZM14.7656 9.28125C14.7656 8.94559 14.6323 8.62367 14.3949 8.38632C14.1576 8.14897 13.8357 8.01562 13.5 8.01562C13.1643 8.01562 12.8424 8.14897 12.6051 8.38632C12.3677 8.62367 12.2344 8.94559 12.2344 9.28125V12.2344H9.28125C8.94559 12.2344 8.62367 12.3677 8.38632 12.6051C8.14897 12.8424 8.01562 13.1643 8.01562 13.5C8.01562 13.8357 8.14897 14.1576 8.38632 14.3949C8.62367 14.6323 8.94559 14.7656 9.28125 14.7656H12.2344V17.7188C12.2344 18.0544 12.3677 18.3763 12.6051 18.6137C12.8424 18.851 13.1643 18.9844 13.5 18.9844C13.8357 18.9844 14.1576 18.851 14.3949 18.6137C14.6323 18.3763 14.7656 18.0544 14.7656 17.7188V14.7656H17.7188C18.0544 14.7656 18.3763 14.6323 18.6137 14.3949C18.851 14.1576 18.9844 13.8357 18.9844 13.5C18.9844 13.1643 18.851 12.8424 18.6137 12.6051C18.3763 12.3677 18.0544 12.2344 17.7188 12.2344H14.7656V9.28125Z" fill="#6730EC"/>
</svg>
