<svg width="215" height="215" viewBox="0 0 215 215" fill="none" xmlns="http://www.w3.org/2000/svg">
<path d="M107.276 208.752C164.312 208.752 210.549 183.045 210.549 151.334C210.549 119.623 164.312 93.9163 107.276 93.9163C50.2399 93.9163 4.00293 119.623 4.00293 151.334C4.00293 183.045 50.2399 208.752 107.276 208.752Z" fill="#6730EC" fill-opacity="0.5"/>
<path d="M96.2689 201.274C94.549 201.295 92.8534 200.867 91.3497 200.032L29.606 164.385C27.4904 163.163 26.2305 161.117 26.2305 158.911C26.2305 156.705 27.4904 154.658 29.606 153.437L125.926 97.8293C127.437 97.0137 129.128 96.5867 130.845 96.5867C132.563 96.5867 134.253 97.0137 135.764 97.8293L197.508 133.481C199.619 134.702 200.879 136.744 200.879 138.954C200.879 141.165 199.619 143.207 197.508 144.424L101.188 200.032C99.6843 200.867 97.9888 201.295 96.2689 201.274Z" fill="#9233CC" fill-opacity="0.3"/>
<path d="M29.2402 156.159C29.2402 157.737 30.4227 159.698 31.8804 160.541L93.6241 196.188C94.4415 196.603 95.3453 196.819 96.2622 196.819C97.179 196.819 98.0829 196.603 98.9002 196.188L195.22 140.58C196.678 139.72 197.856 137.776 197.856 136.198C197.856 134.62 196.678 132.659 195.22 131.821L133.472 96.1695C132.656 95.7541 131.752 95.5376 130.836 95.5376C129.92 95.5376 129.017 95.7541 128.2 96.1695L31.8847 151.79C30.427 152.62 29.2402 154.581 29.2402 156.159Z" fill="#37474F"/>
<path d="M31.8853 154.826L93.629 190.49C94.4463 190.903 95.3492 191.118 96.2649 191.118C97.1805 191.118 98.0834 190.903 98.9008 190.49L195.221 134.865C196.678 134.027 196.678 132.659 195.221 131.821L133.473 96.1695C132.656 95.7541 131.753 95.5376 130.837 95.5376C129.921 95.5376 129.018 95.7541 128.201 96.1695L31.8853 151.79C30.4276 152.62 30.4276 153.983 31.8853 154.826Z" fill="#455A64"/>
<path d="M96.2692 191.109V196.82C95.3513 196.84 94.4436 196.623 93.6333 196.192L31.8853 160.541C30.4276 159.681 29.2451 157.737 29.2451 156.159C29.2451 154.68 30.2857 152.865 31.6144 151.949C30.4319 152.809 30.5265 154.039 31.8853 154.826L93.6333 190.49C94.4444 190.919 95.3521 191.132 96.2692 191.109Z" fill="#263238"/>
<path d="M26.7722 151.872C25.4048 151.085 25.4822 149.752 25.4822 148.071V72.6356C25.5325 71.7205 25.7977 70.8301 26.2564 70.0367C26.7151 69.2432 27.3544 68.5691 28.1224 68.069L124.434 12.47C125.892 11.61 128.011 11.61 129.246 12.6033C130.48 13.5966 130.841 14.4953 130.841 16.1766V91.59C130.791 92.5053 130.527 93.3961 130.069 94.1901C129.611 94.9842 128.972 95.6594 128.205 96.1609L31.8849 151.79C30.4272 152.62 28.1396 152.65 26.7722 151.872Z" fill="#37474F"/>
<path d="M130.84 16.168C130.84 14.4867 129.658 13.8073 128.205 14.6415L31.8846 70.2577C31.1018 70.7463 30.4589 71.4292 30.0184 72.24L26.2559 70.0513C26.701 69.2462 27.3431 68.5671 28.1221 68.0776L124.433 12.47C125.891 11.6315 128.015 11.61 129.245 12.6076C130.475 13.6052 130.84 14.4867 130.84 16.168Z" fill="#455A64"/>
<path d="M31.5709 151.936C30.1175 152.62 28.0449 152.607 26.7721 151.872C25.409 151.085 25.4821 149.752 25.4821 148.071V72.6356C25.5151 71.7235 25.7816 70.8352 26.2561 70.0556L30.0186 72.24C29.5477 73.0212 29.2815 73.9086 29.2446 74.82V150.255C29.2403 151.816 30.2637 152.517 31.5709 151.936Z" fill="#263238"/>
<path d="M33.3041 73.2978L125.991 19.78C126.851 19.2769 127.573 19.6854 127.573 20.6916V90.8633C127.543 91.412 127.384 91.9459 127.109 92.4218C126.834 92.8977 126.451 93.3021 125.991 93.6024L33.3041 147.103C32.4441 147.606 31.7217 147.198 31.7217 146.187V76.0369C31.7509 75.4879 31.9094 74.9536 32.1844 74.4776C32.4594 74.0016 32.8431 73.5973 33.3041 73.2978Z" fill="black"/>
<path d="M33.3041 73.2978C32.8431 73.5973 32.4594 74.0016 32.1844 74.4776C31.9094 74.9536 31.7509 75.4879 31.7217 76.0369V144.966L123.35 92.0759C123.812 91.7769 124.197 91.3728 124.472 90.8968C124.748 90.4207 124.907 89.8862 124.937 89.3368V20.4078L33.3041 73.2978Z" fill="#263238"/>
<path d="M40.0294 152.22L128.545 101.123C128.93 100.928 129.356 100.827 129.788 100.827C130.219 100.827 130.645 100.928 131.03 101.123L134.255 102.933C134.943 103.329 134.943 103.974 134.255 104.37L45.7312 155.462C45.3452 155.657 44.9188 155.759 44.4863 155.759C44.0539 155.759 43.6275 155.657 43.2415 155.462L40.0294 153.66C39.3457 153.265 39.3457 152.624 40.0294 152.22Z" fill="#263238"/>
<path d="M48.7234 157.354L137.235 106.249C137.578 106.052 137.963 105.939 138.358 105.918C138.753 105.897 139.147 105.969 139.509 106.128L162.54 119.428C163.112 119.755 163.013 120.344 162.325 120.74L73.9214 171.772C73.5786 171.969 73.1943 172.084 72.7993 172.106C72.4044 172.129 72.0097 172.058 71.6467 171.901L48.5127 158.67C47.9408 158.335 48.0354 157.75 48.7234 157.354Z" fill="#263238"/>
<path d="M125.418 127.71L128.192 126.11C128.308 126.042 128.321 125.938 128.213 125.878L125.56 124.352C125.498 124.319 125.428 124.301 125.358 124.301C125.287 124.301 125.218 124.319 125.156 124.352L122.387 125.951C122.266 126.02 122.258 126.123 122.361 126.183L125.014 127.714C125.076 127.747 125.146 127.763 125.217 127.763C125.287 127.762 125.356 127.744 125.418 127.71ZM121.372 122.176L118.603 123.775C118.487 123.84 118.474 123.947 118.577 124.008L121.23 125.538C121.293 125.569 121.362 125.585 121.432 125.585C121.502 125.585 121.571 125.569 121.634 125.538L124.403 123.935C124.519 123.87 124.532 123.763 124.429 123.702L121.776 122.172C121.713 122.14 121.643 122.124 121.573 122.125C121.502 122.127 121.433 122.146 121.372 122.18V122.176ZM112.419 127.336L107.732 130.041C107.612 130.109 107.603 130.213 107.706 130.273L110.36 131.804C110.421 131.836 110.49 131.853 110.559 131.853C110.629 131.853 110.698 131.836 110.759 131.804L115.451 129.099C115.567 129.03 115.58 128.927 115.472 128.862L112.823 127.332C112.76 127.301 112.69 127.287 112.619 127.29C112.549 127.293 112.48 127.313 112.419 127.349V127.336ZM117.321 124.502L114.552 126.102C114.436 126.171 114.423 126.274 114.526 126.334L117.179 127.865C117.242 127.898 117.311 127.915 117.381 127.915C117.452 127.915 117.521 127.898 117.584 127.865L120.353 126.265C120.473 126.196 120.482 126.093 120.379 126.033L117.725 124.502C117.662 124.473 117.592 124.46 117.522 124.462C117.452 124.464 117.383 124.482 117.321 124.515V124.502ZM106.451 130.78L103.682 132.38C103.561 132.449 103.553 132.552 103.656 132.612L106.309 134.143C106.371 134.175 106.439 134.192 106.509 134.192C106.579 134.192 106.647 134.175 106.709 134.143L109.482 132.543C109.598 132.474 109.611 132.371 109.482 132.311L106.834 130.78C106.773 130.753 106.707 130.739 106.641 130.742C106.574 130.744 106.509 130.762 106.451 130.793V130.78ZM102.4 133.119L99.631 134.719C99.5106 134.788 99.502 134.891 99.6052 134.951L102.258 136.482C102.32 136.514 102.389 136.531 102.458 136.531C102.528 136.531 102.597 136.514 102.658 136.482L105.432 134.882C105.548 134.814 105.561 134.71 105.453 134.65L102.804 133.119C102.741 133.088 102.671 133.073 102.601 133.075C102.53 133.078 102.461 133.097 102.4 133.132V133.119ZM112.793 139.367L115.563 137.763C115.683 137.699 115.692 137.591 115.588 137.531L112.935 136C112.874 135.968 112.805 135.951 112.735 135.951C112.666 135.951 112.597 135.968 112.535 136L109.762 137.6C109.646 137.669 109.633 137.772 109.762 137.832L112.411 139.363C112.469 139.393 112.534 139.41 112.6 139.413C112.666 139.416 112.732 139.405 112.793 139.38V139.367ZM108.743 141.702L111.512 140.103C111.632 140.034 111.641 139.931 111.538 139.87L108.885 138.34C108.822 138.309 108.754 138.293 108.685 138.293C108.615 138.293 108.547 138.309 108.485 138.34L105.711 139.943C105.595 140.008 105.582 140.115 105.69 140.176L108.339 141.706C108.4 141.741 108.469 141.76 108.54 141.761C108.61 141.763 108.68 141.747 108.743 141.715V141.702ZM104.692 144.05L107.461 142.45C107.582 142.382 107.59 142.278 107.487 142.218L104.834 140.687C104.772 140.657 104.703 140.641 104.634 140.641C104.565 140.641 104.496 140.657 104.434 140.687L101.661 142.287C101.545 142.356 101.532 142.459 101.661 142.519L104.309 144.05C104.369 144.08 104.434 144.095 104.501 144.095C104.567 144.095 104.633 144.08 104.692 144.05ZM100.642 146.389L103.415 144.79C103.531 144.721 103.54 144.618 103.437 144.557L100.783 143.027C100.722 142.994 100.653 142.977 100.583 142.977C100.514 142.977 100.445 142.994 100.384 143.027L97.61 144.643C97.4939 144.712 97.481 144.815 97.5885 144.876L100.237 146.406C100.301 146.438 100.371 146.453 100.441 146.45C100.512 146.448 100.58 146.429 100.642 146.393V146.389ZM121.372 130.049L124.141 128.45C124.257 128.381 124.27 128.278 124.167 128.217L121.514 126.687C121.452 126.653 121.382 126.636 121.312 126.636C121.241 126.636 121.172 126.653 121.11 126.687L118.34 128.286C118.22 128.355 118.211 128.458 118.315 128.518L120.968 130.049C121.029 130.083 121.099 130.101 121.169 130.102C121.24 130.103 121.309 130.086 121.372 130.053V130.049ZM116.844 137.041L123.027 133.472C123.143 133.403 123.152 133.3 123.049 133.24L116.599 129.52C116.537 129.487 116.467 129.47 116.397 129.47C116.326 129.47 116.257 129.487 116.195 129.52L112.995 131.369C112.879 131.434 112.871 131.541 112.974 131.601L116.384 133.567C116.487 133.627 116.474 133.734 116.358 133.799L113.8 135.278C113.683 135.347 113.671 135.45 113.778 135.51L116.427 137.041C116.491 137.074 116.563 137.091 116.635 137.091C116.708 137.091 116.779 137.074 116.844 137.041ZM98.3539 135.471L95.5847 137.071C95.4643 137.14 95.4557 137.243 95.5589 137.303L98.212 138.834C98.2737 138.866 98.3423 138.883 98.412 138.883C98.4816 138.883 98.5502 138.866 98.6119 138.834L101.385 137.234C101.502 137.166 101.514 137.062 101.385 137.002L98.7538 135.45C98.6899 135.42 98.6195 135.406 98.549 135.41C98.4785 135.414 98.4101 135.435 98.3496 135.471H98.3539ZM94.3033 137.811L91.5341 139.41C91.4137 139.479 91.4051 139.582 91.5083 139.642L94.1614 141.173C94.2236 141.204 94.292 141.22 94.3614 141.22C94.4307 141.22 94.4991 141.204 94.5613 141.173L97.3348 139.574C97.4509 139.505 97.4638 139.397 97.3563 139.337L94.7075 137.806C94.6444 137.773 94.574 137.756 94.5027 137.757C94.4314 137.758 94.3614 137.776 94.299 137.811H94.3033ZM71.8917 162.776C71.9534 162.809 72.022 162.826 72.0917 162.826C72.1613 162.826 72.2299 162.809 72.2916 162.776L75.0651 161.177C75.1812 161.108 75.1941 161.005 75.0866 160.945L72.4378 159.414C72.3756 159.381 72.3062 159.363 72.2357 159.363C72.1652 159.363 72.0958 159.381 72.0336 159.414L69.2644 161.013C69.144 161.082 69.1354 161.185 69.2386 161.246L71.8917 162.776ZM61.92 156.52L59.1465 158.12C59.0304 158.188 59.0175 158.292 59.125 158.356L61.7738 159.883C61.836 159.916 61.9054 159.933 61.9759 159.933C62.0464 159.933 62.1158 159.916 62.178 159.883L64.9472 158.283C65.0676 158.214 65.0762 158.111 64.973 158.051L62.2984 156.52C62.2391 156.493 62.1746 156.478 62.1092 156.478C62.0439 156.478 61.9793 156.493 61.92 156.52ZM67.0542 161.211C67.1171 161.242 67.1863 161.258 67.2563 161.258C67.3264 161.258 67.3955 161.242 67.4584 161.211L70.2276 159.607C70.3437 159.543 70.3566 159.435 70.2534 159.375L67.5788 157.81C67.5166 157.777 67.4472 157.76 67.3767 157.76C67.3062 157.76 67.2368 157.777 67.1746 157.81L64.4054 159.41C64.2893 159.474 64.2764 159.582 64.3796 159.642L67.0542 161.211ZM78.2342 163.722L81.0034 162.123C81.1238 162.054 81.1324 161.951 81.0292 161.891L78.3761 160.36C78.3144 160.327 78.2458 160.311 78.1762 160.311C78.1065 160.311 78.0379 160.327 77.9762 160.36L75.2027 161.959C75.0866 162.028 75.0737 162.131 75.1812 162.192L77.83 163.722C77.8892 163.751 77.9541 163.765 78.0197 163.764C78.0853 163.763 78.1499 163.748 78.2084 163.718L78.2342 163.722ZM73.7794 166.075C73.8416 166.108 73.911 166.125 73.9815 166.125C74.052 166.125 74.1214 166.108 74.1836 166.075L76.9528 164.475C77.0732 164.406 77.0818 164.303 76.9786 164.243L74.3255 162.712C74.2638 162.68 74.1952 162.663 74.1256 162.663C74.0559 162.663 73.9873 162.68 73.9256 162.712L71.1521 164.312C71.036 164.38 71.0231 164.484 71.1521 164.544L73.7794 166.075ZM65.9749 154.185L63.2014 155.785C63.0853 155.849 63.0724 155.957 63.1756 156.017L65.8287 157.548C65.8909 157.581 65.9603 157.598 66.0308 157.598C66.1013 157.598 66.1707 157.581 66.2329 157.548L69.0021 155.948C69.1225 155.884 69.1311 155.776 69.0279 155.716L66.3748 154.185C66.3103 154.147 66.2372 154.127 66.1625 154.127C66.0879 154.126 66.0143 154.144 65.9491 154.181L65.9749 154.185ZM86.2236 142.489L83.42 144.084C83.2996 144.153 83.291 144.256 83.3942 144.317L86.0473 145.847C86.109 145.88 86.1776 145.897 86.2473 145.897C86.3169 145.897 86.3855 145.88 86.4472 145.847L89.2207 144.248C89.3368 144.179 89.3497 144.076 89.2465 144.016L86.5934 142.485C86.5316 142.455 86.4641 142.44 86.3956 142.44C86.3272 142.44 86.2596 142.455 86.1978 142.485L86.2236 142.489ZM70.0212 151.846L67.252 153.445C67.1359 153.514 67.123 153.617 67.2262 153.678L69.8793 155.208C69.9422 155.239 70.0114 155.255 70.0814 155.255C70.1515 155.255 70.2206 155.239 70.2835 155.208L73.0527 153.609C73.1731 153.54 73.1817 153.437 73.0785 153.372L70.4254 151.842C70.3601 151.804 70.2859 151.784 70.2104 151.784C70.1349 151.784 70.0608 151.804 69.9954 151.842L70.0212 151.846ZM90.2742 140.15L87.505 141.754C87.3846 141.818 87.376 141.926 87.4792 141.986L90.1323 143.517C90.194 143.549 90.2626 143.566 90.3323 143.566C90.4019 143.566 90.4705 143.549 90.5322 143.517L93.3057 141.917C93.4218 141.853 93.4347 141.745 93.3057 141.685L90.6569 140.154C90.5941 140.121 90.5245 140.104 90.4537 140.102C90.3828 140.101 90.3126 140.115 90.2484 140.146L90.2742 140.15ZM82.13 144.824L79.3608 146.424C79.2404 146.492 79.2318 146.596 79.335 146.656L81.9881 148.187C82.0503 148.22 82.1197 148.237 82.1902 148.237C82.2607 148.237 82.3301 148.22 82.3923 148.187L85.1615 146.587C85.2776 146.518 85.2905 146.415 85.1873 146.355L82.56 144.811C82.4935 144.775 82.4188 144.758 82.3433 144.76C82.2678 144.762 82.1942 144.784 82.13 144.824ZM78.0794 147.163L75.3274 148.78C75.207 148.849 75.1984 148.952 75.3016 149.012L77.9547 150.543C78.0169 150.576 78.0863 150.593 78.1568 150.593C78.2273 150.593 78.2967 150.576 78.3589 150.543L81.1281 148.943C81.2442 148.875 81.2571 148.771 81.1539 148.711L78.5008 147.18C78.44 147.145 78.3714 147.124 78.3009 147.121C78.2304 147.118 78.1602 147.133 78.0966 147.163H78.0794ZM74.0288 149.502L71.2596 151.102C71.1435 151.171 71.1306 151.274 71.2338 151.334L73.8869 152.865C73.9491 152.898 74.0185 152.915 74.089 152.915C74.1595 152.915 74.2289 152.898 74.2911 152.865L77.0603 151.265C77.1764 151.197 77.1893 151.093 77.0861 151.033L74.433 149.502C74.373 149.472 74.3067 149.456 74.2395 149.456C74.1723 149.456 74.106 149.472 74.046 149.502H74.0288ZM92.5188 151.072L95.2923 149.472C95.4084 149.403 95.417 149.3 95.3138 149.24L92.665 147.709C92.6028 147.676 92.5334 147.659 92.4629 147.659C92.3924 147.659 92.323 147.676 92.2608 147.709L89.4873 149.309C89.3712 149.378 89.3626 149.481 89.4873 149.541L92.1361 151.072C92.1983 151.105 92.2677 151.122 92.3382 151.122C92.4087 151.122 92.4781 151.105 92.5403 151.072H92.5188ZM130.307 117.007L127.534 118.607C127.418 118.676 127.405 118.779 127.512 118.843L130.161 120.374C130.223 120.407 130.293 120.425 130.363 120.425C130.434 120.425 130.503 120.407 130.565 120.374L133.334 118.775C133.455 118.706 133.463 118.603 133.36 118.542L130.72 116.994C130.658 116.967 130.591 116.954 130.523 116.956C130.455 116.958 130.389 116.976 130.329 117.007H130.307ZM125.401 119.841L122.632 121.441C122.511 121.509 122.503 121.613 122.606 121.673L125.259 123.204C125.322 123.234 125.391 123.25 125.461 123.25C125.531 123.25 125.6 123.234 125.663 123.204L128.432 121.604C128.549 121.535 128.561 121.432 128.458 121.367L125.805 119.837C125.745 119.808 125.68 119.793 125.613 119.794C125.547 119.795 125.482 119.811 125.422 119.841H125.401ZM134.358 114.681L131.584 116.281C131.468 116.345 131.455 116.453 131.563 116.513L134.212 118.044C134.274 118.077 134.343 118.094 134.414 118.094C134.484 118.094 134.554 118.077 134.616 118.044L137.385 116.444C137.505 116.379 137.514 116.272 137.411 116.212L134.758 114.681C134.699 114.651 134.635 114.634 134.57 114.633C134.504 114.631 134.439 114.645 134.379 114.672L134.358 114.681ZM111.989 135.45L114.763 133.85C114.879 133.782 114.887 133.678 114.784 133.618L112.135 132.087C112.072 132.057 112.003 132.041 111.933 132.041C111.863 132.041 111.794 132.057 111.731 132.087L108.958 133.73C108.842 133.799 108.833 133.902 108.958 133.962L111.607 135.493C111.669 135.516 111.737 135.524 111.803 135.517C111.869 135.509 111.933 135.486 111.989 135.45ZM138.83 112.299C138.768 112.266 138.7 112.249 138.63 112.249C138.56 112.249 138.492 112.266 138.43 112.299L135.656 113.95C135.54 114.019 135.527 114.122 135.635 114.182L138.284 115.713C138.347 115.744 138.416 115.76 138.486 115.76C138.556 115.76 138.625 115.744 138.688 115.713L141.457 114.113C141.578 114.045 141.586 113.941 141.483 113.877L138.83 112.299ZM96.5909 148.715L99.3644 147.116C99.4805 147.047 99.4891 146.944 99.3644 146.884L96.75 145.37C96.6883 145.338 96.6197 145.321 96.5501 145.321C96.4804 145.321 96.4118 145.338 96.3501 145.37L93.5766 146.97C93.4605 147.038 93.4519 147.142 93.5551 147.202L96.2039 148.733C96.2639 148.763 96.3302 148.779 96.3974 148.779C96.4646 148.779 96.5309 148.763 96.5909 148.733V148.715ZM146.26 120.056L149.034 118.456C149.15 118.388 149.163 118.284 149.055 118.224L146.406 116.693C146.344 116.66 146.275 116.643 146.204 116.643C146.134 116.643 146.064 116.66 146.002 116.693L143.233 118.293C143.113 118.362 143.104 118.465 143.207 118.525L145.86 120.056C145.922 120.088 145.991 120.105 146.06 120.105C146.13 120.105 146.199 120.088 146.26 120.056ZM138.426 120.206L141.195 118.607C141.311 118.538 141.324 118.435 141.221 118.375L138.568 116.844C138.505 116.811 138.436 116.793 138.365 116.793C138.295 116.793 138.226 116.811 138.163 116.844L135.394 118.443C135.278 118.512 135.265 118.615 135.368 118.676L138.021 120.206C138.084 120.24 138.153 120.257 138.224 120.257C138.294 120.257 138.363 120.24 138.426 120.206ZM142.618 114.505C142.556 114.472 142.487 114.454 142.416 114.454C142.346 114.454 142.276 114.472 142.214 114.505L139.445 116.1C139.329 116.169 139.316 116.272 139.419 116.332L142.072 117.863C142.134 117.896 142.204 117.913 142.274 117.913C142.345 117.913 142.414 117.896 142.476 117.863L145.245 116.263C145.362 116.195 145.374 116.091 145.271 116.031L142.618 114.505ZM143.478 114.014L149.928 117.73C149.99 117.762 150.058 117.779 150.128 117.779C150.198 117.779 150.266 117.762 150.328 117.73L153.08 116.1C153.196 116.031 153.209 115.928 153.102 115.868L146.652 112.148C146.589 112.118 146.519 112.102 146.449 112.102C146.379 112.102 146.31 112.118 146.247 112.148L143.478 113.748C143.375 113.847 143.366 113.95 143.47 114.014H143.478ZM134.113 119.196L131.344 120.796C131.227 120.864 131.215 120.968 131.318 121.028L133.971 122.559C134.033 122.592 134.102 122.609 134.173 122.609C134.243 122.609 134.313 122.592 134.375 122.559L137.144 120.959C137.265 120.89 137.273 120.787 137.17 120.727L134.517 119.196C134.455 119.163 134.385 119.146 134.315 119.146C134.244 119.146 134.175 119.163 134.113 119.196ZM103.63 136.796L100.861 138.395C100.74 138.464 100.732 138.567 100.835 138.628L103.488 140.158C103.55 140.191 103.618 140.208 103.688 140.208C103.758 140.208 103.826 140.191 103.888 140.158L106.662 138.559C106.778 138.49 106.791 138.387 106.662 138.327L104.013 136.796C103.953 136.766 103.888 136.751 103.821 136.751C103.755 136.751 103.689 136.766 103.63 136.796ZM141.81 122.408C141.872 122.439 141.94 122.455 142.01 122.455C142.079 122.455 142.147 122.439 142.21 122.408L144.983 120.804C145.099 120.74 145.112 120.632 145.009 120.572L142.356 119.041C142.294 119.008 142.224 118.991 142.154 118.991C142.083 118.991 142.014 119.008 141.952 119.041L139.182 120.641C139.062 120.71 139.053 120.813 139.157 120.873L141.81 122.408ZM107.681 134.448L104.92 136.056C104.804 136.125 104.795 136.228 104.899 136.288L107.552 137.819C107.613 137.852 107.682 137.869 107.752 137.869C107.821 137.869 107.89 137.852 107.952 137.819L110.725 136.22C110.841 136.151 110.854 136.048 110.725 135.987L108.076 134.457C108.015 134.425 107.947 134.408 107.878 134.408C107.81 134.408 107.742 134.425 107.681 134.457V134.448ZM75.938 160.437C75.9997 160.47 76.0683 160.487 76.138 160.487C76.2076 160.487 76.2762 160.47 76.3379 160.437L79.1114 158.838C79.2275 158.769 79.2404 158.666 79.1329 158.605L76.4841 157.075C76.4219 157.042 76.3525 157.024 76.282 157.024C76.2115 157.024 76.1421 157.042 76.0799 157.075L73.3107 158.67C73.1903 158.739 73.1817 158.842 73.2849 158.902L75.938 160.437ZM71.208 155.505L68.4388 157.105C68.3227 157.174 68.3098 157.277 68.413 157.337L71.0661 158.868C71.129 158.899 71.1982 158.915 71.2682 158.915C71.3383 158.915 71.4074 158.899 71.4703 158.868L74.2395 157.268C74.3556 157.199 74.3685 157.096 74.2653 157.032L71.6122 155.501C71.5519 155.471 71.4854 155.456 71.4182 155.457C71.351 155.458 71.2849 155.474 71.2252 155.505H71.208ZM80.3713 158.085L83.1448 156.486C83.2609 156.417 83.2738 156.314 83.1448 156.253L80.496 154.723C80.4338 154.689 80.3644 154.672 80.2939 154.672C80.2234 154.672 80.154 154.689 80.0918 154.723L77.3226 156.322C77.2022 156.391 77.1936 156.494 77.2968 156.554L79.9499 158.085C80.0187 158.129 80.0985 158.152 80.18 158.152C80.2614 158.152 80.3412 158.129 80.41 158.085H80.3713ZM84.4219 155.746L87.1954 154.146C87.3115 154.078 87.3244 153.974 87.2169 153.914L84.5681 152.383C84.5052 152.353 84.4361 152.337 84.366 152.337C84.296 152.337 84.2268 152.353 84.1639 152.383L81.3947 153.987C81.2743 154.052 81.2657 154.159 81.3689 154.219L84.022 155.75C84.0862 155.785 84.1582 155.803 84.2311 155.802C84.3041 155.801 84.3757 155.782 84.4391 155.746H84.4219ZM88.4725 153.411L91.246 151.811C91.3621 151.743 91.3707 151.635 91.246 151.575L88.5972 150.044C88.535 150.011 88.4656 149.994 88.3951 149.994C88.3246 149.994 88.2552 150.011 88.193 150.044L85.4195 151.644C85.3034 151.713 85.2948 151.816 85.398 151.876L88.0511 153.407C88.1178 153.445 88.1931 153.465 88.2699 153.466C88.3466 153.467 88.4223 153.448 88.4897 153.411H88.4725ZM75.2586 153.166L72.4894 154.766C72.369 154.834 72.3604 154.938 72.4636 154.998L75.1167 156.529C75.1789 156.562 75.2483 156.579 75.3188 156.579C75.3893 156.579 75.4587 156.562 75.5209 156.529L78.2901 154.929C78.4062 154.86 78.4191 154.757 78.3159 154.697L75.68 153.153C75.6168 153.122 75.5468 153.107 75.4763 153.109C75.4058 153.111 75.337 153.131 75.2758 153.166H75.2586ZM79.3092 150.827L76.54 152.426C76.4196 152.495 76.411 152.598 76.5142 152.659L79.1673 154.189C79.229 154.222 79.2976 154.239 79.3673 154.239C79.4369 154.239 79.5055 154.222 79.5672 154.189L82.3407 152.59C82.4568 152.521 82.4697 152.418 82.3622 152.358L79.7134 150.827C79.6534 150.797 79.5871 150.781 79.5199 150.781C79.4527 150.781 79.3864 150.797 79.3264 150.827H79.3092ZM95.5288 141.47L92.7596 143.07C92.6392 143.138 92.6306 143.242 92.7338 143.302L95.3869 144.833C95.4491 144.863 95.5175 144.879 95.5869 144.879C95.6562 144.879 95.7246 144.863 95.7868 144.833L98.5603 143.233C98.6764 143.164 98.6893 143.061 98.5603 142.996L95.933 141.47C95.8708 141.437 95.8014 141.42 95.7309 141.42C95.6604 141.42 95.591 141.437 95.5288 141.47ZM91.4782 143.805L88.709 145.409C88.5886 145.473 88.58 145.581 88.6832 145.641L91.3363 147.172C91.398 147.204 91.4666 147.221 91.5363 147.221C91.6059 147.221 91.6745 147.204 91.7362 147.172L94.5097 145.572C94.6258 145.508 94.6387 145.4 94.5312 145.34L91.8824 143.809C91.8195 143.778 91.7504 143.762 91.6803 143.762C91.6103 143.762 91.5411 143.778 91.4782 143.809V143.805ZM99.5794 139.131L96.8102 140.73C96.6898 140.799 96.6812 140.902 96.7844 140.963L99.4375 142.493C99.4992 142.526 99.5678 142.543 99.6375 142.543C99.7071 142.543 99.7757 142.526 99.8374 142.493L102.611 140.894C102.727 140.825 102.74 140.722 102.632 140.662L99.9836 139.131C99.9211 139.098 99.8515 139.082 99.781 139.082C99.7105 139.083 99.6413 139.101 99.5794 139.135V139.131ZM83.377 148.488L80.6078 150.07C80.4874 150.139 80.4788 150.242 80.582 150.302L83.2351 151.833C83.2968 151.865 83.3654 151.882 83.4351 151.882C83.5047 151.882 83.5733 151.865 83.635 151.833L86.4085 150.233C86.5246 150.165 86.5375 150.061 86.43 150.001L83.7812 148.47C83.7176 148.44 83.6475 148.425 83.577 148.428C83.5065 148.431 83.4378 148.452 83.377 148.488ZM87.4276 146.148L84.6584 147.748C84.538 147.817 84.5294 147.92 84.6326 147.984L87.2857 149.515C87.3474 149.548 87.416 149.565 87.4857 149.565C87.5553 149.565 87.6239 149.548 87.6856 149.515L90.4591 147.916C90.5752 147.847 90.5881 147.744 90.4591 147.683L87.8103 146.153C87.7506 146.125 87.6855 146.11 87.6194 146.109C87.5534 146.108 87.488 146.122 87.4276 146.148ZM82.2676 161.379L85.0368 159.779C85.1572 159.715 85.1658 159.607 85.0626 159.547L82.4095 158.016C82.3473 157.986 82.2789 157.97 82.2096 157.97C82.1402 157.97 82.0718 157.986 82.0096 158.016L79.2361 159.62C79.12 159.685 79.1071 159.792 79.2146 159.852L81.8634 161.383C81.9249 161.414 81.9929 161.43 82.0617 161.429C82.1306 161.429 82.1982 161.411 82.259 161.379H82.2676ZM60.9009 160.39L58.2478 158.859C58.1862 158.827 58.1175 158.81 58.0479 158.81C57.9782 158.81 57.9096 158.827 57.8479 158.859L55.0744 160.459C54.9583 160.528 54.9454 160.631 55.0529 160.691L57.7017 162.222C57.7639 162.255 57.8333 162.272 57.9038 162.272C57.9743 162.272 58.0437 162.255 58.1059 162.222L60.8751 160.622C60.9955 160.536 61.0041 160.433 60.9009 160.39ZM66.1813 161.68L63.5282 160.149C63.4653 160.118 63.3962 160.102 63.3261 160.102C63.2561 160.102 63.1869 160.118 63.124 160.149L58.8627 162.613C58.7466 162.682 58.7337 162.785 58.8369 162.845L61.49 164.376C61.5522 164.409 61.6216 164.427 61.6921 164.427C61.7626 164.427 61.832 164.409 61.8942 164.376L66.1555 161.912C66.2759 161.861 66.2845 161.757 66.1813 161.68ZM56.9406 157.333L54.2918 155.802C54.2296 155.769 54.1602 155.751 54.0897 155.751C54.0192 155.751 53.9498 155.769 53.8876 155.802L50.4777 157.81C50.3616 157.879 50.3487 157.982 50.4777 158.042L53.1265 159.573C53.1887 159.606 53.2581 159.623 53.3286 159.623C53.3991 159.623 53.4685 159.606 53.5307 159.573L56.9406 157.604C57.0352 157.513 57.0481 157.41 56.9406 157.35V157.333ZM59.5593 155.823C59.6215 155.854 59.6899 155.87 59.7593 155.87C59.8286 155.87 59.897 155.854 59.9592 155.823L62.7327 154.219C62.8488 154.155 62.8617 154.052 62.7542 153.987L60.1054 152.456C60.0432 152.423 59.9738 152.406 59.9033 152.406C59.8328 152.406 59.7634 152.423 59.7012 152.456L56.932 154.056C56.8116 154.125 56.803 154.228 56.9062 154.288L59.5593 155.823ZM71.0317 163.254L68.37 161.74C68.3078 161.707 68.2384 161.69 68.1679 161.69C68.0974 161.69 68.028 161.707 67.9658 161.74L62.6381 164.815C62.5177 164.883 62.5091 164.987 62.6123 165.047L65.2654 166.578C65.3271 166.61 65.3957 166.627 65.4654 166.627C65.535 166.627 65.6037 166.61 65.6653 166.578L70.9973 163.503C71.1263 163.434 71.1392 163.331 71.0317 163.271V163.254ZM72.9022 166.548L70.2491 165.017C70.1874 164.984 70.1188 164.967 70.0492 164.967C69.9795 164.967 69.9109 164.984 69.8492 165.017L66.4393 166.986C66.3189 167.055 66.3103 167.158 66.4135 167.218L69.0666 168.749C69.1283 168.782 69.1969 168.799 69.2666 168.799C69.3362 168.799 69.4048 168.782 69.4665 168.749L72.8807 166.78C72.9968 166.728 73.0054 166.625 72.9022 166.565V166.548ZM89.6722 138.434C89.7344 138.467 89.8038 138.485 89.8743 138.485C89.9448 138.485 90.0142 138.467 90.0764 138.434L92.8456 136.835C92.966 136.766 92.9746 136.663 92.8714 136.602L90.2183 135.072C90.1566 135.039 90.088 135.022 90.0184 135.022C89.9487 135.022 89.8801 135.039 89.8184 135.072L87.0449 136.671C86.9288 136.74 86.9159 136.843 87.0234 136.903L89.6722 138.434ZM81.571 143.13C81.6332 143.163 81.7026 143.18 81.7731 143.18C81.8436 143.18 81.913 143.163 81.9752 143.13L84.7444 141.53C84.8648 141.461 84.8734 141.358 84.7702 141.298L82.13 139.75C82.0683 139.718 81.9997 139.701 81.9301 139.701C81.8604 139.701 81.7918 139.718 81.7301 139.75L78.9566 141.35C78.8405 141.418 78.8276 141.522 78.9351 141.582L81.571 143.13ZM63.6099 153.51C63.6716 153.542 63.7402 153.559 63.8099 153.559C63.8795 153.559 63.9481 153.542 64.0098 153.51L66.7833 151.91C66.8994 151.842 66.9123 151.738 66.8048 151.678L64.156 150.147C64.0938 150.114 64.0244 150.097 63.9539 150.097C63.8834 150.097 63.814 150.114 63.7518 150.147L60.9826 151.747C60.8622 151.816 60.8536 151.919 60.9568 151.979L63.6099 153.51ZM85.6216 140.799C85.6838 140.832 85.7532 140.85 85.8237 140.85C85.8942 140.85 85.9636 140.832 86.0258 140.799L88.795 139.2C88.9154 139.131 88.924 139.028 88.8208 138.967L86.1677 137.437C86.106 137.404 86.0374 137.387 85.9678 137.387C85.8981 137.387 85.8295 137.404 85.7678 137.437L82.99 139.028C82.8739 139.096 82.861 139.2 82.99 139.26L85.6216 140.799ZM77.5204 145.469C77.5833 145.5 77.6525 145.516 77.7225 145.516C77.7926 145.516 77.8617 145.5 77.9246 145.469L80.6938 143.869C80.8142 143.801 80.8228 143.697 80.7196 143.633L78.0665 142.102C78.0048 142.07 77.9362 142.053 77.8666 142.053C77.7969 142.053 77.7283 142.07 77.6666 142.102L74.8931 143.702C74.777 143.77 74.7641 143.874 74.8931 143.934L77.5204 145.469ZM74.8931 166.728C74.8309 166.695 74.7615 166.678 74.691 166.678C74.6205 166.678 74.5511 166.695 74.4889 166.728L70.2233 169.188C70.1072 169.257 70.0986 169.364 70.2018 169.424L72.8549 170.955C72.9166 170.987 72.9852 171.004 73.0549 171.004C73.1245 171.004 73.1931 170.987 73.2548 170.955L77.5204 168.495C77.6365 168.427 77.6451 168.323 77.5419 168.263L74.8931 166.728ZM71.7068 148.823C71.769 148.856 71.8384 148.873 71.9089 148.873C71.9794 148.873 72.0488 148.856 72.111 148.823L74.8845 147.223C75.0006 147.155 75.0092 147.051 74.8845 146.991L72.24 145.447C72.1778 145.414 72.1084 145.397 72.0379 145.397C71.9674 145.397 71.898 145.414 71.8358 145.447L69.0795 147.06C68.9634 147.129 68.9548 147.232 69.058 147.292L71.7068 148.823ZM67.6605 151.162C67.7222 151.195 67.7908 151.212 67.8605 151.212C67.9301 151.212 67.9987 151.195 68.0604 151.162L70.8339 149.563C70.95 149.494 70.9586 149.391 70.8554 149.33L68.2066 147.8C68.1444 147.766 68.075 147.749 68.0045 147.749C67.934 147.749 67.8646 147.766 67.8024 147.8L65.0289 149.399C64.9128 149.468 64.9042 149.571 65.0289 149.631L67.6605 151.162ZM149.932 123.41C149.87 123.377 149.801 123.36 149.73 123.36C149.66 123.36 149.59 123.377 149.528 123.41L142.708 127.349C142.588 127.413 142.579 127.521 142.683 127.581L145.336 129.112C145.397 129.144 145.466 129.161 145.536 129.161C145.605 129.161 145.674 129.144 145.736 129.112L152.56 125.177C152.676 125.108 152.684 125.005 152.56 124.945L149.932 123.41ZM140.976 128.57C140.914 128.538 140.845 128.521 140.776 128.521C140.706 128.521 140.637 128.538 140.576 128.57L137.802 130.17C137.686 130.238 137.673 130.342 137.781 130.402L140.429 131.933C140.492 131.966 140.561 131.983 140.632 131.983C140.702 131.983 140.771 131.966 140.834 131.933L143.603 130.333C143.723 130.264 143.732 130.161 143.629 130.101L140.976 128.57ZM86.3096 159.044L89.0788 157.444C89.1992 157.376 89.2078 157.268 89.1046 157.208L86.4515 155.66C86.3899 155.628 86.3212 155.611 86.2516 155.611C86.1819 155.611 86.1133 155.628 86.0516 155.66L83.2781 157.26C83.162 157.328 83.1491 157.432 83.2781 157.492L85.9269 159.023C85.9854 159.053 86.0499 159.071 86.1159 159.075C86.182 159.079 86.248 159.068 86.3096 159.044ZM132.874 133.244C132.813 133.212 132.744 133.195 132.674 133.195C132.605 133.195 132.536 133.212 132.474 133.244L129.701 134.844C129.585 134.912 129.572 135.016 129.679 135.076L132.328 136.607C132.391 136.637 132.46 136.653 132.53 136.653C132.6 136.653 132.669 136.637 132.732 136.607L135.502 135.003C135.622 134.938 135.631 134.831 135.527 134.771L132.874 133.244ZM153.983 121.062C153.921 121.029 153.851 121.012 153.781 121.012C153.71 121.012 153.641 121.029 153.579 121.062L150.805 122.662C150.689 122.731 150.681 122.834 150.805 122.894L153.454 124.425C153.516 124.458 153.586 124.475 153.656 124.475C153.727 124.475 153.796 124.458 153.858 124.425L156.632 122.825C156.748 122.756 156.757 122.653 156.653 122.593L153.983 121.062ZM160.682 120.254L154.232 116.534C154.169 116.504 154.1 116.488 154.03 116.488C153.96 116.488 153.891 116.504 153.828 116.534L151.059 118.138C150.939 118.203 150.93 118.31 151.033 118.37L157.483 122.086C157.545 122.119 157.615 122.136 157.685 122.136C157.756 122.136 157.825 122.119 157.887 122.086L160.661 120.486C160.777 120.421 160.786 120.318 160.682 120.258V120.254ZM117.743 141.986C117.68 141.953 117.611 141.936 117.541 141.936C117.47 141.936 117.401 141.953 117.338 141.986L113.95 143.973C113.83 144.041 113.821 144.145 113.924 144.205L116.577 145.736C116.639 145.766 116.708 145.782 116.777 145.782C116.847 145.782 116.915 145.766 116.977 145.736L120.391 143.766C120.508 143.697 120.516 143.594 120.413 143.534L117.743 141.986ZM127.972 136.078C127.911 136.045 127.842 136.028 127.772 136.028C127.703 136.028 127.634 136.045 127.572 136.078L123.307 138.537C123.191 138.606 123.178 138.709 123.281 138.77L125.934 140.3C125.996 140.334 126.066 140.351 126.136 140.351C126.207 140.351 126.276 140.334 126.338 140.3L130.6 137.841C130.72 137.772 130.729 137.669 130.625 137.609L127.972 136.078ZM108.36 147.404C108.298 147.372 108.23 147.355 108.16 147.355C108.09 147.355 108.022 147.372 107.96 147.404L85.1701 160.575C85.0497 160.644 85.0411 160.747 85.1443 160.807L87.7974 162.338C87.8596 162.371 87.929 162.388 87.9995 162.388C88.07 162.388 88.1394 162.371 88.2016 162.338L110.992 149.167C111.112 149.098 111.121 148.995 111.017 148.935L108.36 147.404ZM84.28 161.31C84.2178 161.277 84.1484 161.26 84.0779 161.26C84.0074 161.26 83.938 161.277 83.8758 161.31L80.4659 163.28C80.3498 163.344 80.3369 163.452 80.4444 163.512L83.0932 165.043C83.1554 165.076 83.2248 165.093 83.2953 165.093C83.3658 165.093 83.4352 165.076 83.4974 165.043L86.9073 163.073C87.0234 163.009 87.0363 162.901 86.9331 162.841L84.28 161.31ZM113.06 144.695C112.998 144.662 112.928 144.645 112.858 144.645C112.787 144.645 112.718 144.662 112.656 144.695L109.22 146.677C109.104 146.746 109.091 146.854 109.194 146.914L111.847 148.44C111.91 148.473 111.979 148.491 112.049 148.491C112.12 148.491 112.189 148.473 112.252 148.44L115.67 146.458C115.786 146.393 115.799 146.286 115.692 146.226L113.06 144.695ZM79.5887 164.019C79.5265 163.988 79.4581 163.972 79.3888 163.972C79.3194 163.972 79.251 163.988 79.1888 164.019L75.7746 165.989C75.6585 166.057 75.6499 166.161 75.7746 166.221L78.4234 167.752C78.4856 167.785 78.555 167.802 78.6255 167.802C78.696 167.802 78.7654 167.785 78.8276 167.752L82.2375 165.782C82.3579 165.713 82.3665 165.61 82.2633 165.55L79.5887 164.019ZM122.438 139.281C122.377 139.249 122.308 139.232 122.238 139.232C122.169 139.232 122.1 139.249 122.038 139.281L118.624 141.251C118.508 141.319 118.495 141.423 118.603 141.483L121.251 143.014C121.314 143.047 121.383 143.064 121.454 143.064C121.524 143.064 121.593 143.047 121.656 143.014L125.066 141.044C125.186 140.975 125.195 140.872 125.091 140.812L122.438 139.281ZM136.934 130.913C136.872 130.881 136.803 130.864 136.734 130.864C136.664 130.864 136.595 130.881 136.534 130.913L133.76 132.513C133.644 132.582 133.631 132.685 133.739 132.745L136.387 134.276C136.45 134.307 136.519 134.323 136.59 134.323C136.66 134.323 136.729 134.307 136.792 134.276L139.561 132.676C139.681 132.608 139.69 132.504 139.587 132.444L136.934 130.913ZM146.007 124.58L148.78 122.98C148.896 122.911 148.909 122.808 148.78 122.748L146.131 121.217C146.069 121.184 146 121.167 145.929 121.167C145.859 121.167 145.789 121.184 145.727 121.217L142.958 122.817C142.837 122.885 142.829 122.989 142.932 123.049L145.585 124.58C145.648 124.614 145.719 124.632 145.792 124.632C145.864 124.632 145.935 124.614 145.998 124.58H146.007ZM129.477 125.375L132.251 123.775C132.367 123.707 132.38 123.603 132.251 123.543L129.602 122.012C129.54 121.979 129.47 121.962 129.4 121.962C129.329 121.962 129.26 121.979 129.198 122.012L126.429 123.612C126.308 123.681 126.3 123.784 126.403 123.844L129.056 125.375C129.119 125.41 129.19 125.428 129.262 125.428C129.334 125.428 129.405 125.41 129.469 125.375H129.477ZM118.727 140.335L126.829 135.656C126.949 135.588 126.958 135.484 126.854 135.424L124.201 133.893C124.139 133.863 124.071 133.847 124.001 133.847C123.932 133.847 123.864 133.863 123.801 133.893L115.67 138.585C115.55 138.653 115.541 138.757 115.644 138.817L118.297 140.348C118.362 140.38 118.433 140.396 118.505 140.394C118.578 140.392 118.648 140.371 118.71 140.335H118.727ZM141.565 126.932C141.626 126.964 141.695 126.981 141.765 126.981C141.834 126.981 141.903 126.964 141.965 126.932L144.738 125.332C144.854 125.263 144.867 125.16 144.76 125.1L142.111 123.569C142.049 123.536 141.979 123.519 141.909 123.519C141.838 123.519 141.769 123.536 141.707 123.569L138.937 125.169C138.817 125.237 138.808 125.341 138.912 125.401L141.565 126.932ZM138.176 124.73L140.95 123.13C141.066 123.062 141.079 122.958 140.976 122.898L138.322 121.367C138.259 121.337 138.19 121.321 138.12 121.321C138.05 121.321 137.981 121.337 137.918 121.367L135.132 122.98C135.011 123.044 135.003 123.152 135.106 123.212L137.759 124.743C137.822 124.773 137.891 124.788 137.961 124.786C138.03 124.784 138.098 124.764 138.159 124.73H138.176ZM114.664 142.674L117.433 141.074C117.549 141.006 117.562 140.902 117.459 140.842L114.81 139.32C114.748 139.287 114.678 139.27 114.608 139.27C114.537 139.27 114.468 139.287 114.406 139.32L111.637 140.92C111.516 140.988 111.508 141.092 111.611 141.152L114.264 142.683C114.326 142.714 114.395 142.729 114.465 142.728C114.535 142.726 114.603 142.708 114.664 142.674ZM132.591 132.1C132.653 132.133 132.722 132.151 132.793 132.151C132.863 132.151 132.933 132.133 132.995 132.1L135.768 130.501C135.884 130.432 135.893 130.329 135.79 130.268L133.141 128.738C133.079 128.705 133.009 128.687 132.939 128.687C132.868 128.687 132.799 128.705 132.737 128.738L129.963 130.337C129.847 130.406 129.839 130.509 129.942 130.569L132.591 132.1ZM94.4108 154.37L97.18 152.77C97.3004 152.702 97.309 152.598 97.2058 152.538L94.5527 151.007C94.491 150.975 94.4224 150.958 94.3528 150.958C94.2831 150.958 94.2145 150.975 94.1528 151.007L91.3793 152.607C91.2632 152.676 91.2503 152.779 91.3535 152.839L94.0066 154.37C94.0688 154.403 94.1382 154.42 94.2087 154.42C94.2792 154.42 94.3486 154.403 94.4108 154.37ZM98.4614 152.031L101.231 150.431C101.351 150.362 101.36 150.259 101.256 150.199L98.6033 148.668C98.5416 148.636 98.473 148.619 98.4034 148.619C98.3337 148.619 98.2651 148.636 98.2034 148.668L95.4299 150.268C95.3138 150.337 95.3009 150.44 95.4041 150.5L98.0572 152.031C98.1209 152.065 98.192 152.082 98.2642 152.081C98.3363 152.081 98.4071 152.062 98.47 152.026L98.4614 152.031ZM90.3602 156.709L93.1294 155.11C93.2498 155.041 93.2584 154.938 93.1552 154.877L90.5021 153.347C90.4404 153.314 90.3718 153.297 90.3022 153.297C90.2325 153.297 90.1639 153.314 90.1022 153.347L87.3287 154.946C87.2126 155.015 87.1997 155.118 87.3072 155.178L89.956 156.709C90.0186 156.742 90.0882 156.758 90.1587 156.757C90.2291 156.757 90.2984 156.739 90.3602 156.705V156.709ZM106.563 147.352L109.332 145.753C109.448 145.684 109.461 145.581 109.358 145.521L106.705 143.99C106.642 143.959 106.572 143.943 106.502 143.943C106.432 143.943 106.363 143.959 106.3 143.99L103.531 145.594C103.415 145.658 103.402 145.766 103.505 145.826L106.158 147.357C106.221 147.389 106.291 147.404 106.362 147.403C106.432 147.401 106.501 147.383 106.563 147.348V147.352ZM102.512 149.692L105.281 148.092C105.402 148.023 105.41 147.92 105.307 147.86L102.654 146.329C102.592 146.296 102.522 146.279 102.452 146.279C102.381 146.279 102.312 146.296 102.25 146.329L99.4805 147.92C99.3644 147.989 99.3515 148.092 99.4547 148.152L102.108 149.683C102.17 149.717 102.239 149.735 102.309 149.736C102.38 149.736 102.449 149.72 102.512 149.687V149.692ZM110.613 145.017L113.382 143.414C113.499 143.349 113.511 143.242 113.408 143.181L110.755 141.651C110.693 141.617 110.624 141.6 110.553 141.6C110.483 141.6 110.413 141.617 110.351 141.651L107.582 143.25C107.466 143.315 107.453 143.422 107.556 143.482L110.209 145.013C110.272 145.044 110.341 145.06 110.411 145.06C110.481 145.06 110.55 145.044 110.613 145.013V145.017ZM132.715 112.484C132.777 112.516 132.846 112.533 132.915 112.533C132.985 112.533 133.053 112.516 133.115 112.484L135.889 110.884C136.005 110.815 136.018 110.712 135.91 110.652L135.205 110.222C135.143 110.189 135.075 110.173 135.005 110.173C134.935 110.173 134.867 110.189 134.805 110.222L132.032 111.821C131.915 111.89 131.903 111.993 132.01 112.054L132.715 112.484ZM112.583 125.229C112.645 125.262 112.714 125.279 112.785 125.279C112.855 125.279 112.925 125.262 112.987 125.229L115.756 123.629C115.872 123.56 115.885 123.457 115.782 123.397L113.129 121.866C113.067 121.833 112.997 121.816 112.927 121.816C112.856 121.816 112.787 121.833 112.725 121.866L109.955 123.466C109.839 123.535 109.826 123.638 109.93 123.698L112.583 125.229ZM120.684 120.555C120.745 120.587 120.814 120.604 120.884 120.604C120.953 120.604 121.022 120.587 121.084 120.555L123.857 118.955C123.973 118.891 123.986 118.783 123.883 118.723L121.23 117.192C121.167 117.161 121.098 117.145 121.028 117.145C120.958 117.145 120.889 117.161 120.826 117.192L118.057 118.796C117.936 118.861 117.928 118.968 118.031 119.028L120.684 120.555ZM107.638 128.084C107.699 128.116 107.768 128.133 107.838 128.133C107.907 128.133 107.976 128.116 108.038 128.084L110.811 126.484C110.927 126.416 110.94 126.312 110.833 126.252L108.184 124.7C108.122 124.667 108.052 124.65 107.982 124.65C107.911 124.65 107.842 124.667 107.78 124.7L105.01 126.3C104.89 126.368 104.881 126.472 104.985 126.532L107.638 128.084ZM116.633 122.89C116.695 122.923 116.765 122.94 116.835 122.94C116.906 122.94 116.975 122.923 117.037 122.89L119.807 121.29C119.923 121.221 119.936 121.118 119.832 121.058L117.179 119.527C117.116 119.496 117.047 119.48 116.977 119.48C116.907 119.48 116.838 119.496 116.775 119.527L114.006 121.127C113.89 121.195 113.877 121.299 113.98 121.359L116.633 122.89ZM99.5364 132.78C99.5981 132.812 99.6667 132.829 99.7364 132.829C99.806 132.829 99.8746 132.812 99.9363 132.78L102.71 131.18C102.826 131.111 102.839 131.008 102.736 130.948L100.083 129.417C100.02 129.384 99.9509 129.367 99.8804 129.367C99.8099 129.367 99.7405 129.384 99.6783 129.417L96.9091 131.017C96.7887 131.085 96.7801 131.189 96.8833 131.249L99.5364 132.78ZM103.587 130.44C103.649 130.473 103.717 130.49 103.787 130.49C103.857 130.49 103.925 130.473 103.987 130.44L106.76 128.841C106.877 128.772 106.889 128.669 106.782 128.609L104.133 127.078C104.071 127.045 104.002 127.027 103.931 127.027C103.861 127.027 103.791 127.045 103.729 127.078L100.96 128.677C100.839 128.746 100.831 128.849 100.934 128.91L103.587 130.44ZM124.614 117.179C124.676 117.212 124.746 117.23 124.816 117.23C124.887 117.23 124.956 117.212 125.018 117.179L127.787 115.58C127.904 115.515 127.916 115.408 127.813 115.347L127.104 114.943C127.042 114.911 126.973 114.894 126.904 114.894C126.834 114.894 126.765 114.911 126.704 114.943L123.93 116.53C123.814 116.599 123.801 116.702 123.93 116.762L124.614 117.179ZM136.766 110.162C136.827 110.194 136.896 110.211 136.966 110.211C137.035 110.211 137.104 110.194 137.166 110.162L139.939 108.562C140.055 108.493 140.068 108.39 139.961 108.33L139.256 107.921C139.194 107.889 139.125 107.872 139.056 107.872C138.986 107.872 138.917 107.889 138.856 107.921L136.082 109.521C135.966 109.59 135.953 109.693 136.061 109.753L136.766 110.162ZM142.33 113.357C142.392 113.39 142.462 113.407 142.532 113.407C142.603 113.407 142.672 113.39 142.734 113.357L145.503 111.757C145.624 111.688 145.632 111.585 145.529 111.525L142.876 109.994C142.814 109.961 142.744 109.944 142.674 109.944C142.604 109.944 142.534 109.961 142.472 109.994L139.703 111.594C139.587 111.662 139.574 111.766 139.677 111.826L142.33 113.357ZM150.07 122.24L152.844 120.641C152.96 120.572 152.973 120.469 152.865 120.409L150.216 118.878C150.153 118.847 150.084 118.831 150.014 118.831C149.944 118.831 149.875 118.847 149.812 118.878L147.043 120.477C146.922 120.546 146.914 120.649 147.017 120.71L149.67 122.245C149.732 122.276 149.801 122.293 149.871 122.292C149.94 122.291 150.009 122.273 150.07 122.24ZM128.665 114.81C128.728 114.841 128.797 114.857 128.867 114.857C128.937 114.857 129.006 114.841 129.069 114.81L131.838 113.21C131.954 113.142 131.967 113.038 131.864 112.974L131.154 112.57C131.093 112.537 131.024 112.52 130.954 112.52C130.885 112.52 130.816 112.537 130.754 112.57L127.981 114.169C127.865 114.238 127.852 114.341 127.959 114.401L128.665 114.81ZM95.4858 135.089C95.5487 135.12 95.6179 135.136 95.6879 135.136C95.758 135.136 95.8271 135.12 95.89 135.089L98.6592 133.489C98.7753 133.42 98.7882 133.317 98.685 133.257L96.0319 131.726C95.9697 131.693 95.9003 131.676 95.8298 131.676C95.7593 131.676 95.6899 131.693 95.6277 131.726L92.88 133.334C92.7639 133.403 92.751 133.506 92.8542 133.567L95.4858 135.089Z" fill="#455A64"/>
<path d="M107.088 158.145L107.69 158.494L123.694 167.734L152.16 151.3L152.75 150.96L136.143 141.375L107.088 158.145Z" fill="#263238"/>
<path d="M151.794 151.51L136.142 142.48L108.055 158.704L123.694 167.734L151.794 151.51Z" fill="#37474F"/>
<path d="M50.7401 147.795C50.5091 147.933 50.2478 148.013 49.979 148.027C49.5968 148.075 49.209 148.008 48.8653 147.834C48.596 147.65 48.3736 147.406 48.216 147.121C48.0584 146.835 47.9701 146.517 47.958 146.191V86.6536L49.7769 87.7028V147.236C49.7769 147.666 49.9962 147.929 50.3144 147.929C50.4651 147.92 50.6112 147.874 50.7401 147.795Z" fill="#E6E6E6"/>
<path d="M144.669 92.45C144.65 92.7857 144.553 93.1123 144.385 93.4035C144.217 93.6948 143.983 93.9426 143.702 94.127L50.74 147.795C50.2068 148.105 49.7725 147.855 49.7725 147.236V81.4076L144.669 26.66V92.45Z" fill="#FAFAFA"/>
<path d="M144.214 27.4297V92.45C144.197 92.7072 144.122 92.9571 143.994 93.1807C143.865 93.4043 143.688 93.5956 143.474 93.74L50.5169 147.404C50.4556 147.442 50.3865 147.465 50.3148 147.473C50.2331 147.473 50.2331 147.241 50.2331 147.236V81.6699L144.214 27.4297ZM144.67 26.66L49.7773 81.4076V147.236C49.7773 147.666 49.9966 147.929 50.3148 147.929C50.4675 147.923 50.6159 147.877 50.7448 147.795L143.702 94.1442C143.983 93.9598 144.217 93.712 144.385 93.4207C144.553 93.1295 144.651 92.8029 144.67 92.4672V26.66Z" fill="#EBEBEB"/>
<path d="M48.8696 84.3875C48.5993 84.2046 48.3759 83.9605 48.2175 83.6751C48.0591 83.3898 47.9702 83.071 47.958 82.7449V75.1855C47.978 74.8501 48.0764 74.5241 48.2452 74.2337C48.4139 73.9432 48.6484 73.6963 48.9298 73.5128L141.9 19.8574C142.18 19.6811 142.503 19.5846 142.834 19.5782C143.165 19.5719 143.491 19.656 143.778 19.8215C144.065 19.9869 144.301 20.2275 144.461 20.5172C144.621 20.8069 144.699 21.1348 144.687 21.4656V29.025C144.667 29.36 144.569 29.6857 144.401 29.9762C144.233 30.2666 144 30.5137 143.719 30.6977L50.7401 84.3531C50.4524 84.5038 50.1336 84.5853 49.8089 84.5913C49.4842 84.5973 49.1626 84.5275 48.8696 84.3875Z" fill="#6730EC"/>
<path opacity="0.3" d="M144.656 21.3065C144.592 20.8077 144.183 20.6228 143.702 20.9066L50.7399 74.5577C50.4553 74.7376 50.2202 74.986 50.0562 75.2801L48.2373 74.2309C48.4017 73.9368 48.6386 73.6897 48.9253 73.5128L141.9 19.8574C142.187 19.7057 142.506 19.6236 142.831 19.6177C143.156 19.6117 143.478 19.682 143.77 19.823C144.017 19.9912 144.224 20.211 144.377 20.4671C144.53 20.7233 144.625 21.0097 144.656 21.3065Z" fill="white"/>
<path opacity="0.2" d="M50.0607 75.2801C49.8855 75.5686 49.7878 75.8974 49.7769 76.2347V87.72L47.958 86.6708V75.1855C47.958 75.1468 47.958 75.1124 47.958 75.0694C47.966 74.9884 47.979 74.908 47.9967 74.8286C48.0484 74.619 48.1295 74.4178 48.2375 74.2309L50.0607 75.2801Z" fill="black"/>
<path d="M144.67 21.4656V26.66L79.1979 64.5C78.6647 64.8096 78.2304 64.5559 78.2304 63.941V61.92C78.2304 61.3051 77.8004 61.06 77.2586 61.361L54.3783 74.5405C54.0964 74.7244 53.8615 74.972 53.6927 75.2633C53.524 75.5545 53.4259 75.8814 53.4065 76.2175V78.174C53.3881 78.5093 53.2914 78.8357 53.1241 79.1269C52.9569 79.4181 52.7237 79.6661 52.4433 79.851L49.7773 81.3904V76.2304C49.7962 75.8947 49.8936 75.5681 50.0616 75.2768C50.2297 74.9856 50.4637 74.7378 50.7448 74.5534L143.702 20.9066C144.235 20.597 144.67 20.8464 144.67 21.4656Z" fill="#6730EC"/>
<path d="M141.9 24.2391C142.309 24.0026 142.64 24.1961 142.64 24.6691C142.627 24.9271 142.553 25.1784 142.424 25.4026C142.296 25.6267 142.116 25.8174 141.9 25.9591C141.47 26.1956 141.156 26.0021 141.156 25.5291C141.169 25.2705 141.243 25.0187 141.373 24.7944C141.502 24.5701 141.683 24.3798 141.9 24.2391Z" fill="white"/>
<path d="M139.221 25.8C139.651 25.5635 139.961 25.757 139.961 26.23C139.948 26.488 139.874 26.7393 139.746 26.9635C139.617 27.1876 139.437 27.3783 139.221 27.52C138.791 27.7565 138.478 27.5673 138.478 27.09C138.491 26.8315 138.565 26.5798 138.694 26.3556C138.824 26.1314 139.004 25.941 139.221 25.8Z" fill="white"/>
<path d="M136.547 27.3222C136.955 27.0857 137.291 27.2792 137.291 27.7522C137.277 28.0105 137.202 28.2619 137.073 28.4861C136.943 28.7102 136.763 28.9007 136.547 29.0422C136.138 29.2787 135.803 29.0852 135.803 28.6122C135.817 28.3538 135.891 28.1024 136.021 27.8783C136.15 27.6542 136.33 27.4637 136.547 27.3222Z" fill="white"/>
<path d="M144.67 26.66V32.9337L49.7773 87.72V81.4076L51.7682 80.2552C52.3014 79.9456 52.4777 79.4769 52.7357 78.5782L53.4065 76.2347C53.6215 75.422 53.8365 74.8673 54.3783 74.5577L76.8673 61.6061C77.4048 61.2965 77.8219 61.2664 78.2304 61.9372L79.0603 63.4422C79.3613 63.9668 79.4903 64.2764 80.045 63.9668L144.67 26.66Z" fill="#E0E0E0"/>
<path d="M49.7769 81.4076V87.7028L47.958 86.6536V80.3627L49.7769 81.4076Z" fill="#E0E0E0"/>
<path opacity="0.15" d="M49.7769 81.4076V87.7028L47.958 86.6536V80.3627L49.7769 81.4076Z" fill="black"/>
<path opacity="0.5" d="M54.2191 81.8634L52.6969 82.7234L53.2774 81.6097C53.3003 81.5675 53.3123 81.5202 53.3123 81.4721C53.3123 81.4241 53.3003 81.3768 53.2774 81.3345C53.2344 81.2829 53.157 81.3345 53.1054 81.4162L52.2798 83.0029V83.0631C52.2798 83.0631 52.2798 83.0631 52.2798 83.0846C52.2753 83.1117 52.2753 83.1393 52.2798 83.1663C52.2752 83.189 52.2752 83.2124 52.2798 83.2351C52.2781 83.2465 52.2781 83.2581 52.2798 83.2695L53.1054 83.9016C53.1162 83.9107 53.1299 83.9157 53.1441 83.9157C53.1582 83.9157 53.1719 83.9107 53.1828 83.9016C53.2258 83.874 53.259 83.8333 53.2774 83.7855C53.3204 83.6823 53.3161 83.5662 53.2774 83.5275L52.6969 83.0975L54.2191 82.2375C54.2578 82.2068 54.2888 82.1675 54.3097 82.1227C54.3306 82.078 54.3408 82.0289 54.3395 81.9795C54.3395 81.8763 54.2879 81.8247 54.2191 81.8634Z" fill="#455A64"/>
<path opacity="0.5" d="M55.47 81.1281L56.9879 80.2681L56.4117 79.8381C56.3601 79.7994 56.3558 79.6833 56.4117 79.5758C56.4676 79.4683 56.5321 79.421 56.5837 79.4597L57.4093 80.0918C57.4202 80.1013 57.429 80.113 57.4351 80.1262C57.4404 80.1488 57.4404 80.1723 57.4351 80.195C57.4392 80.222 57.4392 80.2496 57.4351 80.2767C57.4291 80.2978 57.4205 80.318 57.4093 80.3369L56.5837 81.9236C56.5672 81.9629 56.5386 81.9961 56.502 82.0182C56.4895 82.0291 56.4735 82.035 56.4569 82.035C56.4403 82.035 56.4242 82.0291 56.4117 82.0182C56.3887 81.9767 56.3767 81.9301 56.3767 81.8827C56.3767 81.8353 56.3887 81.7887 56.4117 81.7473L56.9879 80.6336L55.47 81.4936C55.4012 81.5323 55.3496 81.4936 55.3496 81.3732C55.3502 81.3259 55.3614 81.2794 55.3822 81.237C55.403 81.1946 55.433 81.1574 55.47 81.1281Z" fill="#455A64"/>
<path opacity="0.5" d="M60.4706 76.7507C60.4706 76.6604 60.3846 76.6733 60.3416 76.7507L60.1352 77.2581C59.7783 77.2194 59.3483 77.5677 59.0602 78.1826C58.6818 78.9781 58.6818 79.9026 59.0602 80.2853C59.1522 80.3694 59.2706 80.4193 59.3951 80.4263C59.5197 80.4334 59.6429 80.3972 59.7439 80.324C60.0455 80.1204 60.2815 79.8335 60.4233 79.4984C60.4471 79.458 60.4597 79.412 60.4597 79.3651C60.4597 79.3182 60.4471 79.2721 60.4233 79.2318C60.376 79.1845 60.2986 79.2318 60.2513 79.3307C59.9718 79.9241 59.5117 80.1907 59.2322 79.9198C58.9527 79.6489 58.9527 78.9437 59.2322 78.3503C59.43 77.9203 59.7181 77.6752 59.9718 77.658L59.8127 78.045C59.774 78.1439 59.8127 78.2342 59.8729 78.1955L60.4921 77.7913C60.5172 77.7706 60.537 77.7442 60.5497 77.7142C60.5624 77.6843 60.5677 77.6517 60.5652 77.6193L60.4706 76.7507Z" fill="#455A64"/>
<path opacity="0.5" d="M76.2004 64.5L76.7551 63.3304C76.7876 63.275 76.8047 63.2119 76.8047 63.1476C76.8047 63.0834 76.7876 63.0203 76.7551 62.9649C76.6906 62.9004 76.5831 62.9649 76.5186 63.1025L75.9639 64.2721L75.4092 63.7389C75.3447 63.6787 75.2372 63.7389 75.1727 63.8765C75.1402 63.9319 75.123 63.995 75.123 64.0593C75.123 64.1235 75.1402 64.1866 75.1727 64.242L75.7274 64.7752L75.1727 65.9491C75.1402 66.0045 75.123 66.0676 75.123 66.1319C75.123 66.1961 75.1402 66.2592 75.1727 66.3146C75.189 66.3283 75.2095 66.3357 75.2307 66.3357C75.252 66.3357 75.2725 66.3283 75.2888 66.3146C75.3423 66.2806 75.3843 66.2311 75.4092 66.1727L75.9639 64.9988L76.5186 65.532C76.5344 65.5465 76.5552 65.5546 76.5766 65.5546C76.5981 65.5546 76.6188 65.5465 76.6347 65.532C76.6874 65.4952 76.729 65.4446 76.7551 65.3858C76.7876 65.3304 76.8047 65.2673 76.8047 65.203C76.8047 65.1388 76.7876 65.0757 76.7551 65.0203L76.2004 64.5Z" fill="#455A64"/>
<path d="M62.4873 78.1955V76.2347C62.5067 75.8986 62.6047 75.5718 62.7735 75.2805C62.9423 74.9892 63.1771 74.7416 63.4591 74.5577L138.253 31.4158C138.787 31.1062 139.221 31.3556 139.221 31.9748V33.9313C139.202 34.267 139.105 34.5936 138.937 34.8849C138.768 35.1761 138.534 35.4239 138.253 35.6083L63.4591 78.7545C62.9216 79.0598 62.4873 78.8104 62.4873 78.1955Z" fill="#FAFAFA"/>
<path d="M136.934 35.7588C136.906 35.7652 136.876 35.7652 136.848 35.7588C136.795 35.7332 136.751 35.6906 136.725 35.6376C136.698 35.5847 136.69 35.5244 136.702 35.4664L136.801 34.6709L136.427 34.4043C136.394 34.3792 136.367 34.3466 136.349 34.3092C136.331 34.2718 136.322 34.2307 136.323 34.1893C136.322 34.1243 136.336 34.06 136.364 34.0012C136.391 33.9423 136.432 33.8905 136.482 33.8496L137.05 33.4196C137.062 33.4057 137.07 33.3896 137.076 33.3723L137.33 32.5424C137.34 32.4722 137.372 32.4069 137.42 32.3548C137.469 32.3028 137.531 32.2662 137.6 32.25C137.647 32.2467 137.693 32.2577 137.733 32.2816C137.773 32.3054 137.805 32.3409 137.824 32.3833L138.035 32.8133L138.516 32.6327C138.56 32.6141 138.608 32.6095 138.654 32.6195C138.7 32.6295 138.742 32.6536 138.774 32.6886C138.812 32.7467 138.833 32.8147 138.833 32.8842C138.833 32.9537 138.812 33.0217 138.774 33.0799L138.344 33.8539C138.34 33.8694 138.34 33.8857 138.344 33.9012L138.46 34.615C138.467 34.6783 138.46 34.7424 138.439 34.8027C138.419 34.8629 138.385 34.9178 138.34 34.9633C138.313 34.9951 138.278 35.0199 138.239 35.0357C138.2 35.0514 138.158 35.0575 138.116 35.0536L137.652 34.9934L137.17 35.6341C137.144 35.6727 137.109 35.7043 137.068 35.726C137.027 35.7478 136.981 35.759 136.934 35.7588ZM136.663 34.142L137.033 34.4129C137.072 34.4438 137.103 34.4851 137.12 34.5322C137.138 34.5792 137.142 34.6302 137.132 34.6795L137.072 35.2084L137.407 34.7784C137.434 34.7374 137.473 34.7046 137.517 34.6834C137.562 34.6622 137.611 34.6534 137.661 34.658L138.125 34.7139C138.13 34.6971 138.13 34.6791 138.125 34.6623L138.03 33.97C138.022 33.8835 138.04 33.7966 138.082 33.7206L138.443 33.0455L138.073 33.1874C138.019 33.2106 137.957 33.2115 137.901 33.1898C137.846 33.1681 137.801 33.1256 137.777 33.0713L137.609 32.7144L137.385 33.454C137.359 33.5374 137.31 33.6118 137.244 33.669L136.676 34.099C136.676 34.099 136.667 34.1248 136.663 34.142Z" fill="#E0E0E0"/>
<g opacity="0.5">
<path d="M140.361 31.175C140.288 31.1741 140.217 31.1494 140.159 31.1046C140.101 31.0598 140.06 30.9973 140.041 30.9267C140.022 30.8562 140.026 30.7813 140.054 30.7136C140.081 30.6458 140.13 30.5889 140.193 30.5515L142.919 28.9777C142.957 28.9554 142.999 28.9408 143.042 28.9348C143.086 28.9287 143.13 28.9314 143.172 28.9426C143.215 28.9538 143.254 28.9733 143.289 29C143.324 29.0267 143.353 29.06 143.375 29.0981C143.397 29.1362 143.412 29.1783 143.418 29.2221C143.424 29.2659 143.422 29.3104 143.41 29.3532C143.399 29.3959 143.38 29.4361 143.353 29.4712C143.326 29.5064 143.293 29.536 143.255 29.5582L140.528 31.132C140.477 31.1608 140.419 31.1756 140.361 31.175Z" fill="#455A64"/>
<path d="M140.361 32.7488C140.288 32.7479 140.217 32.7232 140.159 32.6784C140.101 32.6336 140.06 32.5711 140.041 32.5005C140.022 32.4299 140.026 32.3551 140.054 32.2874C140.081 32.2196 140.13 32.1627 140.193 32.1253L142.919 30.5515C142.957 30.5292 142.999 30.5146 143.042 30.5085C143.086 30.5025 143.13 30.5052 143.172 30.5164C143.215 30.5276 143.254 30.5471 143.289 30.5738C143.324 30.6005 143.353 30.6338 143.375 30.6719C143.397 30.71 143.412 30.7521 143.418 30.7959C143.424 30.8397 143.422 30.8842 143.41 30.927C143.399 30.9697 143.38 31.0099 143.353 31.045C143.326 31.0802 143.293 31.1098 143.255 31.132L140.528 32.7058C140.477 32.7346 140.419 32.7494 140.361 32.7488Z" fill="#455A64"/>
<path d="M140.361 34.3226C140.288 34.3217 140.217 34.297 140.159 34.2522C140.101 34.2074 140.06 34.1449 140.041 34.0744C140.022 34.0038 140.026 33.9289 140.054 33.8612C140.081 33.7934 140.13 33.7365 140.193 33.6991L142.919 32.1253C142.957 32.103 142.999 32.0884 143.042 32.0824C143.086 32.0763 143.13 32.079 143.172 32.0902C143.215 32.1014 143.254 32.1209 143.289 32.1476C143.324 32.1743 143.353 32.2077 143.375 32.2457C143.397 32.2838 143.412 32.3259 143.418 32.3697C143.424 32.4135 143.422 32.458 143.41 32.5008C143.399 32.5436 143.38 32.5837 143.353 32.6189C143.326 32.654 143.293 32.6836 143.255 32.7058L140.528 34.2796C140.477 34.3084 140.419 34.3232 140.361 34.3226Z" fill="#455A64"/>
</g>
<path d="M56.7603 109.525L137.699 62.78C138.692 62.2038 139.501 62.6682 139.501 63.8163V89.3712C139.467 89.9954 139.287 90.603 138.974 91.1446C138.662 91.6862 138.227 92.1466 137.703 92.4887L56.7603 139.234C55.7713 139.81 54.9629 139.346 54.9629 138.198V112.66C54.9941 112.033 55.1732 111.422 55.4855 110.877C55.7979 110.332 56.2347 109.869 56.7603 109.525Z" fill="white"/>
<path d="M55.9435 139.638C55.7521 139.64 55.5637 139.591 55.3974 139.496C55.1906 139.355 55.0253 139.161 54.9187 138.934C54.8121 138.707 54.7681 138.456 54.7911 138.206V112.66C54.8269 112.009 55.0153 111.376 55.3409 110.811C55.6666 110.246 56.1205 109.766 56.6659 109.409L137.622 62.651C137.819 62.4872 138.061 62.3876 138.316 62.3658C138.571 62.3439 138.827 62.4008 139.048 62.5288C139.27 62.6567 139.447 62.8496 139.556 63.0813C139.664 63.3131 139.699 63.5726 139.656 63.8249V89.3798C139.62 90.0311 139.431 90.6648 139.105 91.2296C138.778 91.7944 138.323 92.2743 137.777 92.6306L56.825 139.372C56.559 139.535 56.2554 139.627 55.9435 139.638ZM138.504 62.694C138.247 62.7054 137.998 62.7839 137.781 62.9219L56.8207 109.65C56.3201 109.977 55.9036 110.417 55.6047 110.934C55.3059 111.452 55.1332 112.033 55.1007 112.63V138.185C55.0543 138.382 55.0724 138.588 55.1526 138.774C55.2327 138.96 55.3706 139.115 55.5457 139.216C55.7208 139.317 55.9239 139.36 56.1249 139.337C56.3259 139.313 56.5141 139.226 56.6616 139.088L137.618 92.3468C138.119 92.0203 138.535 91.5803 138.834 91.0626C139.133 90.5448 139.306 89.9638 139.338 89.3669V63.8249C139.363 63.6309 139.336 63.4338 139.26 63.2534C139.185 63.073 139.063 62.9156 138.908 62.7972C138.785 62.7251 138.645 62.6894 138.504 62.694Z" fill="#E0E0E0"/>
<path d="M92.2183 109.362L105.17 101.88C105.561 101.656 105.879 101.841 105.879 102.288V105.78C105.865 106.026 105.794 106.264 105.671 106.477C105.547 106.69 105.376 106.871 105.17 107.005L92.2183 114.466C91.827 114.694 91.5088 114.509 91.5088 114.057V110.587C91.5221 110.342 91.5933 110.103 91.7166 109.89C91.8399 109.677 92.0118 109.496 92.2183 109.362Z" fill="#6730EC"/>
<path opacity="0.5" d="M92.2183 109.362L105.17 101.88C105.561 101.656 105.879 101.841 105.879 102.288V105.78C105.865 106.026 105.794 106.264 105.671 106.477C105.547 106.69 105.376 106.871 105.17 107.005L92.2183 114.466C91.827 114.694 91.5088 114.509 91.5088 114.057V110.587C91.5221 110.342 91.5933 110.103 91.7166 109.89C91.8399 109.677 92.0118 109.496 92.2183 109.362Z" fill="white"/>
<path d="M59.5166 131.258V114.303C59.5497 113.679 59.7298 113.072 60.0422 112.531C60.3545 111.99 60.7903 111.53 61.314 111.189L85.1403 97.4294C86.1336 96.8532 86.9377 97.3176 86.9377 98.4657V115.425C86.9032 116.048 86.7226 116.655 86.4103 117.196C86.0981 117.737 85.663 118.196 85.1403 118.538L61.314 132.298C60.3207 132.87 59.5166 132.406 59.5166 131.258Z" fill="#6730EC"/>
<path opacity="0.8" d="M59.5166 131.258V114.303C59.5497 113.679 59.7298 113.072 60.0422 112.531C60.3545 111.99 60.7903 111.53 61.314 111.189L85.1403 97.4294C86.1336 96.8532 86.9377 97.3176 86.9377 98.4657V115.425C86.9032 116.048 86.7226 116.655 86.4103 117.196C86.0981 117.737 85.663 118.196 85.1403 118.538L61.314 132.298C60.3207 132.87 59.5166 132.406 59.5166 131.258Z" fill="white"/>
<g opacity="0.5">
<path d="M79.89 107.466C79.712 107.467 79.5367 107.421 79.3826 107.332C79.1891 107.201 79.0348 107.02 78.9364 106.808C78.8379 106.596 78.7989 106.361 78.8236 106.128C78.8539 105.527 79.0253 104.941 79.3241 104.418C79.623 103.895 80.0407 103.45 80.5436 103.118C80.7263 102.966 80.9514 102.873 81.1885 102.853C81.4257 102.832 81.6633 102.885 81.8693 103.004C82.0753 103.124 82.2397 103.303 82.3402 103.519C82.4407 103.735 82.4725 103.976 82.4313 104.21C82.4014 104.812 82.2301 105.398 81.9312 105.921C81.6324 106.444 81.2144 106.889 80.7113 107.22C80.4638 107.373 80.1805 107.457 79.89 107.466ZM81.3692 103.191C81.1343 103.201 80.906 103.272 80.707 103.398C80.2488 103.697 79.8675 104.101 79.5941 104.575C79.3207 105.049 79.1628 105.582 79.1332 106.128C79.095 106.306 79.1144 106.492 79.1884 106.658C79.2623 106.824 79.3872 106.963 79.545 107.054C79.7028 107.145 79.8853 107.183 80.0663 107.164C80.2473 107.144 80.4174 107.068 80.5522 106.945C81.0109 106.647 81.3929 106.244 81.6671 105.771C81.9413 105.297 82.1 104.766 82.1303 104.219C82.1508 104.041 82.1239 103.86 82.0521 103.695C81.9804 103.531 81.8665 103.388 81.7218 103.282C81.6136 103.224 81.4919 103.195 81.3692 103.2V103.191Z" fill="#6730EC"/>
</g>
<g opacity="0.5">
<path d="M60.5094 132.075C60.3503 132.075 59.9805 131.997 59.9805 131.262V122.739L60.0149 122.696L67.8925 112.282L68.0086 112.346L77.1719 117.244L75.482 115.821L75.5465 115.709L79.1886 109.289L86.4728 113.09V115.442C86.4386 115.984 86.2795 116.51 86.0079 116.98C85.7364 117.45 85.3598 117.851 84.9076 118.151L61.077 131.911C60.9054 132.015 60.7096 132.071 60.5094 132.075ZM60.2944 122.842V131.262C60.2944 131.412 60.3159 131.765 60.5094 131.765C60.6628 131.757 60.8113 131.708 60.9394 131.623L84.77 117.863C85.1765 117.593 85.515 117.232 85.759 116.809C86.0029 116.386 86.1457 115.912 86.1761 115.425V113.275L79.3262 109.71L75.8862 115.76L79.6487 118.929L67.9828 112.69L60.2944 122.842Z" fill="#6730EC"/>
</g>
<path d="M92.1839 93.8991L102.177 88.15C102.547 87.935 102.848 88.0855 102.848 88.4897C102.831 88.7148 102.761 88.9328 102.645 89.1262C102.528 89.3196 102.368 89.4831 102.177 89.6034L92.1839 95.374C91.8098 95.589 91.5088 95.4385 91.5088 95.0343C91.5223 94.8048 91.5906 94.582 91.7081 94.3845C91.8256 94.1869 91.9887 94.0205 92.1839 93.8991Z" fill="#455A64"/>
<path d="M92.0721 97.696L133.485 73.8009C133.795 73.6203 134.044 73.702 134.044 73.9815C134.022 74.1538 133.96 74.3184 133.863 74.4625C133.766 74.6065 133.637 74.726 133.485 74.8114L92.0721 98.7065C91.7625 98.8871 91.5088 98.8054 91.5088 98.5259C91.5319 98.3534 91.5948 98.1886 91.6926 98.0445C91.7903 97.9005 91.9203 97.7812 92.0721 97.696Z" fill="#E0E0E0"/>
<path d="M92.0721 100.551L133.485 76.6561C133.795 76.4755 134.044 76.5572 134.044 76.841C134.022 77.0132 133.959 77.1777 133.862 77.3217C133.766 77.4657 133.636 77.5853 133.485 77.6709L92.0721 101.566C91.7625 101.742 91.5088 101.661 91.5088 101.381C91.5325 101.209 91.5957 101.044 91.6934 100.9C91.7911 100.756 91.9207 100.637 92.0721 100.551Z" fill="#E0E0E0"/>
<path d="M92.0721 103.411L133.485 79.5156C133.795 79.335 134.044 79.4167 134.044 79.6962C134.022 79.8684 133.96 80.0331 133.863 80.1772C133.766 80.3212 133.637 80.4407 133.485 80.5261L92.0721 104.421C91.7625 104.602 91.5088 104.52 91.5088 104.241C91.5319 104.068 91.5948 103.903 91.6926 103.759C91.7903 103.615 91.9203 103.496 92.0721 103.411Z" fill="#E0E0E0"/>
<path d="M92.0721 106.266L119.442 90.472C119.751 90.2957 120.001 90.3774 120.001 90.6569C119.978 90.829 119.916 90.9936 119.819 91.1376C119.722 91.2816 119.593 91.4011 119.442 91.4868L92.0721 107.281C91.7625 107.457 91.5088 107.375 91.5088 107.096C91.5325 106.923 91.5957 106.759 91.6934 106.615C91.7911 106.471 91.9207 106.352 92.0721 106.266Z" fill="#E0E0E0"/>
<path d="M128.162 91.9727C128.626 91.7018 129 91.9211 129 92.4586C128.985 92.7497 128.901 93.0331 128.755 93.2856C128.609 93.5382 128.406 93.7528 128.162 93.912C127.697 94.1829 127.323 93.9636 127.323 93.4261C127.339 93.135 127.423 92.8516 127.569 92.5991C127.714 92.3465 127.917 92.1319 128.162 91.9727Z" fill="#6730EC"/>
<path d="M131.06 90.6182C131.283 90.6182 131.309 90.8848 131.309 91.0009C131.297 91.2586 131.224 91.5098 131.096 91.734C130.968 91.9582 130.789 92.149 130.574 92.2909C130.494 92.3421 130.402 92.3717 130.307 92.3769C130.275 92.3783 130.243 92.3719 130.214 92.3585C130.185 92.345 130.159 92.3248 130.139 92.2995C130.08 92.2093 130.051 92.1021 130.058 91.9942C130.073 91.7402 130.148 91.4933 130.276 91.2731C130.403 91.0529 130.58 90.8655 130.793 90.7257C130.873 90.6745 130.965 90.6449 131.06 90.6397M131.06 90.4204C130.926 90.428 130.796 90.4679 130.681 90.5365C130.433 90.6943 130.226 90.9086 130.076 91.162C129.927 91.4154 129.839 91.7006 129.821 91.9942C129.821 92.3726 130.01 92.5919 130.286 92.5919C130.418 92.588 130.547 92.5495 130.66 92.4801C130.908 92.3221 131.115 92.1077 131.265 91.8544C131.414 91.601 131.501 91.316 131.52 91.0224C131.52 90.644 131.331 90.4204 131.055 90.4204H131.06Z" fill="#6730EC"/>
<path d="M133.58 89.1605C133.803 89.1605 133.829 89.4314 133.829 89.5475C133.813 89.8008 133.738 90.047 133.612 90.2669C133.485 90.4869 133.309 90.6748 133.098 90.816C133.016 90.8657 132.923 90.8938 132.827 90.8977C132.796 90.8999 132.765 90.8944 132.736 90.8817C132.708 90.8689 132.683 90.8493 132.664 90.8246C132.603 90.7334 132.574 90.6244 132.582 90.515C132.599 90.2617 132.673 90.0155 132.8 89.7955C132.927 89.5756 133.102 89.3877 133.313 89.2465C133.393 89.1958 133.485 89.1663 133.58 89.1605ZM133.58 88.9455C133.447 88.9511 133.318 88.9911 133.206 89.0616C132.958 89.2187 132.75 89.4323 132.601 89.6849C132.452 89.9375 132.364 90.222 132.346 90.515C132.346 90.8977 132.535 91.117 132.81 91.117C132.944 91.1115 133.074 91.0716 133.188 91.0009C133.437 90.8441 133.644 90.6305 133.794 90.3778C133.943 90.1252 134.031 89.8406 134.048 89.5475C134.048 89.1648 133.859 88.9455 133.584 88.9455H133.58Z" fill="#6730EC"/>
<path d="M117.726 59.1852C117.749 58.9659 117.713 58.7444 117.623 58.5434C117.532 58.3424 117.389 58.1691 117.21 58.0414L114.441 56.4418C114.239 56.3485 114.017 56.3104 113.796 56.3316C113.576 56.3527 113.365 56.4323 113.185 56.5622L80.7414 75.2973C80.2251 75.6323 79.7955 76.0848 79.4876 76.6176C79.1797 77.1505 79.0023 77.7487 78.9698 78.3632V87.0621C78.9466 87.2814 78.9821 87.5029 79.0728 87.7039C79.1635 87.9049 79.306 88.0782 79.4858 88.2059L82.255 89.8055C82.4557 89.8984 82.6776 89.9357 82.8977 89.9138C83.1177 89.8919 83.3279 89.8114 83.5063 89.6808L115.954 70.95C116.47 70.6136 116.899 70.1602 117.207 69.6268C117.515 69.0933 117.693 68.4948 117.726 67.8798V59.1852Z" fill="#6730EC"/>
<path opacity="0.2" d="M82.2888 89.8185C82.2888 89.8185 82.2888 89.8185 82.2544 89.8185C81.9362 89.6336 79.8077 88.4081 79.4895 88.2189C79.3079 88.0916 79.1639 87.9179 79.0723 87.716C78.9808 87.514 78.9452 87.2912 78.9692 87.0708V78.3633C78.9841 77.8575 79.1103 77.3612 79.339 76.9099L82.0996 78.5052C81.8762 78.9596 81.753 79.4567 81.7384 79.9629V88.6618C81.7125 88.8868 81.7504 89.1145 81.8477 89.319C81.945 89.5236 82.0979 89.6966 82.2888 89.8185Z" fill="black"/>
<path opacity="0.2" d="M117.127 57.9941C116.933 57.9269 116.726 57.907 116.522 57.9362C116.319 57.9654 116.125 58.0427 115.958 58.1618L83.5101 76.8969C82.8941 77.2851 82.4041 77.8438 82.0997 78.5051L79.3477 76.9098C79.6437 76.2485 80.1264 75.6881 80.7366 75.2973L113.184 56.5622C113.364 56.4337 113.574 56.3545 113.793 56.3326C114.013 56.3107 114.234 56.3469 114.436 56.4375C114.737 56.6095 116.633 57.7017 117.127 57.9941Z" fill="white"/>
<path d="M86.8814 82.5041C86.8838 82.4379 86.9015 82.3732 86.933 82.3149C86.9555 82.2707 86.9897 82.2335 87.0319 82.2074L87.4619 81.9666C87.477 81.9561 87.495 81.9504 87.5135 81.9504C87.5319 81.9504 87.55 81.9561 87.5651 81.9666C87.5818 81.9841 87.594 82.0054 87.6007 82.0286C87.6075 82.0518 87.6085 82.0762 87.6038 82.0999C87.5911 82.3422 87.5551 82.5827 87.4963 82.818C87.4342 83.0787 87.3418 83.3313 87.2211 83.5705C87.0912 83.8231 86.9325 84.0597 86.7481 84.2757C86.5511 84.5015 86.317 84.6921 86.0558 84.839C85.8683 84.9645 85.6492 85.0345 85.4237 85.0411C85.2492 85.0437 85.0808 84.9772 84.955 84.8562C84.8116 84.7105 84.7093 84.5296 84.6583 84.3316C84.5797 84.0661 84.5363 83.7914 84.5293 83.5146C84.5293 83.3168 84.5293 83.0846 84.5293 82.8524C84.5293 82.6202 84.5293 82.3794 84.5293 82.173C84.5419 81.8486 84.5851 81.5261 84.6583 81.2098C84.7239 80.9128 84.8235 80.6242 84.955 80.3498C85.078 80.0877 85.2357 79.8433 85.4237 79.6231C85.6032 79.4126 85.8169 79.2338 86.0558 79.0942C86.2624 78.9579 86.5011 78.8779 86.7481 78.862C86.9193 78.8594 87.0863 78.9155 87.2211 79.0211C87.3519 79.1353 87.4474 79.2845 87.4963 79.4511C87.5584 79.6418 87.5946 79.8399 87.6038 80.0402C87.6085 80.1029 87.5951 80.1656 87.5651 80.2208C87.5413 80.2689 87.5058 80.3103 87.4619 80.3412L87.0319 80.582C87.0172 80.5916 87 80.5968 86.9824 80.5968C86.9649 80.5968 86.9477 80.5916 86.933 80.582C86.8986 80.582 86.8814 80.5261 86.8728 80.4616C86.8659 80.3675 86.8411 80.2755 86.7997 80.1907C86.7689 80.1155 86.7146 80.0521 86.6449 80.0101C86.5694 79.9667 86.4824 79.9472 86.3955 79.9542C86.2703 79.9723 86.1502 80.0162 86.0429 80.0832C85.9084 80.1618 85.789 80.2638 85.6903 80.3842C85.5895 80.5065 85.5043 80.6408 85.4366 80.7841C85.3703 80.9366 85.3184 81.095 85.2818 81.2571C85.2476 81.4259 85.2261 81.5969 85.2173 81.7688C85.2173 81.9752 85.2173 82.1988 85.2173 82.4439C85.2173 82.689 85.2173 82.9126 85.2173 83.1104C85.2236 83.2556 85.2452 83.3998 85.2818 83.5404C85.3109 83.6482 85.3638 83.7481 85.4366 83.8328C85.5053 83.8982 85.5955 83.9364 85.6903 83.9403C85.8159 83.9403 85.9387 83.9029 86.0429 83.8328C86.1745 83.759 86.2935 83.6646 86.3955 83.5533C86.4929 83.4503 86.578 83.3363 86.6492 83.2136C86.7155 83.098 86.7689 82.9754 86.8083 82.8481C86.8436 82.7361 86.8681 82.6209 86.8814 82.5041Z" fill="white"/>
<path d="M90.7293 81.0464C90.7432 81.0349 90.7607 81.0286 90.7788 81.0286C90.7968 81.0286 90.8143 81.0349 90.8282 81.0464C90.8442 81.0636 90.8564 81.084 90.8638 81.1062C90.8712 81.1285 90.8737 81.1521 90.8712 81.1754V81.743C90.8709 81.8043 90.8562 81.8647 90.8282 81.9193C90.8084 81.9687 90.7739 82.0107 90.7293 82.0397L88.4546 83.3512C88.4407 83.3628 88.4232 83.3691 88.4052 83.3691C88.3871 83.3691 88.3696 83.3628 88.3557 83.3512C88.3271 83.3146 88.3132 83.2686 88.317 83.2222V78.0622C88.3173 78.0014 88.3305 77.9413 88.3557 77.8859C88.3757 77.8367 88.4102 77.7947 88.4546 77.7655L88.8846 77.5204C88.8985 77.5089 88.916 77.5026 88.9341 77.5026C88.9521 77.5026 88.9696 77.5089 88.9835 77.5204C88.9989 77.538 89.0106 77.5585 89.018 77.5806C89.0253 77.6027 89.0282 77.6261 89.0265 77.6494V82.0311L90.7293 81.0464Z" fill="white"/>
<path d="M91.6546 81.5237C91.6407 81.5353 91.6232 81.5416 91.6051 81.5416C91.587 81.5416 91.5696 81.5353 91.5557 81.5237C91.5396 81.5066 91.5275 81.4862 91.5201 81.4639C91.5127 81.4417 91.5101 81.4181 91.5127 81.3947V76.2347C91.513 76.1734 91.5277 76.113 91.5557 76.0584C91.5754 76.0091 91.61 75.967 91.6546 75.938L92.0846 75.6972C92.0984 75.6857 92.1159 75.6794 92.134 75.6794C92.1521 75.6794 92.1696 75.6857 92.1835 75.6972C92.1992 75.7145 92.2112 75.735 92.2186 75.7572C92.226 75.7794 92.2287 75.8029 92.2265 75.8262V80.9862C92.227 81.0477 92.2122 81.1083 92.1835 81.1625C92.165 81.2127 92.1302 81.2551 92.0846 81.2829L91.6546 81.5237Z" fill="white"/>
<path d="M95.3867 77.5935C95.397 77.5246 95.4219 77.4586 95.4598 77.4C95.4835 77.3567 95.5175 77.3198 95.5587 77.2925L95.9887 77.0517C96.0029 77.0409 96.0202 77.0351 96.0381 77.0351C96.056 77.0351 96.0733 77.0409 96.0876 77.0517C96.1046 77.069 96.117 77.0902 96.1237 77.1135C96.1305 77.1368 96.1314 77.1613 96.1263 77.185C96.0993 77.696 95.9691 78.1963 95.7436 78.6556C95.6137 78.9082 95.4549 79.1448 95.2706 79.3608C95.0735 79.5866 94.8394 79.7771 94.5783 79.9241C94.3899 80.0477 94.1713 80.1176 93.9462 80.1262C93.7717 80.1288 93.6032 80.0623 93.4775 79.9413C93.3347 79.7935 93.2326 79.6113 93.1808 79.4124C93.1038 79.148 93.0605 78.875 93.0518 78.5997C93.0518 78.4019 93.0518 78.1697 93.0518 77.9332C93.0518 77.6967 93.0518 77.4645 93.0518 77.2581C93.0664 76.9339 93.1095 76.6116 93.1808 76.2949C93.2483 75.9984 93.3478 75.71 93.4775 75.4349C93.6005 75.1728 93.7581 74.9284 93.9462 74.7082C94.1257 74.4977 94.3394 74.3189 94.5783 74.1793C94.784 74.0412 95.0231 73.961 95.2706 73.9471C95.4421 73.9423 95.6098 73.9987 95.7436 74.1062C95.8744 74.2204 95.9699 74.3696 96.0188 74.5362C96.0833 74.7262 96.1196 74.9247 96.1263 75.1253C96.131 75.188 96.1176 75.2507 96.0876 75.3059C96.0664 75.3533 96.0321 75.3936 95.9887 75.422L95.5587 75.6671C95.544 75.6767 95.5268 75.6819 95.5092 75.6819C95.4916 75.6819 95.4745 75.6767 95.4598 75.6671C95.4407 75.6527 95.4256 75.6337 95.4158 75.6119C95.406 75.5901 95.4019 75.5662 95.4039 75.5424C95.394 75.4502 95.3693 75.3602 95.3308 75.2758C95.2967 75.2001 95.2414 75.1359 95.1717 75.0909C95.0956 75.0489 95.0087 75.0309 94.9223 75.0393C94.797 75.0574 94.677 75.1013 94.5697 75.1683C94.4349 75.2465 94.3155 75.3485 94.2171 75.4693C94.116 75.5905 94.0321 75.7251 93.9677 75.8692C93.898 76.0208 93.8447 76.1794 93.8086 76.3422C93.7744 76.511 93.7528 76.682 93.7441 76.8539C93.7441 77.0603 93.7441 77.2839 93.7441 77.529C93.7441 77.7741 93.7441 77.9977 93.7441 78.1955C93.7503 78.3407 93.772 78.4849 93.8086 78.6255C93.8363 78.7335 93.8911 78.8326 93.9677 78.9136C93.9998 78.9477 94.0384 78.9752 94.0812 78.9943C94.124 79.0135 94.1702 79.0241 94.2171 79.0254C94.3424 79.0239 94.4648 78.9866 94.5697 78.9179C94.7013 78.844 94.8203 78.7497 94.9223 78.6384C95.0208 78.5348 95.106 78.4192 95.176 78.2944C95.243 78.1807 95.2964 78.0595 95.3351 77.9332C95.3624 77.8218 95.3797 77.7081 95.3867 77.5935Z" fill="white"/>
<path d="M99.5923 76.6045C99.6084 76.6173 99.6192 76.6358 99.6224 76.6562C99.6237 76.6719 99.6237 76.6877 99.6224 76.7035C99.6199 76.7645 99.6053 76.8244 99.5794 76.8797C99.5581 76.9282 99.5239 76.9699 99.4805 77.0002L98.986 77.284C98.9172 77.3227 98.8613 77.327 98.8226 77.284C98.7965 77.266 98.7721 77.2459 98.7495 77.2238L97.5283 75.8091V77.8989C97.5279 77.9602 97.5132 78.0206 97.4853 78.0752C97.4655 78.1245 97.4309 78.1666 97.3864 78.1956L96.9564 78.4364C96.9425 78.4479 96.925 78.4542 96.9069 78.4542C96.8888 78.4542 96.8713 78.4479 96.8575 78.4364C96.8295 78.3994 96.8158 78.3536 96.8188 78.3074V73.1474C96.819 73.0865 96.8322 73.0264 96.8575 72.9711C96.8789 72.9227 96.9131 72.8811 96.9564 72.8507L97.3864 72.6056C97.4002 72.594 97.4177 72.5877 97.4358 72.5877C97.4539 72.5877 97.4714 72.594 97.4853 72.6056C97.5009 72.6221 97.5129 72.6417 97.5203 72.6632C97.5277 72.6847 97.5304 72.7076 97.5283 72.7303V74.6094L98.6592 72.0294C98.6868 71.965 98.7199 71.9032 98.7581 71.8445C98.7931 71.7938 98.8385 71.7513 98.8914 71.7197L99.373 71.4446C99.3869 71.433 99.4043 71.4267 99.4224 71.4267C99.4405 71.4267 99.458 71.433 99.4719 71.4446C99.5005 71.4812 99.5143 71.5272 99.5106 71.5736C99.5105 71.621 99.5002 71.668 99.4805 71.7112L98.083 74.8588L99.5923 76.6045Z" fill="white"/>
<path d="M104.313 68.6151C104.327 68.6036 104.344 68.5973 104.363 68.5973C104.381 68.5973 104.398 68.6036 104.412 68.6151C104.427 68.6327 104.439 68.6532 104.446 68.6753C104.454 68.6975 104.457 68.7209 104.455 68.7441V73.9041C104.453 73.9653 104.439 74.0254 104.412 74.0804C104.391 74.1289 104.356 74.1706 104.313 74.2008L103.883 74.4416C103.869 74.4532 103.852 74.4595 103.834 74.4595C103.816 74.4595 103.798 74.4532 103.784 74.4416C103.769 74.4241 103.757 74.4036 103.75 74.3815C103.742 74.3593 103.739 74.3359 103.741 74.3126V72.2013L102.185 73.1V75.25C102.185 75.31 102.17 75.3691 102.142 75.422C102.122 75.4726 102.087 75.516 102.043 75.5467L101.613 75.7875C101.599 75.7991 101.581 75.8054 101.563 75.8054C101.545 75.8054 101.528 75.7991 101.514 75.7875C101.499 75.77 101.487 75.7495 101.481 75.7272C101.474 75.705 101.472 75.6816 101.475 75.6585V70.4985C101.475 70.4377 101.489 70.3776 101.514 70.3222C101.535 70.2739 101.569 70.2323 101.613 70.2018L102.043 69.9567C102.056 69.9444 102.074 69.9375 102.092 69.9375C102.11 69.9375 102.128 69.9444 102.142 69.9567C102.157 69.9732 102.169 69.9929 102.177 70.0144C102.184 70.0359 102.187 70.0588 102.185 70.0814V72.1368L103.75 71.2338V69.1784C103.751 69.1173 103.766 69.0572 103.793 69.0021C103.813 68.9529 103.847 68.9109 103.892 68.8817L104.313 68.6151Z" fill="white"/>
<path d="M107.813 71.1951C107.827 71.1828 107.844 71.1759 107.863 71.1759C107.881 71.1759 107.899 71.1828 107.912 71.1951C107.927 71.2127 107.939 71.2332 107.947 71.2553C107.954 71.2775 107.957 71.3009 107.955 71.3241V71.8917C107.953 71.9529 107.939 72.013 107.912 72.068C107.891 72.1165 107.857 72.1582 107.813 72.1884L105.534 73.5042C105.521 73.5166 105.503 73.5235 105.485 73.5235C105.466 73.5235 105.449 73.5166 105.435 73.5042C105.42 73.4877 105.408 73.4681 105.4 73.4466C105.393 73.425 105.39 73.4022 105.392 73.3795V68.2195C105.392 68.1596 105.407 68.1005 105.435 68.0475C105.455 67.997 105.49 67.9536 105.534 67.9229L107.77 66.6329C107.784 66.6213 107.802 66.615 107.82 66.615C107.838 66.615 107.855 66.6213 107.869 66.6329C107.885 66.6503 107.897 66.6707 107.904 66.6929C107.911 66.7151 107.914 66.7385 107.912 66.7618V67.3294C107.913 67.3909 107.898 67.4515 107.869 67.5057C107.851 67.5559 107.816 67.5983 107.77 67.6261L106.093 68.5979V69.8879L107.658 68.9849C107.672 68.9734 107.69 68.9671 107.708 68.9671C107.726 68.9671 107.743 68.9734 107.757 68.9849C107.787 69.0211 107.801 69.0675 107.796 69.1139V69.66C107.796 69.7209 107.783 69.781 107.757 69.8363C107.736 69.8848 107.702 69.9265 107.658 69.9567L106.093 70.8597V72.1841L107.813 71.1951Z" fill="white"/>
<path d="M110.208 65.2139C110.638 64.9645 110.97 64.9301 111.193 65.1064C111.326 65.2528 111.425 65.4263 111.483 65.615C111.542 65.8036 111.559 66.0028 111.533 66.1986C111.535 66.5713 111.476 66.9418 111.357 67.2951C111.247 67.6283 111.074 67.9366 110.845 68.2024L111.563 69.7633C111.567 69.7889 111.567 69.815 111.563 69.8407C111.562 69.8913 111.55 69.9412 111.529 69.9869C111.511 70.0265 111.482 70.0606 111.447 70.0858L111.017 70.3395C110.948 70.3782 110.896 70.3825 110.866 70.3395C110.836 70.3117 110.811 70.2781 110.793 70.2406L110.118 68.8001L109.43 69.2V71.0619C109.428 71.1229 109.413 71.1828 109.387 71.2382C109.366 71.2866 109.332 71.3283 109.288 71.3586L108.858 71.5994C108.844 71.6109 108.827 71.6172 108.809 71.6172C108.791 71.6172 108.773 71.6109 108.759 71.5994C108.744 71.5818 108.732 71.5613 108.725 71.5392C108.717 71.517 108.715 71.4936 108.716 71.4704V66.3104C108.718 66.2492 108.733 66.1891 108.759 66.1341C108.779 66.0848 108.814 66.0428 108.858 66.0137L110.208 65.2139ZM109.43 68.1809L110.183 67.7509C110.371 67.6461 110.533 67.4989 110.656 67.3209C110.783 67.1071 110.845 66.8601 110.832 66.6114C110.832 66.3147 110.772 66.147 110.656 66.1169C110.573 66.1046 110.488 66.1089 110.407 66.1296C110.326 66.1502 110.25 66.1868 110.183 66.2373L109.43 66.6673V68.1809Z" fill="white"/>
<path d="M114.758 67.1832C114.772 67.1717 114.789 67.1654 114.807 67.1654C114.825 67.1654 114.843 67.1717 114.857 67.1832C114.886 67.2194 114.9 67.2658 114.895 67.3122V67.8798C114.895 67.9407 114.882 68.0007 114.857 68.0561C114.835 68.1046 114.801 68.1462 114.758 68.1765L112.474 69.4923C112.461 69.5035 112.445 69.5097 112.427 69.5097C112.41 69.5097 112.393 69.5035 112.38 69.4923C112.364 69.4752 112.352 69.4548 112.344 69.4325C112.337 69.4102 112.334 69.3866 112.337 69.3633V64.2033C112.337 64.142 112.352 64.0816 112.38 64.027C112.4 63.9789 112.432 63.9372 112.474 63.9066L114.715 62.6166C114.729 62.6051 114.746 62.5988 114.764 62.5988C114.782 62.5988 114.8 62.6051 114.814 62.6166C114.829 62.6342 114.841 62.6547 114.848 62.6768C114.855 62.6989 114.858 62.7223 114.857 62.7456V63.3132C114.855 63.3744 114.84 63.4345 114.814 63.4895C114.795 63.5397 114.76 63.5821 114.715 63.6099L113.038 64.5774V65.8674L114.603 64.9644C114.616 64.9523 114.633 64.9456 114.65 64.9456C114.668 64.9456 114.685 64.9523 114.698 64.9644C114.713 64.9809 114.725 65.0006 114.733 65.0221C114.74 65.0436 114.743 65.0665 114.741 65.0891V65.6567C114.741 65.7181 114.726 65.7787 114.698 65.833C114.679 65.8818 114.646 65.9238 114.603 65.9534L113.038 66.8564V68.1851L114.758 67.1832Z" fill="white"/>
<path d="M117.76 67.2606C117.715 67.2595 117.672 67.2408 117.641 67.2087C117.61 67.1766 117.592 67.1335 117.592 67.0886V65.2482C117.588 65.2236 117.59 65.1985 117.596 65.1745C117.603 65.1506 117.615 65.1284 117.631 65.1094C117.647 65.0905 117.667 65.0753 117.69 65.0649C117.712 65.0545 117.737 65.0491 117.762 65.0491C117.787 65.0491 117.811 65.0545 117.834 65.0649C117.856 65.0753 117.877 65.0905 117.893 65.1094C117.909 65.1284 117.921 65.1506 117.927 65.1745C117.934 65.1985 117.936 65.2236 117.932 65.2482V67.08C117.933 67.1033 117.929 67.1266 117.921 67.1485C117.913 67.1703 117.901 67.1903 117.884 67.2072C117.868 67.2241 117.849 67.2375 117.828 67.2467C117.806 67.2559 117.783 67.2606 117.76 67.2606Z" fill="#37474F"/>
<path d="M116.564 68.4431C116.532 68.4433 116.5 68.4346 116.473 68.4179C116.446 68.4011 116.424 68.3771 116.409 68.3485L115.811 67.08C115.799 67.0594 115.791 67.0364 115.788 67.0126C115.785 66.9888 115.788 66.9646 115.795 66.9417C115.802 66.9187 115.813 66.8975 115.829 66.8794C115.845 66.8612 115.864 66.8465 115.886 66.8363C115.907 66.826 115.931 66.8205 115.955 66.8199C115.979 66.8193 116.003 66.8237 116.025 66.8329C116.047 66.8421 116.067 66.8558 116.084 66.8732C116.1 66.8906 116.113 66.9112 116.121 66.9338L116.719 68.1851C116.728 68.2051 116.733 68.2268 116.734 68.2489C116.735 68.271 116.732 68.2931 116.724 68.3139C116.717 68.3347 116.705 68.3538 116.69 68.37C116.675 68.3863 116.657 68.3994 116.637 68.4087C116.617 68.427 116.591 68.4389 116.564 68.4431Z" fill="#37474F"/>
<path d="M115.67 70.2964H115.623L114.586 69.9696C114.565 69.9638 114.545 69.9535 114.527 69.9396C114.51 69.9256 114.495 69.9083 114.485 69.8885C114.474 69.8688 114.468 69.8471 114.466 69.8248C114.465 69.8025 114.467 69.7801 114.475 69.7589C114.481 69.7377 114.492 69.7179 114.506 69.7008C114.52 69.6836 114.537 69.6694 114.557 69.659C114.576 69.6486 114.598 69.6422 114.62 69.6402C114.642 69.6381 114.664 69.6405 114.685 69.6471L115.722 69.9696C115.765 69.9835 115.801 70.0138 115.822 70.0541C115.843 70.0944 115.847 70.1413 115.833 70.1846C115.822 70.2182 115.799 70.2471 115.77 70.2672C115.741 70.2873 115.706 70.2975 115.67 70.2964Z" fill="#37474F"/>
<path d="M114.174 73.014C114.144 73.0139 114.114 73.0064 114.088 72.9921C114.062 72.9778 114.039 72.9573 114.023 72.9323C114.012 72.9129 114.004 72.8914 114.001 72.8691C113.998 72.8468 114 72.8242 114.006 72.8025C114.012 72.7809 114.022 72.7606 114.036 72.743C114.05 72.7254 114.068 72.7108 114.088 72.7001L115.283 72.0078C115.302 71.9962 115.323 71.9886 115.345 71.9854C115.368 71.9822 115.39 71.9834 115.412 71.989C115.433 71.9946 115.454 72.0045 115.471 72.0181C115.489 72.0316 115.504 72.0486 115.515 72.068C115.537 72.1069 115.543 72.1529 115.532 72.1963C115.521 72.2397 115.493 72.2769 115.455 72.3002L114.255 72.9925C114.231 73.0075 114.202 73.015 114.174 73.014Z" fill="#37474F"/>
<path d="M120.154 69.5611C120.125 69.561 120.095 69.5535 120.069 69.5392C120.043 69.525 120.02 69.5044 120.004 69.4794C119.982 69.44 119.977 69.3936 119.989 69.3501C120.001 69.3067 120.029 69.2697 120.068 69.2472L121.264 68.5549C121.283 68.5436 121.304 68.5362 121.326 68.5331C121.348 68.53 121.371 68.5313 121.392 68.5369C121.414 68.5425 121.434 68.5523 121.452 68.5657C121.47 68.5791 121.485 68.5959 121.496 68.6151C121.507 68.6343 121.515 68.6555 121.518 68.6776C121.521 68.6997 121.52 68.7221 121.514 68.7437C121.508 68.7652 121.499 68.7855 121.485 68.8033C121.472 68.8211 121.455 68.836 121.436 68.8473L120.236 69.5396C120.212 69.5547 120.183 69.5621 120.154 69.5611Z" fill="#37474F"/>
<path d="M119.832 67.9056C119.798 67.9062 119.765 67.8956 119.737 67.8755C119.7 67.8501 119.674 67.8111 119.665 67.7669C119.657 67.7227 119.665 67.6767 119.69 67.639L120.727 66.1211C120.754 66.0896 120.792 66.0693 120.833 66.0638C120.875 66.0583 120.917 66.068 120.951 66.0911C120.986 66.1143 121.011 66.1493 121.022 66.1896C121.033 66.2299 121.029 66.2728 121.01 66.3103L119.97 67.8325C119.954 67.8546 119.934 67.8728 119.91 67.8855C119.886 67.8982 119.859 67.9051 119.832 67.9056Z" fill="#37474F"/>
<path d="M118.959 67.08H118.908C118.886 67.0741 118.866 67.0639 118.849 67.05C118.831 67.036 118.817 67.0186 118.806 66.9989C118.796 66.9791 118.789 66.9574 118.788 66.9351C118.786 66.9129 118.789 66.8904 118.796 66.8693L119.394 64.9257C119.4 64.9045 119.411 64.8849 119.426 64.8679C119.44 64.8509 119.458 64.837 119.477 64.8268C119.497 64.8166 119.519 64.8104 119.541 64.8086C119.563 64.8067 119.585 64.8093 119.606 64.816C119.628 64.8228 119.647 64.8337 119.664 64.8481C119.681 64.8624 119.695 64.88 119.705 64.8998C119.716 64.9195 119.722 64.9411 119.724 64.9633C119.725 64.9854 119.723 65.0077 119.716 65.0289L119.11 66.9424C119.103 66.9787 119.085 67.0118 119.058 67.0367C119.031 67.0616 118.996 67.0768 118.959 67.08Z" fill="#37474F"/>
<path d="M129.365 74.82C129.263 74.5796 129.089 74.3768 128.866 74.2395L127.615 73.5214C127.073 73.2118 126.407 73.5214 126.058 73.7364L125.276 73.2849C124.33 72.713 123.018 73.9084 122.722 74.1965L122.386 74.003C121.956 73.7321 121.337 73.9041 120.799 74.175V69.617C120.821 69.4239 120.792 69.2287 120.717 69.0496C120.642 68.8706 120.522 68.7136 120.369 68.5936H120.348L119.11 67.8626C118.928 67.7833 118.73 67.7523 118.533 67.7726C118.336 67.793 118.148 67.864 117.987 67.9787C117.52 68.2829 117.132 68.693 116.853 69.1757C116.574 69.6583 116.413 70.1999 116.383 70.7565V84.667L116.194 84.5767C115.098 83.807 113.945 83.3469 112.93 83.5275C112.077 83.7247 111.331 84.2399 110.845 84.968C110.316 85.9054 111.189 86.4902 112.316 87.7802C113.442 89.0702 114.418 90.5967 115.437 91.5427C115.939 92.0527 116.535 92.4602 117.192 92.7424V94.5613L118.43 95.2751L127.851 89.8356V88.0167C127.851 88.0167 129.021 83.3555 129.391 81.4076C129.761 79.4597 130.087 76.3035 129.365 74.82Z" fill="#6730EC"/>
<path opacity="0.8" d="M129.365 74.82C129.263 74.5796 129.089 74.3768 128.866 74.2395L127.615 73.5214C127.073 73.2118 126.407 73.5214 126.058 73.7364L125.276 73.2849C124.33 72.713 123.018 73.9084 122.722 74.1965L122.386 74.003C121.956 73.7321 121.337 73.9041 120.799 74.175V69.617C120.821 69.4239 120.792 69.2287 120.717 69.0496C120.642 68.8706 120.522 68.7136 120.369 68.5936H120.348L119.11 67.8626C118.928 67.7833 118.73 67.7523 118.533 67.7726C118.336 67.793 118.148 67.864 117.987 67.9787C117.52 68.2829 117.132 68.693 116.853 69.1757C116.574 69.6583 116.413 70.1999 116.383 70.7565V84.667L116.194 84.5767C115.098 83.807 113.945 83.3469 112.93 83.5275C112.077 83.7247 111.331 84.2399 110.845 84.968C110.316 85.9054 111.189 86.4902 112.316 87.7802C113.442 89.0702 114.418 90.5967 115.437 91.5427C115.939 92.0527 116.535 92.4602 117.192 92.7424V94.5613L118.43 95.2751L127.851 89.8356V88.0167C127.851 88.0167 129.021 83.3555 129.391 81.4076C129.761 79.4597 130.087 76.3035 129.365 74.82Z" fill="white"/>
<path opacity="0.2" d="M120.804 74.175V75.7144C121.175 75.3954 121.58 75.1185 122.012 74.8888L120.804 74.175ZM126.493 73.5042C126.343 73.5628 126.199 73.6348 126.063 73.7192L126.463 73.9514C126.723 74.1011 126.93 74.328 127.056 74.6007C127.273 74.4353 127.512 74.3007 127.766 74.2008L126.493 73.5042ZM123.564 73.5042C123.263 73.6957 122.982 73.9176 122.726 74.1664L123.543 74.6394L123.59 74.6652C123.714 74.7323 123.821 74.8264 123.904 74.9404C124.164 74.6748 124.453 74.4383 124.764 74.2352L123.564 73.5042ZM116.358 70.7393V84.6498C116.792 84.8676 117.207 85.1237 117.596 85.4152V71.4703L116.358 70.7393ZM116.646 92.2393C115.631 91.2933 114.646 89.7539 113.528 88.4768C112.47 87.2642 111.632 86.6751 111.976 85.8323L110.737 85.14C110.393 86 111.232 86.5762 112.29 87.7888C113.408 89.0788 114.393 90.601 115.407 91.5556C115.912 92.0624 116.509 92.4681 117.166 92.751V94.5699L118.404 95.2837V93.4648C117.744 93.1806 117.146 92.7685 116.646 92.2522V92.2393Z" fill="#6730EC"/>
<path opacity="0.3" d="M120.804 74.175V75.7144C121.175 75.3954 121.58 75.1185 122.012 74.8888L120.804 74.175ZM126.493 73.5042C126.343 73.5628 126.199 73.6348 126.063 73.7192L126.463 73.9514C126.723 74.1011 126.93 74.328 127.056 74.6007C127.273 74.4353 127.512 74.3007 127.766 74.2008L126.493 73.5042ZM123.564 73.5042C123.263 73.6957 122.982 73.9176 122.726 74.1664L123.543 74.6394L123.59 74.6652C123.714 74.7323 123.821 74.8264 123.904 74.9404C124.164 74.6748 124.453 74.4383 124.764 74.2352L123.564 73.5042ZM116.358 70.7393V84.6498C116.792 84.8676 117.207 85.1237 117.596 85.4152V71.4703L116.358 70.7393ZM116.646 92.2393C115.631 91.2933 114.646 89.7539 113.528 88.4768C112.47 87.2642 111.632 86.6751 111.976 85.8323L110.737 85.14C110.393 86 111.232 86.5762 112.29 87.7888C113.408 89.0788 114.393 90.601 115.407 91.5556C115.912 92.0624 116.509 92.4681 117.166 92.751V94.5699L118.404 95.2837V93.4648C117.744 93.1806 117.146 92.7685 116.646 92.2522V92.2393Z" fill="#6730EC"/>
<path d="M118.404 95.2708V93.4519C117.748 93.1705 117.152 92.7645 116.65 92.2565C115.631 91.3062 114.646 89.7668 113.528 88.4897C112.41 87.2126 111.524 86.6149 112.058 85.6818C112.543 84.9521 113.289 84.4353 114.143 84.237C115.218 84.0478 116.444 84.5724 117.583 85.4281V71.466C117.613 70.91 117.774 70.369 118.053 69.8871C118.332 69.4051 118.72 68.9958 119.187 68.6925C120.073 68.1808 120.791 68.5936 120.791 69.617V75.7144C120.791 75.7144 122.997 73.7493 123.891 74.9533C123.891 74.9533 126.063 72.6829 127.043 74.6007C127.043 74.6007 128.634 73.3107 129.352 74.8071C130.07 76.3035 129.726 79.4554 129.352 81.4033C128.978 83.3512 127.813 88.0124 127.813 88.0124V89.8313L118.404 95.2708Z" fill="#6730EC"/>
<path opacity="0.65" d="M118.404 95.2708V93.4519C117.748 93.1705 117.152 92.7645 116.65 92.2565C115.631 91.3062 114.646 89.7668 113.528 88.4897C112.41 87.2126 111.524 86.6149 112.058 85.6818C112.543 84.9521 113.289 84.4353 114.143 84.237C115.218 84.0478 116.444 84.5724 117.583 85.4281V71.466C117.613 70.91 117.774 70.369 118.053 69.8871C118.332 69.4051 118.72 68.9958 119.187 68.6925C120.073 68.1808 120.791 68.5936 120.791 69.617V75.7144C120.791 75.7144 122.997 73.7493 123.891 74.9533C123.891 74.9533 126.063 72.6829 127.043 74.6007C127.043 74.6007 128.634 73.3107 129.352 74.8071C130.07 76.3035 129.726 79.4554 129.352 81.4033C128.978 83.3512 127.813 88.0124 127.813 88.0124V89.8313L118.404 95.2708Z" fill="white"/>
<g opacity="0.3">
<path d="M120.804 78.3331C120.804 78.3331 121.002 75.551 122.025 74.8931H121.991C121.566 75.1209 121.168 75.3949 120.804 75.7101V75.68C120.8 75.688 120.798 75.6968 120.798 75.7058C120.798 75.7148 120.8 75.7237 120.804 75.7316V78.3331Z" fill="#6730EC"/>
<path d="M123.904 74.9533V77.4989C123.904 77.4989 124.188 74.8845 124.764 74.2481C124.456 74.4549 124.168 74.6911 123.904 74.9533Z" fill="#6730EC"/>
<path d="M127.057 74.6007V77.1549C127.057 77.1549 127.211 74.5749 127.766 74.2008C127.512 74.3007 127.274 74.4352 127.057 74.6007Z" fill="#6730EC"/>
</g>
</svg>
