<svg width="40" height="40" viewBox="0 0 40 40" fill="none" xmlns="http://www.w3.org/2000/svg">
<rect width="40" height="40" rx="8" fill="#6730EC"/>
<path d="M16.5188 25.9226C16.2752 25.9226 16.0663 25.7542 16.0222 25.5222C15.4877 22.7108 14.9967 20.9924 13.9343 19.9638C12.872 18.9351 11.0972 18.4597 8.19374 17.9421C7.95416 17.8994 7.78027 17.6972 7.78027 17.4613C7.78027 17.2254 7.95421 17.0232 8.19374 16.9805C11.0972 16.4629 12.872 15.9875 13.9343 14.9588C14.9967 13.9302 15.4877 12.2117 16.0222 9.40035C16.0663 9.16837 16.2752 9 16.5188 9C16.7624 9 16.9712 9.16842 17.0154 9.40035C17.5499 12.2117 18.0409 13.9302 19.1032 14.9588C20.1656 15.9875 21.9403 16.4629 24.8438 16.9805C25.0835 17.0232 25.2573 17.2254 25.2573 17.4613C25.2573 17.6972 25.0834 17.8994 24.8438 17.9421C21.9403 18.4597 20.1656 18.9351 19.1032 19.9638C18.0409 20.9924 17.5499 22.7109 17.0154 25.5222C16.9712 25.7542 16.7624 25.9226 16.5188 25.9226ZM10.7425 17.4613C12.5147 17.8885 13.7534 18.4058 14.6484 19.2723C15.5434 20.1389 16.0776 21.3384 16.5187 23.0543C16.9599 21.3384 17.4942 20.1389 18.3891 19.2723C19.284 18.4057 20.5229 17.8884 22.2949 17.4613C20.5228 17.0341 19.2841 16.5168 18.3891 15.6503C17.4941 14.7837 16.9599 13.5842 16.5187 11.8683C16.0776 13.5842 15.5433 14.7837 14.6484 15.6503C13.7534 16.5169 12.5147 17.0341 10.7425 17.4613Z" fill="white"/>
<path d="M25.454 31.3343C25.2104 31.3343 25.0016 31.166 24.9574 30.934C24.6242 29.1814 24.3221 28.1138 23.6805 27.4926C23.0388 26.8713 21.9364 26.5788 20.1263 26.2561C19.8868 26.2134 19.7129 26.0112 19.7129 25.7754C19.7129 25.5394 19.8868 25.3372 20.1263 25.2945C21.9364 24.9719 23.0389 24.6793 23.6805 24.058C24.3221 23.4367 24.6242 22.3692 24.9574 20.6166C25.0016 20.3847 25.2105 20.2163 25.454 20.2163C25.6976 20.2163 25.9065 20.3847 25.9506 20.6166C26.2839 22.3692 26.586 23.4368 27.2276 24.058C27.8692 24.6793 28.9717 24.9719 30.7818 25.2945C31.0213 25.3372 31.1952 25.5394 31.1952 25.7754C31.1952 26.0112 31.0214 26.2134 30.7818 26.2561C28.9717 26.5788 27.8692 26.8713 27.2276 27.4926C26.586 28.1138 26.2839 29.1814 25.9506 30.934C25.9065 31.166 25.6977 31.3343 25.454 31.3343ZM22.4604 25.7753C24.1614 26.287 24.9256 27.027 25.454 28.674C25.9824 27.027 26.7467 26.287 28.4477 25.7753C26.7467 25.2636 25.9825 24.5237 25.454 22.8766C24.9256 24.5237 24.1614 25.2636 22.4604 25.7753Z" fill="white"/>
</svg>
