<svg width="40" height="40" viewBox="0 0 40 40" fill="none" xmlns="http://www.w3.org/2000/svg">
<rect width="40" height="40" rx="8" fill="#6130D8"/>
<path d="M17.3562 8.26036L17.3569 8.25999C18.1989 7.82433 19.0545 7.58481 20.0531 7.50414C20.136 7.49827 20.3817 7.49872 20.6613 7.50618C20.9407 7.51365 21.1979 7.52661 21.297 7.53862C23.9392 7.85985 26.1465 9.64504 26.9951 12.1366L26.9951 12.1367C27.2495 12.8836 27.3588 13.5498 27.3588 14.3637C27.3588 15.0138 27.3123 15.4074 27.1657 16.0059L27.1657 16.0059C26.8076 17.4685 25.9816 18.7644 24.8054 19.7141C22.4735 21.5928 19.2026 21.7442 16.7124 20.0899L17.3562 8.26036ZM17.3562 8.26036C15.3096 9.31517 13.9385 11.3106 13.6765 13.6159L13.6764 13.6168M17.3562 8.26036L13.6764 13.6168M13.6764 13.6168C13.6169 14.133 13.6355 14.8878 13.7185 15.4269M13.6764 13.6168L13.7185 15.4269M13.7185 15.4269C14.0182 17.332 15.0983 19.0169 16.7123 20.0898L13.7185 15.4269Z" stroke="white"/>
<path d="M12.3758 23.4745L12.3753 23.4749C11.3434 24.4904 10.5747 25.5508 9.91983 26.864L9.9198 26.864C9.02327 28.6611 8.56861 30.4999 8.51231 32.5542H20.499H32.498C32.4578 30.3745 31.8234 28.0777 30.7363 26.1878C29.8289 24.6112 28.5388 23.1872 27.1533 22.2156C27.1282 22.2366 27.105 22.256 27.0868 22.2709C25.8102 23.3487 24.1866 24.1299 22.532 24.4617C21.8151 24.607 21.2348 24.663 20.503 24.663C19.9527 24.663 19.6002 24.6392 19.0921 24.5687L19.091 24.5685C17.181 24.299 15.3687 23.493 13.9109 22.2629C13.8946 22.2491 13.8781 22.2353 13.8617 22.2216C13.3167 22.6101 12.8806 22.9765 12.3758 23.4745Z" stroke="white"/>
<rect width="40" height="40" rx="8" fill="#6130D8"/>
<path d="M17.3562 8.26036L17.3569 8.25999C18.1989 7.82433 19.0545 7.58481 20.0531 7.50414C20.136 7.49827 20.3817 7.49872 20.6613 7.50618C20.9407 7.51365 21.1979 7.52661 21.297 7.53862C23.9392 7.85985 26.1465 9.64504 26.9951 12.1366L26.9951 12.1367C27.2495 12.8836 27.3588 13.5498 27.3588 14.3637C27.3588 15.0138 27.3123 15.4074 27.1657 16.0059L27.1657 16.0059C26.8076 17.4685 25.9816 18.7644 24.8054 19.7141C22.4735 21.5928 19.2026 21.7442 16.7124 20.0899L17.3562 8.26036ZM17.3562 8.26036C15.3096 9.31517 13.9385 11.3106 13.6765 13.6159L13.6764 13.6168M17.3562 8.26036L13.6764 13.6168M13.6764 13.6168C13.6169 14.133 13.6355 14.8878 13.7185 15.4269M13.6764 13.6168L13.7185 15.4269M13.7185 15.4269C14.0182 17.332 15.0983 19.0169 16.7123 20.0898L13.7185 15.4269Z" stroke="white"/>
<path d="M12.3758 23.4745L12.3753 23.4749C11.3434 24.4904 10.5747 25.5508 9.91983 26.864L9.9198 26.864C9.02327 28.6611 8.56861 30.4999 8.51231 32.5542H20.499H32.498C32.4578 30.3745 31.8234 28.0777 30.7363 26.1878C29.8289 24.6112 28.5388 23.1872 27.1533 22.2156C27.1282 22.2366 27.105 22.256 27.0868 22.2709C25.8102 23.3487 24.1866 24.1299 22.532 24.4617C21.8151 24.607 21.2348 24.663 20.503 24.663C19.9527 24.663 19.6002 24.6392 19.0921 24.5687L19.091 24.5685C17.181 24.299 15.3687 23.493 13.9109 22.2629C13.8946 22.2491 13.8781 22.2353 13.8617 22.2216C13.3167 22.6101 12.8806 22.9765 12.3758 23.4745Z" stroke="white"/>
</svg>
