<svg width="40" height="40" viewBox="0 0 40 40" fill="none" xmlns="http://www.w3.org/2000/svg">
<rect width="40" height="40" rx="8" fill="#6730EC"/>
<g clip-path="url(#clip0_392_391)">
<path d="M16.9286 20.5C16.9286 20.0072 16.5286 19.6071 16.0357 19.6071H8.89289C8.39998 19.6071 8 20.0072 8 20.5C8 20.9928 8.39998 21.3929 8.89289 21.3929H16.0358C16.5285 21.3929 16.9286 20.9928 16.9286 20.5ZM13.6036 22.2857H11.7732C12.4268 25.4607 14.7661 28.0071 17.8215 28.975V27.6428C17.8215 27.466 17.8411 27.2964 17.8733 27.1286C15.775 26.2965 14.1786 24.4982 13.6036 22.2857ZM17.8214 13.8875V12.025C14.7661 12.9929 12.4268 15.5392 11.7732 18.7143H13.6018C14.1714 16.5178 15.7464 14.7286 17.8214 13.8875ZM27.3982 18.7143H29.2268C28.5732 15.5392 26.2357 12.9929 23.1786 12.025V13.8857C25.2536 14.7286 26.8286 16.5178 27.3982 18.7143ZM32.1071 19.6071H24.9642C24.4714 19.6071 24.0713 20.0071 24.0713 20.5C24.0713 20.9928 24.4713 21.3929 24.9642 21.3929H32.1071C32.5999 21.3929 33 20.9929 33 20.5C33 20.0072 32.6 19.6071 32.1071 19.6071ZM23.1268 27.1286C23.1589 27.2964 23.1786 27.4661 23.1786 27.6428V28.975C26.2357 28.0071 28.5733 25.4625 29.2268 22.2857H27.3965C26.8232 24.4982 25.2268 26.2965 23.1268 27.1286ZM20.5 8C20.0072 8 19.6071 8.39998 19.6071 8.89289V16.0358C19.6071 16.5286 20.0071 16.9287 20.5 16.9287C20.9928 16.9287 21.3929 16.5287 21.3929 16.0358V8.89289C21.3929 8.39998 20.9928 8 20.5 8ZM20.5 24.0714C20.0072 24.0714 19.6071 24.4714 19.6071 24.9643V32.1072C19.6071 32.6 20.0071 33.0001 20.5 33.0001C20.9928 33.0001 21.3929 32.6001 21.3929 32.1072V24.9643C21.3929 24.4715 20.9928 24.0714 20.5 24.0714Z" fill="white"/>
</g>
<defs>
<clipPath id="clip0_392_391">
<rect width="25" height="25" fill="white" transform="translate(8 7)"/>
</clipPath>
</defs>
</svg>
