<svg width="40" height="40" viewBox="0 0 40 40" fill="none" xmlns="http://www.w3.org/2000/svg">
<rect width="40" height="40" rx="8" fill="#6730EC"/>
<g clip-path="url(#clip0_392_400)">
<path d="M16.2812 28.25L12.9062 30.7812V25.7188H9.53125C9.0837 25.7188 8.65448 25.541 8.33801 25.2245C8.02154 24.908 7.84375 24.4788 7.84375 24.0312V10.5312C7.84375 10.0837 8.02154 9.65448 8.33801 9.33801C8.65448 9.02154 9.0837 8.84375 9.53125 8.84375H28.0938C28.5413 8.84375 28.9705 9.02154 29.287 9.33801C29.6035 9.65448 29.7812 10.0837 29.7812 10.5312V15.5707" stroke="white" stroke-width="1.5" stroke-linecap="round" stroke-linejoin="round"/>
<path d="M12.9062 13.9062H24.7188" stroke="white" stroke-width="1.5" stroke-linecap="round" stroke-linejoin="round"/>
<path d="M12.9062 18.9688H16.2812" stroke="white" stroke-width="1.5" stroke-linecap="round" stroke-linejoin="round"/>
<path d="M33.1562 29.0938H29.7812V34.1562L24.7188 29.0938H19.6562V18.9688H33.1562V29.0938Z" stroke="white" stroke-width="1.5" stroke-linecap="round" stroke-linejoin="round"/>
<path d="M29.7812 22.3438H23.0312" stroke="white" stroke-width="1.5" stroke-linecap="round" stroke-linejoin="round"/>
<path d="M29.7812 25.7188H23.0312" stroke="white" stroke-width="1.5" stroke-linecap="round" stroke-linejoin="round"/>
</g>
<defs>
<clipPath id="clip0_392_400">
<rect width="27" height="27" fill="white" transform="translate(7 8)"/>
</clipPath>
</defs>
</svg>
