<svg width="121" height="26" viewBox="0 0 121 26" fill="none" xmlns="http://www.w3.org/2000/svg">
<path d="M17.8865 4.734C16.2857 4.734 14.9884 3.44164 14.9884 1.84082C14.9884 2.64368 14.6653 3.3633 14.1415 3.88709C13.6177 4.41092 12.8932 4.734 12.0952 4.734C12.8932 4.734 13.6177 5.05713 14.1415 5.58092C14.6653 6.1096 14.9884 6.83418 14.9884 7.63215C14.9884 6.03128 16.2857 4.734 17.8865 4.734Z" fill="white"/>
<path d="M10.209 2.79837C10.209 2.02483 10.8359 1.39797 11.6094 1.39797C10.8359 1.39797 10.209 0.773489 10.209 0C10.209 0.387934 10.0529 0.735654 9.7998 0.988741C9.54669 1.24187 9.19661 1.39797 8.81104 1.39797C9.19661 1.39797 9.54669 1.55411 9.7998 1.8072C10.0529 2.06267 10.209 2.41277 10.209 2.79837Z" fill="white"/>
<path d="M19.771 2.79837C19.771 2.02483 20.3979 1.39797 21.1714 1.39797C20.3979 1.39797 19.771 0.773489 19.771 0C19.771 0.387934 19.6149 0.735654 19.3618 0.988741C19.1087 1.24187 18.7586 1.39797 18.373 1.39797C18.7586 1.39797 19.1087 1.55411 19.3618 1.8072C19.6149 2.06267 19.771 2.41277 19.771 2.79837Z" fill="white"/>
<path d="M5.30828 6.69581C4.87727 6.5796 4.45752 6.9057 4.45752 7.35167V7.53156C6.72494 7.88758 10.4653 8.61843 13.3061 9.83647C10.9937 8.33735 7.03601 7.16428 5.30828 6.69581Z" fill="white"/>
<path d="M25.5245 7.53156V7.35167C25.5245 6.9057 25.1048 6.5796 24.6738 6.69581C22.946 7.16428 18.9921 8.3336 16.6797 9.83272C19.5243 8.61843 23.2534 7.89133 25.5245 7.53156Z" fill="white"/>
<path d="M3.4349 8.13112C3.06012 8.0786 2.72656 8.37094 2.72656 8.74947V8.79074L12.8681 10.466C9.61128 9.10924 5.15141 8.37844 3.4349 8.13112Z" fill="white"/>
<path d="M27.256 8.79074V8.74947C27.256 8.37094 26.9224 8.0786 26.5477 8.13112C24.8312 8.37844 20.3638 9.10925 17.1069 10.4697L27.256 8.79074Z" fill="white"/>
<path d="M0.00743979 10.3207L1.55121 22.6831C1.65626 23.5242 2.31182 24.1906 3.1511 24.3095L14.4764 25.9128V11.4914L1.09212 9.27827C0.473011 9.17589 -0.0703117 9.69807 0.00743979 10.3207Z" fill="white"/>
<path d="M28.8904 9.27827L15.2261 11.5377V25.9525L26.8314 24.3095C27.6707 24.1906 28.3263 23.5242 28.4313 22.6831L29.9751 10.3207C30.0529 9.69807 29.5095 9.17589 28.8904 9.27827Z" fill="white"/>
<path d="M49.4173 17.5369L49.382 18.3505H40.3974C40.5389 20.3667 41.8831 21.3336 43.4984 21.3336C44.7129 21.3336 45.6561 20.7676 46.116 19.6947L49.2287 20.1545C48.427 22.6071 46.2457 24.0102 43.5219 24.0102C39.6074 24.0102 37.0488 21.6991 37.0488 17.7139C37.0488 13.7287 39.6781 11.394 43.4158 11.394C46.8469 11.394 49.4055 13.2923 49.4173 17.5369ZM43.44 13.7993C41.8954 13.7993 40.8224 14.5185 40.4923 16.1338H46.0576C45.8807 14.5892 44.8313 13.7993 43.44 13.7993ZM60.5955 5.66357H63.9913V23.7742H60.7724L60.6899 22.1943C59.9942 23.3851 58.5322 24.0573 56.8814 24.0573C53.6861 24.0573 51.045 21.6991 51.045 17.7374C51.045 13.7756 53.6979 11.4175 56.8814 11.4175C58.4732 11.4175 59.8763 12.0188 60.5956 13.1154L60.5955 5.66357ZM57.6597 21.2392C59.4636 21.2392 60.8668 19.8597 60.8668 17.7374C60.8668 15.615 59.4519 14.2236 57.6597 14.2236C55.8557 14.2236 54.4408 15.556 54.4408 17.7374C54.4408 19.9069 55.8557 21.2392 57.6597 21.2392ZM75.5345 11.6534H78.9303V23.7742H75.7114L75.6289 22.3122C74.7799 23.3852 73.4358 24.0102 71.7732 24.0102C68.8609 24.0102 67.2574 22.4891 67.2574 19.8126V11.6534H70.665V19.0815C70.665 20.685 71.6672 21.2746 72.8462 21.2746C74.2493 21.2746 75.5227 20.5672 75.5346 18.3388L75.5345 11.6534ZM87.9266 23.9983C84.1182 23.9983 81.4298 21.4633 81.4298 17.702C81.4298 13.929 84.1182 11.4175 87.9266 11.4175C90.9923 11.4175 93.2915 13.0093 93.8809 15.8744L90.7445 16.2164C90.3672 14.7661 89.3179 14.094 87.8911 14.094C86.0635 14.094 84.8255 15.5325 84.8255 17.702C84.8255 19.8597 86.0635 21.31 87.8911 21.31C89.3178 21.31 90.3672 20.6262 90.7445 19.1877L93.8809 19.5296C93.2914 22.3948 90.9332 23.9983 87.9266 23.9983ZM98.4204 24.0101C97.3711 24.0101 96.4867 23.1375 96.4867 22.0763C96.4867 21.0151 97.371 20.119 98.4204 20.119C99.4934 20.119 100.378 21.0151 100.378 22.0763C100.378 23.1375 99.4934 24.0101 98.4204 24.0101ZM114.02 20.4846C114.02 21.9703 114.161 22.9135 114.314 23.4442V23.7743H111.143L110.871 22.4537C109.964 23.5502 108.395 24.0101 106.98 24.0101C105.07 24.0101 103.207 23.1612 103.207 20.6379C103.207 18.1264 105.082 17.2775 107.617 16.7233L109.61 16.2753C110.47 16.0748 110.777 15.7801 110.777 15.2849C110.777 14.094 109.692 13.7638 108.737 13.7638C107.511 13.7638 106.579 14.2472 106.367 15.615L103.361 15.0726C103.868 12.5611 105.707 11.4175 108.926 11.4175C111.355 11.4175 114.02 12.1367 114.02 15.7918L114.02 20.4846ZM108.042 21.7108C109.657 21.7108 110.954 20.6379 110.954 18.2325L108.077 19.0461C107.134 19.2701 106.45 19.6002 106.45 20.4138C106.45 21.2863 107.169 21.7108 108.042 21.7108ZM119.054 9.83748C117.981 9.83748 117.085 8.96496 117.085 7.8802C117.085 6.80724 117.981 5.93475 119.054 5.93475C120.104 5.93475 121 6.80728 121 7.8802C121 8.96496 120.104 9.83748 119.054 9.83748ZM117.321 23.7742V11.6534H120.74V23.7742H117.321Z" fill="white"/>
<circle cx="98.5226" cy="22.3002" r="2.24183" fill="white"/>
</svg>
