<svg width="1500" height="1367" viewBox="0 0 1500 1367" fill="none" xmlns="http://www.w3.org/2000/svg">
<g clip-path="url(#clip0_30_128)">
<path d="M1377.79 0H127.573C57.1164 0 0 57.1049 0 127.547V1237.21C0 1307.65 57.1164 1364.76 127.573 1364.76H1377.79C1448.25 1364.76 1505.36 1307.65 1505.36 1237.21V127.547C1505.36 57.1049 1448.25 0 1377.79 0Z" fill="#6730EC"/>
<path d="M847.095 411.728C794.117 411.728 751.185 368.968 751.185 316.001C751.185 342.566 740.493 366.376 723.158 383.706C705.823 401.038 681.846 411.728 655.438 411.728C681.846 411.728 705.823 422.42 723.158 439.75C740.493 457.243 751.185 481.217 751.185 507.62C751.185 454.651 794.117 411.728 847.095 411.728Z" fill="white"/>
<path d="M593.009 347.684C593.009 322.09 613.754 301.349 639.352 301.349C613.754 301.349 593.009 280.687 593.009 255.094C593.009 267.93 587.843 279.435 579.466 287.809C571.089 296.184 559.504 301.349 546.744 301.349C559.504 301.349 571.089 306.515 579.466 314.889C587.843 323.342 593.009 334.926 593.009 347.684Z" fill="white"/>
<path d="M909.445 347.684C909.445 322.09 930.19 301.349 955.789 301.349C930.19 301.349 909.445 280.687 909.445 255.094C909.445 267.93 904.279 279.435 895.903 287.809C887.526 296.184 875.94 301.349 863.181 301.349C875.94 301.349 887.526 306.515 895.903 314.889C904.279 323.342 909.445 334.926 909.445 347.684Z" fill="white"/>
<path d="M430.834 476.637C416.57 472.792 402.679 483.582 402.679 498.338V504.29C477.717 516.069 601.498 540.251 695.512 580.552C618.986 530.951 488.011 492.137 430.834 476.637Z" fill="white"/>
<path d="M1099.85 504.29V498.338C1099.85 483.582 1085.96 472.792 1071.69 476.637C1014.52 492.137 883.665 530.827 807.139 580.428C901.277 540.251 1024.69 516.193 1099.85 504.29Z" fill="white"/>
<path d="M368.819 524.131C356.416 522.394 345.378 532.066 345.378 544.591V545.956L681.001 601.386C573.219 556.495 425.625 532.315 368.819 524.131Z" fill="white"/>
<path d="M1157.15 545.956V544.591C1157.15 532.066 1146.11 522.394 1133.71 524.131C1076.9 532.315 929.06 556.495 821.278 601.51L1157.15 545.956Z" fill="white"/>
<path d="M255.395 596.578L306.484 1005.62C309.961 1033.44 331.656 1055.49 359.431 1059.43L734.23 1112.48V635.311L291.291 562.087C270.802 558.699 252.822 575.976 255.395 596.578Z" fill="white"/>
<path d="M1211.24 562.087L759.036 636.843V1113.79L1143.1 1059.43C1170.88 1055.49 1192.57 1033.44 1196.05 1005.62L1247.14 596.578C1249.71 575.976 1231.73 558.699 1211.24 562.087Z" fill="white"/>
</g>
<defs>
<clipPath id="clip0_30_128">
<rect width="1500" height="1366.39" fill="white"/>
</clipPath>
</defs>
</svg>
