<svg width="1500" height="1500" viewBox="0 0 1500 1500" fill="none" xmlns="http://www.w3.org/2000/svg">
<path d="M882.801 342.101C809.388 342.101 749.893 282.833 749.893 209.419C749.893 246.239 735.077 279.24 711.055 303.261C687.033 327.284 653.807 342.101 617.212 342.101C653.807 342.101 687.033 356.92 711.055 380.941C735.077 405.186 749.893 438.415 749.893 475.01C749.893 401.594 809.388 342.101 882.801 342.101Z" fill="#5D1EF4"/>
<path d="M530.671 253.333C530.671 217.859 559.419 189.111 594.892 189.111C559.419 189.111 530.671 160.472 530.671 125C530.671 142.791 523.512 158.737 511.903 170.344C500.296 181.952 484.241 189.111 466.559 189.111C484.241 189.111 500.296 196.272 511.903 207.878C523.512 219.594 530.671 235.65 530.671 253.333Z" fill="#5D1EF4"/>
<path d="M969.202 253.333C969.202 217.859 997.95 189.111 1033.42 189.111C997.95 189.111 969.202 160.472 969.202 125C969.202 142.791 962.043 158.737 950.436 170.344C938.828 181.952 922.772 189.111 905.091 189.111C922.772 189.111 938.828 196.272 950.436 207.878C962.043 219.594 969.202 235.65 969.202 253.333Z" fill="#5D1EF4"/>
<path d="M305.968 432.064C286.202 426.735 266.952 441.69 266.952 462.142V470.392C370.936 486.719 542.468 520.236 672.748 576.095C566.702 507.345 385.202 453.548 305.968 432.064Z" fill="#5D1EF4"/>
<path d="M1233.07 470.391V462.142C1233.07 441.69 1213.82 426.735 1194.05 432.064C1114.82 453.548 933.491 507.173 827.444 575.923C957.897 520.236 1128.91 486.891 1233.07 470.391Z" fill="#5D1EF4"/>
<path d="M220.038 497.893C202.85 495.485 187.553 508.892 187.553 526.251V528.143L652.646 604.971C503.287 542.75 298.757 509.236 220.038 497.893Z" fill="#5D1EF4"/>
<path d="M1312.47 528.143V526.251C1312.47 508.892 1297.17 495.485 1279.98 497.893C1201.26 509.236 996.39 542.75 847.031 605.143L1312.47 528.143Z" fill="#5D1EF4"/>
<path d="M62.8412 598.31L133.639 1165.25C138.456 1203.82 168.52 1234.38 207.01 1239.84L726.39 1313.36V651.995L112.585 550.503C84.1923 545.807 59.2755 569.755 62.8412 598.31Z" fill="#5D1EF4"/>
<path d="M1387.42 550.503L760.772 654.119V1315.18L1292.99 1239.84C1331.48 1234.38 1361.55 1203.82 1366.37 1165.25L1437.16 598.31C1440.73 569.755 1415.81 545.807 1387.42 550.503Z" fill="#5D1EF4"/>
</svg>
