<svg width="110" height="25" viewBox="0 0 110 25" fill="none" xmlns="http://www.w3.org/2000/svg">
<path d="M9.38648 24.21C7.60648 24.21 6.04648 23.86 4.70648 23.16C3.38648 22.44 2.35648 21.46 1.61648 20.22C0.896484 18.98 0.536484 17.57 0.536484 15.99C0.536484 14.39 0.886484 12.98 1.58648 11.76C2.30648 10.52 3.28648 9.55 4.52648 8.85C5.78648 8.15 7.21648 7.8 8.81648 7.8C10.3765 7.8 11.7665 8.14 12.9865 8.82C14.2065 9.5 15.1665 10.46 15.8665 11.7C16.5665 12.94 16.9165 14.4 16.9165 16.08C16.9165 16.24 16.9065 16.42 16.8865 16.62C16.8865 16.82 16.8765 17.01 16.8565 17.19H3.50648V14.7H14.8765L13.4065 15.48C13.4265 14.56 13.2365 13.75 12.8365 13.05C12.4365 12.35 11.8865 11.8 11.1865 11.4C10.5065 11 9.71649 10.8 8.81648 10.8C7.89648 10.8 7.08648 11 6.38648 11.4C5.70648 11.8 5.16648 12.36 4.76648 13.08C4.38648 13.78 4.19648 14.61 4.19648 15.57V16.17C4.19648 17.13 4.41648 17.98 4.85648 18.72C5.29648 19.46 5.91648 20.03 6.71648 20.43C7.51648 20.83 8.43648 21.03 9.47649 21.03C10.3765 21.03 11.1865 20.89 11.9065 20.61C12.6265 20.33 13.2665 19.89 13.8265 19.29L15.8365 21.6C15.1165 22.44 14.2065 23.09 13.1065 23.55C12.0265 23.99 10.7865 24.21 9.38648 24.21ZM27.2986 24.21C25.7586 24.21 24.3686 23.87 23.1286 23.19C21.9086 22.49 20.9486 21.53 20.2486 20.31C19.5486 19.09 19.1986 17.65 19.1986 15.99C19.1986 14.33 19.5486 12.89 20.2486 11.67C20.9486 10.45 21.9086 9.5 23.1286 8.82C24.3686 8.14 25.7586 7.8 27.2986 7.8C28.6386 7.8 29.8386 8.1 30.8986 8.7C31.9586 9.28 32.7986 10.17 33.4186 11.37C34.0386 12.57 34.3486 14.11 34.3486 15.99C34.3486 17.85 34.0486 19.39 33.4486 20.61C32.8486 21.81 32.0186 22.71 30.9586 23.31C29.8986 23.91 28.6786 24.21 27.2986 24.21ZM27.7486 21C28.6486 21 29.4486 20.8 30.1486 20.4C30.8686 20 31.4386 19.42 31.8586 18.66C32.2986 17.9 32.5186 17.01 32.5186 15.99C32.5186 14.95 32.2986 14.06 31.8586 13.32C31.4386 12.56 30.8686 11.98 30.1486 11.58C29.4486 11.18 28.6486 10.98 27.7486 10.98C26.8486 10.98 26.0386 11.18 25.3186 11.58C24.6186 11.98 24.0486 12.56 23.6086 13.32C23.1886 14.06 22.9786 14.95 22.9786 15.99C22.9786 17.01 23.1886 17.9 23.6086 18.66C24.0486 19.42 24.6186 20 25.3186 20.4C26.0386 20.8 26.8486 21 27.7486 21ZM32.6086 24V20.22L32.7586 15.96L32.4586 11.7V1.74H36.1786V24H32.6086ZM47.8943 24.21C46.5343 24.21 45.3343 23.96 44.2943 23.46C43.2543 22.94 42.4443 22.16 41.8643 21.12C41.2843 20.06 40.9943 18.73 40.9943 17.13V7.98H44.7443V16.62C44.7443 18.06 45.0643 19.14 45.7043 19.86C46.3643 20.56 47.2943 20.91 48.4943 20.91C49.3743 20.91 50.1343 20.73 50.7743 20.37C51.4343 20.01 51.9443 19.47 52.3043 18.75C52.6843 18.03 52.8743 17.14 52.8743 16.08V7.98H56.6243V24H53.0543V19.68L53.6843 21C53.1443 22.04 52.3543 22.84 51.3143 23.4C50.2743 23.94 49.1343 24.21 47.8943 24.21ZM68.8842 24.21C67.2042 24.21 65.7042 23.86 64.3842 23.16C63.0842 22.44 62.0642 21.46 61.3242 20.22C60.5842 18.98 60.2142 17.57 60.2142 15.99C60.2142 14.39 60.5842 12.98 61.3242 11.76C62.0642 10.52 63.0842 9.55 64.3842 8.85C65.7042 8.15 67.2042 7.8 68.8842 7.8C70.4442 7.8 71.8142 8.12 72.9942 8.76C74.1942 9.38 75.1042 10.3 75.7242 11.52L72.8442 13.2C72.3642 12.44 71.7742 11.88 71.0742 11.52C70.3942 11.16 69.6542 10.98 68.8542 10.98C67.9342 10.98 67.1042 11.18 66.3642 11.58C65.6242 11.98 65.0442 12.56 64.6242 13.32C64.2042 14.06 63.9942 14.95 63.9942 15.99C63.9942 17.03 64.2042 17.93 64.6242 18.69C65.0442 19.43 65.6242 20 66.3642 20.4C67.1042 20.8 67.9342 21 68.8542 21C69.6542 21 70.3942 20.82 71.0742 20.46C71.7742 20.1 72.3642 19.54 72.8442 18.78L75.7242 20.46C75.1042 21.66 74.1942 22.59 72.9942 23.25C71.8142 23.89 70.4442 24.21 68.8842 24.21ZM97.039 24V20.76L96.829 20.07V14.4C96.829 13.3 96.499 12.45 95.839 11.85C95.179 11.23 94.179 10.92 92.839 10.92C91.939 10.92 91.049 11.06 90.169 11.34C89.309 11.62 88.579 12.01 87.979 12.51L86.509 9.78C87.369 9.12 88.389 8.63 89.569 8.31C90.769 7.97 92.009 7.8 93.289 7.8C95.609 7.8 97.399 8.36 98.659 9.48C99.939 10.58 100.579 12.29 100.579 14.61V24H97.039ZM91.999 24.21C90.799 24.21 89.749 24.01 88.849 23.61C87.949 23.19 87.249 22.62 86.749 21.9C86.269 21.16 86.029 20.33 86.029 19.41C86.029 18.51 86.239 17.7 86.659 16.98C87.099 16.26 87.809 15.69 88.789 15.27C89.769 14.85 91.069 14.64 92.689 14.64H97.339V17.13H92.959C91.679 17.13 90.819 17.34 90.379 17.76C89.939 18.16 89.719 18.66 89.719 19.26C89.719 19.94 89.989 20.48 90.529 20.88C91.069 21.28 91.819 21.48 92.779 21.48C93.699 21.48 94.519 21.27 95.239 20.85C95.979 20.43 96.509 19.81 96.829 18.99L97.459 21.24C97.099 22.18 96.449 22.91 95.509 23.43C94.589 23.95 93.419 24.21 91.999 24.21ZM105.392 24V7.98H109.142V24H105.392ZM107.282 5.34C106.582 5.34 106.002 5.12 105.542 4.68C105.102 4.24 104.882 3.71 104.882 3.09C104.882 2.45 105.102 1.92 105.542 1.5C106.002 1.06 106.582 0.84 107.282 0.84C107.982 0.84 108.552 1.05 108.992 1.47C109.452 1.87 109.682 2.38 109.682 3C109.682 3.66 109.462 4.22 109.022 4.68C108.582 5.12 108.002 5.34 107.282 5.34Z" fill="white"/>
<path d="M80.7518 24.21C80.0718 24.21 79.4918 23.98 79.0118 23.52C78.5318 23.04 78.2918 22.44 78.2918 21.72C78.2918 20.96 78.5318 20.36 79.0118 19.92C79.4918 19.46 80.0718 19.23 80.7518 19.23C81.4318 19.23 82.0118 19.46 82.4918 19.92C82.9718 20.36 83.2118 20.96 83.2118 21.72C83.2118 22.44 82.9718 23.04 82.4918 23.52C82.0118 23.98 81.4318 24.21 80.7518 24.21Z" fill="#6730EC"/>
</svg>
