<svg width="1139" height="326" viewBox="0 0 1139 326" fill="none" xmlns="http://www.w3.org/2000/svg">
<path d="M187.99 49.7545C171.165 49.7545 157.53 36.1719 157.53 19.3474C157.53 27.7854 154.135 35.3485 148.63 40.8535C143.124 46.3589 135.51 49.7545 127.123 49.7545C135.51 49.7545 143.124 53.1506 148.63 58.6555C154.135 64.212 157.53 71.8273 157.53 80.2138C157.53 63.3888 171.165 49.7545 187.99 49.7545Z" fill="url(#paint0_linear_94_12)"/>
<path d="M107.297 29.4106C107.297 21.2808 113.886 14.6926 122.015 14.6926C113.886 14.6926 107.297 8.12931 107.297 0C107.297 4.07716 105.657 7.73167 102.996 10.3916C100.336 13.052 96.6569 14.6926 92.6045 14.6926C96.6569 14.6926 100.336 16.3336 102.996 18.9936C105.657 21.6785 107.297 25.358 107.297 29.4106Z" fill="url(#paint1_linear_94_12)"/>
<path d="M207.79 29.4106C207.79 21.2808 214.379 14.6926 222.509 14.6926C214.379 14.6926 207.79 8.12931 207.79 0C207.79 4.07716 206.15 7.73167 203.49 10.3916C200.83 13.052 197.15 14.6926 193.098 14.6926C197.15 14.6926 200.83 16.3336 203.49 18.9936C206.15 21.6785 207.79 25.358 207.79 29.4106Z" fill="url(#paint2_linear_94_12)"/>
<path d="M55.7949 70.3714C51.2651 69.1501 46.8535 72.5775 46.8535 77.2645V79.1552C70.6839 82.8969 109.995 90.5781 139.851 103.38C115.548 87.6239 73.9533 75.2951 55.7949 70.3714Z" fill="url(#paint3_linear_94_12)"/>
<path d="M268.26 79.1552V77.2645C268.26 72.5775 263.848 69.1501 259.319 70.3714C241.16 75.2951 199.605 87.5845 175.301 103.34C205.198 90.5781 244.39 82.9364 268.26 79.1552Z" fill="url(#paint4_linear_94_12)"/>
<path d="M36.1001 85.458C32.1612 84.9061 28.6555 87.9785 28.6555 91.9569V92.3906L135.243 109.997C101.013 95.7381 54.1405 88.0574 36.1001 85.458Z" fill="url(#paint5_linear_94_12)"/>
<path d="M286.458 92.3906V91.9569C286.458 87.9785 282.952 84.9061 279.013 85.458C260.973 88.0574 214.021 95.7381 179.792 110.037L286.458 92.3906Z" fill="url(#paint6_linear_94_12)"/>
<path d="M0.0783137 108.47L16.3033 238.398C17.4073 247.238 24.2972 254.242 33.118 255.491L152.147 272.342V120.773L11.4782 97.514C4.97143 96.438 -0.73885 101.926 0.0783137 108.47Z" fill="url(#paint7_linear_94_12)"/>
<path d="M303.636 97.514L160.024 121.26V272.759L281.996 255.491C290.817 254.242 297.707 247.238 298.811 238.398L315.036 108.47C315.853 101.926 310.142 96.438 303.636 97.514Z" fill="url(#paint8_linear_94_12)"/>
<path d="M489.158 206.465L488.843 213.709H408.848C409.478 222.317 412.347 228.896 417.457 233.445C422.566 237.994 428.899 240.269 436.458 240.269C441.917 240.269 446.641 239.044 450.63 236.595C454.69 234.075 457.734 230.436 459.764 225.677L487.479 229.771C483.909 240.619 477.61 249.052 468.582 255.071C459.554 261.09 448.916 264.1 436.668 264.1C419.031 264.1 404.999 259.166 394.571 249.297C384.213 239.359 379.034 225.607 379.034 208.04C379.034 190.613 384.248 176.896 394.676 166.888C405.104 156.81 418.786 151.771 435.723 151.771C451.82 151.771 464.733 156.355 474.461 165.523C484.189 174.691 489.088 188.339 489.158 206.465ZM435.933 173.187C421.236 173.187 412.487 180.115 409.688 193.973H459.239C458.469 187.254 455.984 182.11 451.785 178.541C447.586 174.971 442.302 173.187 435.933 173.187ZM588.68 100.75H618.914V262H590.254L589.52 247.933C586.44 253.182 581.856 257.276 575.767 260.215C569.748 263.085 563.029 264.52 555.611 264.52C548.472 264.52 541.753 263.225 535.455 260.635C529.156 258.046 523.627 254.406 518.868 249.717C514.179 244.958 510.469 239.009 507.74 231.871C505.01 224.732 503.646 216.858 503.646 208.25C503.646 196.842 506.025 186.834 510.784 178.226C515.543 169.547 521.807 163.003 529.576 158.594C537.414 154.185 546.093 151.98 555.611 151.98C562.819 151.98 569.328 153.31 575.137 155.97C581.016 158.559 585.53 162.269 588.68 167.098V100.75ZM562.54 239.429C570.728 239.429 577.517 236.56 582.906 230.821C588.365 225.082 591.094 217.558 591.094 208.25C591.094 198.942 588.365 191.418 582.906 185.679C577.447 179.87 570.658 176.966 562.54 176.966C554.281 176.966 547.422 179.8 541.963 185.469C536.574 191.138 533.88 198.732 533.88 208.25C533.88 217.698 536.574 225.257 541.963 230.926C547.422 236.595 554.281 239.429 562.54 239.429ZM721.795 154.08H752.029V262H723.37L722.635 248.982C714.656 259.061 703.213 264.1 688.306 264.1C675.359 264.1 665.42 260.88 658.492 254.441C651.563 247.933 648.099 238.694 648.099 226.727V154.08H678.438V220.218C678.438 226.937 680.223 231.871 683.792 235.02C687.431 238.169 692.12 239.744 697.859 239.744C704.858 239.744 710.562 237.715 714.971 233.655C719.45 229.526 721.725 222.842 721.795 213.604V154.08ZM832.234 263.995C815.228 263.995 801.335 258.816 790.557 248.458C779.779 238.099 774.39 224.592 774.39 207.935C774.39 191.208 779.744 177.701 790.452 167.413C801.23 157.125 815.158 151.98 832.234 151.98C846.092 151.98 857.745 155.445 867.193 162.374C876.641 169.302 882.66 179.065 885.25 191.663L857.325 194.708C855.715 188.409 852.706 183.685 848.296 180.535C843.887 177.386 838.428 175.811 831.919 175.811C823.801 175.811 817.222 178.75 812.183 184.629C807.144 190.508 804.625 198.277 804.625 207.935C804.625 217.523 807.144 225.292 812.183 231.241C817.222 237.12 823.801 240.059 831.919 240.059C838.428 240.059 843.852 238.484 848.191 235.335C852.601 232.186 855.645 227.461 857.325 221.163L885.25 224.207C882.66 236.735 876.571 246.498 866.983 253.497C857.465 260.495 845.882 263.995 832.234 263.995ZM1062.77 232.71C1062.77 244.188 1063.65 252.972 1065.4 259.061V262H1037.16L1034.74 250.242C1030.89 254.861 1025.85 258.326 1019.62 260.635C1013.4 262.945 1006.89 264.1 1000.1 264.1C996.529 264.1 993.169 263.785 990.02 263.155C986.871 262.525 983.826 261.475 980.887 260.005C978.017 258.466 975.533 256.576 973.433 254.336C971.333 252.097 969.654 249.262 968.394 245.833C967.134 242.334 966.504 238.414 966.504 234.075C966.504 229.736 967.169 225.852 968.499 222.422C969.829 218.923 971.578 215.984 973.748 213.604C975.918 211.224 978.752 209.09 982.251 207.2C985.751 205.311 989.32 203.771 992.959 202.581C996.599 201.391 1000.87 200.271 1005.77 199.222L1023.51 195.232C1027.29 194.323 1029.95 193.203 1031.49 191.873C1033.1 190.473 1033.9 188.654 1033.9 186.414C1033.9 181.585 1032.12 178.121 1028.55 176.021C1025.05 173.921 1020.78 172.872 1015.74 172.872C1003.35 172.872 996.319 178.366 994.639 189.354L967.869 184.524C970.109 173.396 975.323 165.208 983.511 159.959C991.7 154.64 1003 151.98 1017.42 151.98C1047.65 151.98 1062.77 164.963 1062.77 190.928V232.71ZM1009.55 243.628C1017.17 243.628 1023.4 241.039 1028.23 235.86C1033.06 230.611 1035.48 222.877 1035.48 212.659L1009.86 219.903C1005.17 221.023 1001.57 222.492 999.048 224.312C996.599 226.132 995.374 228.721 995.374 232.081C995.374 235.79 996.704 238.659 999.363 240.689C1002.02 242.649 1005.42 243.628 1009.55 243.628ZM1107.7 137.913C1102.87 137.913 1098.74 136.233 1095.32 132.874C1091.89 129.445 1090.17 125.315 1090.17 120.486C1090.17 115.727 1091.89 111.668 1095.32 108.309C1098.81 104.879 1102.94 103.165 1107.7 103.165C1112.39 103.165 1116.45 104.879 1119.88 108.309C1123.31 111.668 1125.02 115.727 1125.02 120.486C1125.02 125.315 1123.31 129.445 1119.88 132.874C1116.45 136.233 1112.39 137.913 1107.7 137.913ZM1092.27 262V154.08H1122.72V262H1092.27Z" fill="white"/>
<path d="M923.882 264.1C919.193 264.1 915.134 262.42 911.705 259.061C908.345 255.631 906.666 251.572 906.666 246.883C906.666 242.124 908.345 238.029 911.705 234.6C915.134 231.171 919.193 229.456 923.882 229.456C928.641 229.456 932.736 231.171 936.165 234.6C939.594 238.029 941.309 242.124 941.309 246.883C941.309 251.572 939.594 255.631 936.165 259.061C932.736 262.42 928.641 264.1 923.882 264.1Z" fill="#5E24EA"/>
<defs>
<linearGradient id="paint0_linear_94_12" x1="185.808" y1="58.919" x2="127.363" y2="58.919" gradientUnits="userSpaceOnUse">
<stop stop-color="#5D1EF4"/>
<stop offset="0.43306" stop-color="#6130D8"/>
<stop offset="1" stop-color="#9F7AF7"/>
</linearGradient>
<linearGradient id="paint1_linear_94_12" x1="120.961" y1="19.121" x2="92.7202" y2="19.121" gradientUnits="userSpaceOnUse">
<stop stop-color="#5D1EF4"/>
<stop offset="0.43306" stop-color="#6130D8"/>
<stop offset="1" stop-color="#9F7AF7"/>
</linearGradient>
<linearGradient id="paint2_linear_94_12" x1="221.454" y1="19.121" x2="193.214" y2="19.121" gradientUnits="userSpaceOnUse">
<stop stop-color="#5D1EF4"/>
<stop offset="0.43306" stop-color="#6130D8"/>
<stop offset="1" stop-color="#9F7AF7"/>
</linearGradient>
<linearGradient id="paint3_linear_94_12" x1="136.518" y1="91.7442" x2="47.2195" y2="91.7442" gradientUnits="userSpaceOnUse">
<stop stop-color="#9F7AF7"/>
<stop offset="0.63" stop-color="#6130D8"/>
<stop offset="1" stop-color="#5D1EF4"/>
</linearGradient>
<linearGradient id="paint4_linear_94_12" x1="264.928" y1="91.7186" x2="175.667" y2="91.7186" gradientUnits="userSpaceOnUse">
<stop stop-color="#5D1EF4"/>
<stop offset="0.43306" stop-color="#6130D8"/>
<stop offset="1" stop-color="#9F7AF7"/>
</linearGradient>
<linearGradient id="paint5_linear_94_12" x1="131.422" y1="101.39" x2="29.075" y2="101.39" gradientUnits="userSpaceOnUse">
<stop stop-color="#9F7AF7"/>
<stop offset="0.63" stop-color="#6130D8"/>
<stop offset="1" stop-color="#5D1EF4"/>
</linearGradient>
<linearGradient id="paint6_linear_94_12" x1="282.635" y1="101.415" x2="180.212" y2="101.415" gradientUnits="userSpaceOnUse">
<stop stop-color="#5D1EF4"/>
<stop offset="0.43306" stop-color="#6130D8"/>
<stop offset="1" stop-color="#9F7AF7"/>
</linearGradient>
<linearGradient id="paint7_linear_94_12" x1="146.693" y1="211.129" x2="0.598861" y2="211.129" gradientUnits="userSpaceOnUse">
<stop stop-color="#9F7AF7"/>
<stop offset="0.655" stop-color="#6130D8"/>
<stop offset="1" stop-color="#5D1EF4"/>
</linearGradient>
<linearGradient id="paint8_linear_94_12" x1="309.555" y1="211.4" x2="160.634" y2="211.4" gradientUnits="userSpaceOnUse">
<stop stop-color="#5D1EF4"/>
<stop offset="0.43306" stop-color="#6130D8"/>
<stop offset="1" stop-color="#9F7AF7"/>
</linearGradient>
</defs>
</svg>
