<svg width="553" height="78" viewBox="0 0 553 78" fill="none" xmlns="http://www.w3.org/2000/svg">
<path d="M1.59189 25.5358L29.5546 6.52046C26.407 10.1241 24.5001 14.8394 24.5001 20V25.9189L1.59189 25.5358ZM33.8701 3.98626C37.0262 1.78856 40.8627 0.5 45.0001 0.5H533C543.77 0.5 552.5 9.23045 552.5 20V58C552.5 68.7696 543.77 77.5 533 77.5H45.0002C34.2306 77.5 25.5001 68.7696 25.5001 58V26.9358L40.118 27.1803L40.8009 27.1917L40.6054 26.5372L33.8701 3.98626ZM25.5001 20C25.5001 13.7493 28.4411 8.18556 33.0149 4.61698L39.4518 26.169L25.5001 25.9356V20Z" fill="#F5F5F5" stroke="#E2E2E2"/>
</svg>
