<svg width="278" height="278" viewBox="0 0 278 278" fill="none" xmlns="http://www.w3.org/2000/svg">
<path d="M86.3414 20.3218H22.6516V125.745H86.3414V20.3218Z" fill="#E0E0E0"/>
<path d="M84.223 20.3218H20.5332V125.745H84.223V20.3218Z" fill="#EBEBEB"/>
<path d="M81.5096 22.4568H23.2463V123.604H81.5096V22.4568Z" fill="white"/>
<path d="M70.1673 35.6006H34.3386V110.46H70.1673V35.6006Z" fill="#EBEBEB"/>
<path d="M34.3387 83.9561C34.2553 76.9616 40.5437 70.1339 47.4659 69.1553C50.7685 68.6939 54.2769 69.3499 57.3627 68.0823C62.8671 65.8249 64.624 58.5079 70.1507 56.334L70.4064 110.444H34.3387V83.9561Z" fill="#E0E0E0"/>
<path d="M252.897 15.5347V73.5477H169.574L166.572 15.9405L252.897 15.5347Z" fill="#E0E0E0"/>
<path d="M166.578 15.9404V73.4253H249.9V15.9404L166.578 15.9404Z" fill="white"/>
<path d="M250.289 73.8202H166.177V15.5681H250.289V73.8202ZM166.972 73.0307H249.499V16.3187H166.972V73.0307Z" fill="#E0E0E0"/>
<path d="M240.87 23.0852H175.596V66.2864H240.87V23.0852Z" fill="white"/>
<path d="M240.87 23.0851H240.548H239.619H236.039L222.583 23.1351L175.596 23.2296L175.785 23.0406C175.785 36.24 175.785 50.8406 175.785 66.2362L175.579 66.0305L240.854 66.0694L240.692 66.2362C240.726 53.0868 240.754 42.3282 240.776 34.8C240.776 31.0525 240.809 28.128 240.82 26.1097C240.82 25.12 240.82 24.3583 240.82 23.8245C240.82 23.3075 240.82 23.035 240.82 23.035C240.82 23.035 240.82 23.2852 240.82 23.7912C240.82 24.2971 240.82 25.0644 240.82 26.0152C240.82 28.0168 240.82 30.9358 240.859 34.6721C240.859 42.2003 240.909 53.0201 240.948 66.2084V66.3697H240.781L175.507 66.4141H175.301V66.2084C175.301 50.835 175.301 36.2122 175.301 23.0128V22.8237H175.485L222.6 22.9183L236.005 22.9683H239.553H240.459C240.599 22.9971 240.736 23.0361 240.87 23.0851Z" fill="#E0E0E0"/>
<path d="M166.572 15.7793C167.088 16.0269 167.57 16.3389 168.007 16.7078C168.857 17.325 170.019 18.1979 171.276 19.1987C172.533 20.1995 173.628 21.1503 174.406 21.8619C174.854 22.2165 175.254 22.6276 175.596 23.0851C175.524 23.1741 173.517 21.5172 171.015 19.5212C168.513 17.5251 166.5 15.8738 166.572 15.7793Z" fill="#E0E0E0"/>
<path d="M249.894 15.9405C249.967 16.0294 248.004 17.703 245.513 19.6768C243.022 21.6506 240.943 23.174 240.87 23.0851C240.798 22.9961 242.761 21.3226 245.257 19.3488C247.754 17.375 249.822 15.8515 249.894 15.9405Z" fill="#E0E0E0"/>
<path d="M249.828 73.4364L240.537 65.9026Z" fill="white"/>
<path d="M240.537 65.9028C240.609 65.8194 242.761 67.4318 245.313 69.5112C247.865 71.5906 249.9 73.3476 249.828 73.4366C249.755 73.5255 247.604 71.9076 245.057 69.8281C242.511 67.7487 240.47 65.9917 240.537 65.9028Z" fill="#E0E0E0"/>
<path d="M166.572 73.4253C166.505 73.3363 168.446 71.685 170.914 69.7335C173.383 67.7819 175.435 66.2751 175.507 66.3641C175.579 66.4531 173.633 68.1044 171.17 70.0559C168.707 72.0075 166.644 73.5143 166.572 73.4253Z" fill="#E0E0E0"/>
<path d="M188.851 36.5405V51.0076H229.923V36.5405H188.851Z" fill="#E0E0E0"/>
<path d="M126.523 208.267C126.523 205.748 128.453 203.924 131.049 203.924C131.675 203.901 132.298 204.016 132.874 204.26C133.45 204.504 133.966 204.872 134.385 205.336L133.379 206.276C133.096 205.959 132.748 205.706 132.358 205.535C131.969 205.365 131.547 205.28 131.122 205.286C130.72 205.269 130.32 205.333 129.944 205.475C129.569 205.616 129.226 205.832 128.936 206.11C128.646 206.388 128.415 206.721 128.257 207.09C128.1 207.459 128.018 207.857 128.018 208.258C128.018 208.66 128.1 209.057 128.257 209.426C128.415 209.795 128.646 210.129 128.936 210.407C129.226 210.684 129.569 210.9 129.944 211.042C130.32 211.183 130.72 211.247 131.122 211.23C131.548 211.237 131.972 211.151 132.362 210.977C132.752 210.803 133.099 210.546 133.379 210.224L134.396 211.191C133.977 211.655 133.461 212.022 132.885 212.266C132.308 212.51 131.686 212.625 131.06 212.603C128.436 212.615 126.523 210.791 126.523 208.267Z" fill="#EBEBEB"/>
<path d="M117.944 214.888H107.469V204.413H117.944V214.888ZM108.025 214.332H117.388V204.969H108.025V214.332Z" fill="#EBEBEB"/>
<path d="M105.473 217.068C105.162 216.834 107.664 213.076 111.517 209.089C115.37 205.103 119.029 202.456 119.301 202.757C119.574 203.057 116.371 206.159 112.585 210.096C108.798 214.032 105.796 217.324 105.473 217.068Z" fill="#E0E0E0"/>
<path d="M119.446 216.84C119.106 217.085 116.249 213.61 112.473 209.579C108.698 205.548 105.429 202.456 105.69 202.134C105.952 201.811 109.688 204.469 113.53 208.589C117.372 212.709 119.763 216.64 119.446 216.84Z" fill="#E0E0E0"/>
<path d="M47.816 174.1L42.673 173.733L41.4887 176.046L39.5149 175.907L44.8803 165.938L46.7596 166.072L50.6516 176.697L48.65 176.558L47.816 174.1ZM47.2933 172.555L45.6754 167.912L43.4514 172.277L47.2933 172.555Z" fill="#EBEBEB"/>
<path d="M31.0192 176.469L18.3757 175.574L19.2765 162.908L31.9143 163.809L31.0192 176.469ZM18.9707 175.057L30.5021 175.879L31.3194 164.342L19.788 163.525L18.9707 175.057Z" fill="#EBEBEB"/>
<path d="M15.6904 178.109C15.4013 177.859 18.8207 173.55 23.8525 169.035C28.8843 164.52 33.5213 161.557 33.7437 161.868C33.9661 162.18 29.7794 165.638 24.8477 170.108C19.916 174.579 15.9962 178.387 15.6904 178.109Z" fill="#E0E0E0"/>
<path d="M32.7319 179.065C32.376 179.288 29.2513 174.756 24.9868 169.513C20.7223 164.27 16.9582 160.261 17.2362 159.956C17.5142 159.65 21.7842 163.258 26.1322 168.601C30.4801 173.945 33.0599 178.871 32.7319 179.065Z" fill="#E0E0E0"/>
<path d="M261.125 119.101C261.609 120.802 260.569 122.175 258.001 122.898L253.063 124.294L250.283 114.364L254.937 113.046C257.317 112.373 258.879 113.046 259.324 114.592C259.466 115.035 259.48 115.509 259.364 115.96C259.248 116.41 259.007 116.819 258.668 117.138C259.239 117.141 259.792 117.336 260.238 117.692C260.684 118.048 260.997 118.545 261.125 119.101ZM252.507 115.287L253.286 118.028L255.893 117.288C257.172 116.927 257.767 116.265 257.511 115.359C257.256 114.453 256.399 114.186 255.121 114.547L252.507 115.287ZM259.218 119.44C258.935 118.45 258.056 118.222 256.666 118.617L253.692 119.462L254.498 122.325L257.478 121.48C258.868 121.086 259.496 120.435 259.218 119.44Z" fill="#EBEBEB"/>
<path d="M231.663 131.566L228.21 119.373L240.403 115.92L243.856 128.113L231.663 131.566ZM228.883 119.757L232.03 130.877L243.15 127.724L239.997 116.604L228.883 119.757Z" fill="#EBEBEB"/>
<path d="M230.001 134.869C229.639 134.724 231.391 129.515 234.588 123.554C237.785 117.594 241.143 113.235 241.454 113.457C241.766 113.68 239.008 118.345 235.894 124.238C232.781 130.132 230.379 135.025 230.001 134.869Z" fill="#E0E0E0"/>
<path d="M246.353 129.971C246.091 130.299 241.615 127.102 235.822 123.621C230.028 120.141 225.124 117.644 225.291 117.26C225.458 116.877 230.696 118.823 236.567 122.381C242.438 125.94 246.597 129.676 246.353 129.971Z" fill="#E0E0E0"/>
<path d="M259.791 239.636C259.791 239.714 205.22 239.781 137.927 239.781C70.6342 239.781 16.0461 239.686 16.0461 239.636C16.0461 239.586 70.6064 239.491 137.927 239.491C205.247 239.491 259.791 239.525 259.791 239.636Z" fill="black"/>
<path d="M188.15 42.9399H45.364V187.789H188.15V42.9399Z" fill="white"/>
<path d="M188.15 187.789C188.15 187.789 188.15 187.722 188.15 187.611C188.15 187.5 188.15 187.322 188.15 187.1C188.15 186.649 188.15 185.988 188.15 185.098C188.15 183.33 188.15 180.722 188.123 177.314C188.123 170.509 188.084 160.534 188.056 147.846C188.028 122.509 187.984 86.3246 187.928 42.9399L188.178 43.1901L45.4085 43.229L45.6976 42.9399C45.6976 96.0212 45.6976 145.744 45.6587 187.783L45.4085 187.539L148.858 187.661L177.887 187.728L185.548 187.756H187.522H188.023H188.195H187.55H185.604L177.987 187.783L149.019 187.85L45.4085 187.972H45.1583V187.722C45.1583 145.683 45.1583 95.9823 45.1194 42.8787V42.5896H45.4252L188.195 42.6285H188.451V42.8787C188.395 86.3301 188.351 122.565 188.323 147.963C188.289 160.628 188.267 170.581 188.256 177.375C188.256 180.756 188.256 183.352 188.223 185.109C188.223 185.976 188.223 186.638 188.223 187.083V187.578C188.207 187.651 188.183 187.722 188.15 187.789Z" fill="#263238"/>
<path d="M56.5729 66.5642V70.4062H55.8557V67.1647H55.0439V66.5642H56.5729Z" fill="black"/>
<path d="M57.3125 69.9892C57.3125 69.93 57.3241 69.8715 57.3468 69.8168C57.3694 69.7622 57.4026 69.7125 57.4444 69.6707C57.4862 69.6289 57.5359 69.5957 57.5905 69.5731C57.6452 69.5505 57.7037 69.5388 57.7629 69.5388C57.822 69.5388 57.8806 69.5505 57.9352 69.5731C57.9898 69.5957 58.0395 69.6289 58.0813 69.6707C58.1231 69.7125 58.1563 69.7622 58.1789 69.8168C58.2016 69.8715 58.2132 69.93 58.2132 69.9892C58.2132 70.0483 58.2016 70.1069 58.1789 70.1615C58.1563 70.2162 58.1231 70.2658 58.0813 70.3076C58.0395 70.3495 57.9898 70.3826 57.9352 70.4053C57.8806 70.4279 57.822 70.4395 57.7629 70.4395C57.7037 70.4395 57.6452 70.4279 57.5905 70.4053C57.5359 70.3826 57.4862 70.3495 57.4444 70.3076C57.4026 70.2658 57.3694 70.2162 57.3468 70.1615C57.3241 70.1069 57.3125 70.0483 57.3125 69.9892Z" fill="black"/>
<path d="M104.45 51.0352C104.431 50.6226 104.536 50.2138 104.752 49.8615C104.967 49.5091 105.283 49.2294 105.659 49.0582C106.035 48.8871 106.454 48.8324 106.861 48.9012C107.268 48.97 107.645 49.1592 107.944 49.4443C108.243 49.7295 108.45 50.0975 108.537 50.5011C108.625 50.9047 108.59 51.3253 108.437 51.7088C108.283 52.0922 108.019 52.421 107.677 52.6527C107.335 52.8845 106.931 53.0085 106.518 53.009C106.251 53.0226 105.984 52.9815 105.733 52.8884C105.482 52.7952 105.253 52.6519 105.06 52.4672C104.866 52.2824 104.712 52.0602 104.607 51.8139C104.503 51.5677 104.449 51.3027 104.45 51.0352ZM107.87 51.0352C107.87 50.7679 107.79 50.5067 107.642 50.2845C107.493 50.0624 107.282 49.8892 107.036 49.7869C106.789 49.6847 106.517 49.6579 106.255 49.71C105.993 49.7622 105.752 49.8908 105.563 50.0798C105.374 50.2687 105.245 50.5095 105.193 50.7716C105.141 51.0337 105.168 51.3053 105.27 51.5522C105.373 51.7991 105.546 52.0101 105.768 52.1585C105.99 52.307 106.251 52.3862 106.518 52.3862C106.697 52.3909 106.874 52.359 107.04 52.2927C107.206 52.2263 107.356 52.1269 107.482 52.0004C107.608 51.874 107.707 51.7231 107.773 51.5572C107.838 51.3912 107.869 51.2136 107.864 51.0352H107.87Z" fill="black"/>
<path d="M112.757 49.1169V52.9589H112.173L110.055 50.3568V52.9589H109.343V49.1169H109.932L112.051 51.7079V49.1169H112.757Z" fill="black"/>
<path d="M113.791 49.1169H114.503V52.3529H116.515V52.9589H113.791V49.1169Z" fill="black"/>
<path d="M117.077 49.1169H117.789V52.9589H117.077V49.1169Z" fill="black"/>
<path d="M122.242 49.1169V52.9589H121.653L119.54 50.3568V52.9589H118.834V49.1169H119.423L121.536 51.7079V49.1169H122.242Z" fill="black"/>
<path d="M126.156 52.3584V52.9589H123.271V49.1169H126.051V49.7119H123.988V50.7127H125.845V51.2965H123.988V52.3584H126.156Z" fill="black"/>
<path d="M129.242 49.7174H127.969V49.1169H131.216V49.7174H129.943V52.9589H129.226L129.242 49.7174Z" fill="black"/>
<path d="M134.652 52.3584V52.9589H131.772V49.1169H134.552V49.7119H132.461V50.7127H134.313V51.2965H132.461V52.3584H134.652Z" fill="black"/>
<path d="M135.108 52.5531L135.358 51.9971C135.725 52.2696 136.169 52.4177 136.626 52.4197C137.226 52.4197 137.476 52.2028 137.476 51.9193C137.476 51.0908 135.191 51.6357 135.191 50.2068C135.191 49.5841 135.686 49.0614 136.743 49.0614C137.192 49.0532 137.635 49.1706 138.021 49.4006L137.793 49.9566C137.475 49.763 137.11 49.6574 136.737 49.6508C136.142 49.6508 135.903 49.8843 135.903 50.1734C135.903 50.9908 138.177 50.457 138.177 51.8692C138.177 52.4864 137.677 52.9812 136.626 52.9812C136.087 53.0059 135.554 52.8557 135.108 52.5531Z" fill="black"/>
<path d="M139.623 49.7174H138.349V49.1169H141.608V49.7174H140.334V52.9589H139.623V49.7174Z" fill="black"/>
<path d="M74.3649 83.4445H72.4411L72.063 84.3341H71.3291L73.0583 80.4922H73.7588L75.4935 84.3341H74.7485L74.3649 83.4445ZM74.1258 82.8885L73.403 81.2205L72.6857 82.8885H74.1258Z" fill="black"/>
<path d="M54.9996 52.9533C55.8625 52.9533 56.562 52.2538 56.562 51.391C56.562 50.5281 55.8625 49.8286 54.9996 49.8286C54.1367 49.8286 53.4373 50.5281 53.4373 51.391C53.4373 52.2538 54.1367 52.9533 54.9996 52.9533Z" fill="black"/>
<path d="M59.7311 52.9533C60.5939 52.9533 61.2934 52.2538 61.2934 51.391C61.2934 50.5281 60.5939 49.8286 59.7311 49.8286C58.8682 49.8286 58.1687 50.5281 58.1687 51.391C58.1687 52.2538 58.8682 52.9533 59.7311 52.9533Z" fill="black"/>
<path d="M64.4625 52.9533C65.3254 52.9533 66.0249 52.2538 66.0249 51.391C66.0249 50.5281 65.3254 49.8286 64.4625 49.8286C63.5996 49.8286 62.9001 50.5281 62.9001 51.391C62.9001 52.2538 63.5996 52.9533 64.4625 52.9533Z" fill="black"/>
<path d="M188.15 59.1194C188.15 59.1973 156.347 59.264 117.121 59.264C77.8957 59.264 46.0869 59.1973 46.0869 59.1194C46.0869 59.0416 77.8846 58.9749 117.121 58.9749C156.358 58.9749 188.15 59.0416 188.15 59.1194Z" fill="black"/>
<path d="M172.538 69.8614C172.538 69.9392 147.779 70.0059 117.244 70.0059C86.7083 70.0059 61.9385 69.9392 61.9385 69.8614C61.9385 69.7835 86.6972 69.7168 117.244 69.7168C147.79 69.7168 172.538 69.778 172.538 69.8614Z" fill="black"/>
<path d="M104.617 73.6199C104.617 73.6977 95.165 73.7645 83.489 73.7645C71.813 73.7645 62.3276 73.6977 62.3276 73.6199C62.3276 73.5421 71.7796 73.4753 83.489 73.4753C95.1984 73.4753 104.617 73.5365 104.617 73.6199Z" fill="black"/>
<path d="M68.3879 84.9402H63.3228V79.875H68.3879V84.9402ZM63.8788 84.3842H67.8319V80.431H63.8788V84.3842Z" fill="black"/>
<path d="M75.26 92.9077C75.26 93.5638 74.7429 93.9474 73.7533 93.9474H71.8462V90.1055H73.6421C74.565 90.1055 75.0599 90.4947 75.0599 91.1063C75.0656 91.2795 75.0222 91.4508 74.9347 91.6004C74.8471 91.7499 74.7189 91.8717 74.565 91.9514C74.7718 92.0089 74.9531 92.1348 75.0792 92.3084C75.2054 92.482 75.2691 92.6933 75.26 92.9077ZM72.5579 90.6837V91.7401H73.5698C74.0591 91.7401 74.3426 91.5677 74.3426 91.2175C74.3426 90.8672 74.0591 90.6615 73.5698 90.6615L72.5579 90.6837ZM74.5372 92.8521C74.5372 92.4685 74.2481 92.2961 73.7088 92.2961H72.5579V93.4081H73.7088C74.2481 93.4081 74.5372 93.2191 74.5372 92.8521Z" fill="black"/>
<path d="M68.3879 94.559H63.3228V89.5161H68.3879V94.559ZM63.8788 94.003H67.8319V90.0721H63.8788V94.003Z" fill="black"/>
<path d="M71.5684 101.642C71.5883 101.236 71.7269 100.845 71.9669 100.517C72.207 100.188 72.5381 99.9377 72.9191 99.7957C73.3002 99.6537 73.7145 99.6265 74.1109 99.7176C74.5072 99.8086 74.8681 100.014 75.149 100.308L74.6875 100.742C74.5582 100.597 74.3994 100.483 74.222 100.405C74.0446 100.327 73.8526 100.289 73.6589 100.291C73.3006 100.291 72.9569 100.434 72.7036 100.687C72.4502 100.94 72.3078 101.284 72.3078 101.642C72.3078 102.001 72.4502 102.344 72.7036 102.598C72.9569 102.851 73.3006 102.993 73.6589 102.993C73.8531 102.996 74.0456 102.957 74.2232 102.878C74.4007 102.799 74.5591 102.683 74.6875 102.537L75.149 102.977C74.8681 103.271 74.5072 103.476 74.1109 103.567C73.7145 103.658 73.3002 103.631 72.9191 103.489C72.5381 103.347 72.207 103.096 71.9669 102.768C71.7269 102.44 71.5883 102.048 71.5684 101.642Z" fill="black"/>
<path d="M68.3879 104.172H63.3228V99.1069H68.3879V104.172ZM63.8788 103.616H67.8319V99.6629H63.8788V103.616Z" fill="black"/>
<path d="M71.8462 109.337H73.5142C74.7596 109.337 75.6103 110.105 75.6103 111.256C75.6103 112.407 74.7596 113.179 73.5142 113.179H71.8462V109.337ZM73.5142 112.573C73.6941 112.585 73.8744 112.56 74.0441 112.499C74.2138 112.438 74.3692 112.343 74.5008 112.22C74.6323 112.097 74.7371 111.948 74.8088 111.782C74.8805 111.617 74.9175 111.439 74.9175 111.258C74.9175 111.078 74.8805 110.9 74.8088 110.734C74.7371 110.569 74.6323 110.42 74.5008 110.297C74.3692 110.174 74.2138 110.079 74.0441 110.018C73.8744 109.957 73.6941 109.932 73.5142 109.943H72.5579V112.573H73.5142Z" fill="black"/>
<path d="M68.3879 113.791H63.3228V108.726H68.3879V113.791ZM63.8788 113.235H67.8319V109.282H63.8788V113.235Z" fill="black"/>
<path d="M117.238 82.4104C117.238 82.4883 108.898 82.555 98.5787 82.555C88.2594 82.555 79.9138 82.4883 79.9138 82.4104C79.9138 82.3326 88.2538 82.2659 98.5787 82.2659C108.904 82.2659 117.238 82.327 117.238 82.4104Z" fill="black"/>
<path d="M168.613 92.0235C168.613 92.1069 148.752 92.168 124.266 92.168C99.7797 92.168 79.9138 92.1069 79.9138 92.0235C79.9138 91.9401 99.7686 91.8789 124.266 91.8789C148.763 91.8789 168.613 91.9456 168.613 92.0235Z" fill="black"/>
<path d="M92.118 111.256C92.118 111.333 89.388 111.4 86.002 111.4C82.6159 111.4 79.886 111.333 79.886 111.256C79.886 111.178 82.6159 111.111 86.002 111.111C89.388 111.111 92.118 111.2 92.118 111.256Z" fill="black"/>
<path d="M124.26 101.642C124.26 101.72 114.336 101.787 102.087 101.787C89.8384 101.787 79.9138 101.72 79.9138 101.642C79.9138 101.565 89.8384 101.498 102.087 101.498C114.336 101.498 124.26 101.559 124.26 101.642Z" fill="black"/>
<path d="M56.7121 124.944V125.545H53.8765V125.067L55.4055 123.621C55.778 123.265 55.8447 123.037 55.8447 122.826C55.8447 122.47 55.6001 122.27 55.1275 122.27C54.9573 122.261 54.7874 122.293 54.6318 122.362C54.4762 122.432 54.3393 122.537 54.2323 122.67L53.7319 122.287C53.9082 122.074 54.1317 121.905 54.3846 121.794C54.6375 121.683 54.9128 121.633 55.1887 121.647C56.0227 121.647 56.562 122.07 56.562 122.759C56.556 122.996 56.4957 123.229 56.3859 123.439C56.276 123.649 56.1194 123.831 55.9281 123.971L54.8995 124.95L56.7121 124.944Z" fill="black"/>
<path d="M57.1289 125.128C57.1289 125.008 57.1764 124.894 57.2608 124.809C57.3453 124.725 57.4598 124.677 57.5793 124.677C57.6987 124.677 57.8133 124.725 57.8977 124.809C57.9822 124.894 58.0296 125.008 58.0296 125.128C58.0296 125.247 57.9822 125.362 57.8977 125.446C57.8133 125.531 57.6987 125.578 57.5793 125.578C57.4598 125.578 57.3453 125.531 57.2608 125.446C57.1764 125.362 57.1289 125.247 57.1289 125.128Z" fill="black"/>
<path d="M73.0194 138.583H71.1012L70.7231 139.473H69.9836L71.7128 135.631H72.4189L74.1536 139.473H73.3919L73.0194 138.583ZM72.7859 138.027L72.0631 136.359L71.3403 138.027H72.7859Z" fill="black"/>
<path d="M171.192 125C171.192 125.078 146.434 125.145 115.898 125.145C85.3627 125.145 60.604 125.1 60.604 125C60.604 124.9 85.3571 124.855 115.904 124.855C146.45 124.855 171.192 124.922 171.192 125Z" fill="black"/>
<path d="M103.277 128.759C103.277 128.836 93.8251 128.903 82.1157 128.903C70.4063 128.903 60.9543 128.836 60.9543 128.759C60.9543 128.681 70.4063 128.614 82.1157 128.614C93.8251 128.614 103.277 128.675 103.277 128.759Z" fill="black"/>
<path d="M67.0202 140.112H61.9551V135.047H67.0202V140.112ZM62.5111 139.556H66.4642V135.603H62.5111V139.556Z" fill="black"/>
<path d="M73.9146 148.046C73.9146 148.702 73.3975 149.086 72.4134 149.086H70.5007V145.244H72.2799C73.2029 145.244 73.6977 145.633 73.6977 146.245C73.7022 146.418 73.6582 146.588 73.5708 146.738C73.4834 146.887 73.3559 147.009 73.2029 147.09C73.4133 147.143 73.5989 147.267 73.7285 147.442C73.8581 147.616 73.9238 147.829 73.9146 148.046ZM71.218 145.822V146.884H72.2243C72.7192 146.884 72.9972 146.706 72.9972 146.356C72.9972 146.006 72.7192 145.8 72.2243 145.8L71.218 145.822ZM73.1973 147.991C73.1973 147.607 72.9082 147.435 72.3689 147.435H71.218V148.547H72.3689C72.9082 148.53 73.1973 148.357 73.1973 147.974V147.991Z" fill="black"/>
<path d="M67.0202 149.697H61.9551V144.632H67.0202V149.697ZM62.5111 149.141H66.4642V145.188H62.5111V149.141Z" fill="black"/>
<path d="M70.2284 156.792C70.2257 156.525 70.2778 156.26 70.3813 156.014C70.4849 155.768 70.6377 155.545 70.8304 155.361C71.0231 155.176 71.2516 155.032 71.5019 154.939C71.7522 154.846 72.0188 154.805 72.2856 154.818C72.57 154.807 72.8536 154.858 73.1159 154.968C73.3783 155.079 73.6131 155.246 73.8035 155.458L73.3475 155.891C73.2177 155.748 73.0589 155.633 72.8816 155.556C72.7043 155.478 72.5125 155.439 72.3189 155.441C71.9606 155.441 71.6169 155.583 71.3636 155.837C71.1102 156.09 70.9678 156.434 70.9678 156.792C70.9678 157.15 71.1102 157.494 71.3636 157.747C71.6169 158.001 71.9606 158.143 72.3189 158.143C72.5131 158.145 72.7054 158.106 72.8829 158.027C73.0604 157.949 73.2189 157.833 73.3475 157.687L73.8035 158.126C73.5233 158.421 73.1627 158.627 72.7665 158.719C72.3702 158.81 71.9559 158.783 71.5749 158.641C71.1939 158.499 70.8632 158.247 70.6237 157.919C70.3843 157.59 70.2468 157.198 70.2284 156.792Z" fill="black"/>
<path d="M67.0202 159.311H61.9551V154.246H67.0202V159.311ZM62.5111 158.755H66.4642V154.802H62.5111V158.755Z" fill="black"/>
<path d="M70.5007 164.476H72.1687C73.4142 164.476 74.2649 165.243 74.2649 166.4C74.2649 167.556 73.4142 168.318 72.1687 168.318H70.5007V164.476ZM72.1687 167.717C72.352 167.734 72.5367 167.713 72.7111 167.654C72.8855 167.595 73.0458 167.501 73.1817 167.377C73.3177 167.253 73.4262 167.102 73.5005 166.934C73.5748 166.766 73.6132 166.584 73.6132 166.4C73.6132 166.216 73.5748 166.034 73.5005 165.865C73.4262 165.697 73.3177 165.546 73.1817 165.422C73.0458 165.298 72.8855 165.204 72.7111 165.145C72.5367 165.087 72.352 165.065 72.1687 165.082H71.2402V167.717H72.1687Z" fill="black"/>
<path d="M67.0202 168.929H61.9551V163.864H67.0202V168.929ZM62.5111 168.373H66.4642V164.42H62.5111V168.373Z" fill="black"/>
<path d="M115.898 137.549C115.898 137.627 107.558 137.693 97.2333 137.693C86.9084 137.693 78.5684 137.627 78.5684 137.549C78.5684 137.471 86.9084 137.404 97.2333 137.404C107.558 137.404 115.898 137.471 115.898 137.549Z" fill="black"/>
<path d="M167.267 147.162C167.267 147.246 147.412 147.307 122.92 147.307C98.4287 147.307 78.5684 147.246 78.5684 147.162C78.5684 147.079 98.4231 147.018 122.92 147.018C147.418 147.018 167.267 147.084 167.267 147.162Z" fill="black"/>
<path d="M90.7781 166.394C90.7781 166.477 88.0426 166.539 84.6621 166.539C81.2817 166.539 78.5461 166.477 78.5461 166.394C78.5461 166.311 81.2817 166.25 84.6621 166.25C88.0426 166.25 90.7781 166.316 90.7781 166.394Z" fill="black"/>
<path d="M122.92 156.792C122.92 156.87 112.99 156.937 100.747 156.937C88.5041 156.937 78.5684 156.87 78.5684 156.792C78.5684 156.714 88.4985 156.647 100.747 156.647C112.996 156.647 122.92 156.698 122.92 156.792Z" fill="black"/>
<path d="M158.827 179.588H135.936C135.014 179.588 134.1 179.406 133.248 179.053C132.395 178.7 131.621 178.182 130.969 177.529C130.317 176.877 129.8 176.102 129.447 175.249C129.094 174.397 128.913 173.483 128.914 172.56C128.914 170.698 129.654 168.912 130.971 167.595C132.288 166.278 134.074 165.538 135.936 165.538H158.827C160.689 165.538 162.475 166.278 163.792 167.595C165.109 168.912 165.849 170.698 165.849 172.56C165.85 173.483 165.669 174.397 165.316 175.249C164.964 176.102 164.446 176.877 163.794 177.529C163.142 178.182 162.368 178.7 161.515 179.053C160.663 179.406 159.75 179.588 158.827 179.588Z" fill="#F5F5F5"/>
<path d="M141.652 170.892V174.712H140.924L139 172.393V174.712H138.127V170.892H138.855L140.751 173.211V170.892H141.652Z" fill="white"/>
<path d="M145.511 174.028V174.74H142.553V170.92H145.438V171.632H143.448V172.46H145.222V173.144H143.448V174.028H145.511Z" fill="white"/>
<path d="M148.58 174.712L147.657 173.389L146.751 174.712H145.739L147.151 172.771L145.811 170.892H146.812L147.69 172.132L148.552 170.892H149.508L148.174 172.738L149.603 174.712H148.58Z" fill="white"/>
<path d="M150.676 171.615H149.453V170.892H152.789V171.615H151.566V174.712H150.676V171.615Z" fill="white"/>
<path d="M157.62 174.423C157.574 174.422 157.528 174.41 157.488 174.388C157.447 174.366 157.412 174.334 157.387 174.295C157.347 174.234 157.332 174.159 157.347 174.087C157.361 174.015 157.404 173.952 157.465 173.911L159.238 172.727C159.267 172.71 159.29 172.685 159.305 172.656C159.321 172.626 159.328 172.593 159.327 172.56C159.327 172.527 159.319 172.494 159.302 172.464C159.285 172.435 159.262 172.411 159.233 172.393L157.476 171.354C157.414 171.315 157.369 171.254 157.352 171.184C157.334 171.113 157.345 171.038 157.383 170.975C157.42 170.913 157.48 170.867 157.551 170.848C157.621 170.83 157.696 170.839 157.759 170.876L159.516 171.91C159.626 171.976 159.717 172.068 159.782 172.179C159.846 172.29 159.882 172.415 159.885 172.543C159.889 172.671 159.86 172.798 159.801 172.911C159.742 173.025 159.656 173.122 159.55 173.194L157.776 174.373C157.73 174.404 157.676 174.422 157.62 174.423Z" fill="white"/>
<path d="M62.6946 94.4699C62.5278 94.3031 63.6009 92.952 65.0965 91.4508C66.5921 89.9496 67.9432 88.8821 68.1156 89.0489C68.2879 89.2157 67.2093 90.5723 65.7137 92.068C64.218 93.5636 62.8669 94.6423 62.6946 94.4699Z" fill="#F5F5F5"/>
<path d="M69.0384 94.9982C68.8716 95.1705 67.4316 94.0029 65.8248 92.3961C64.2179 90.7892 63.0448 89.3548 63.2227 89.1824C63.4006 89.01 64.8351 90.1776 66.4364 91.7845C68.0376 93.3913 69.2108 94.8314 69.0384 94.9982Z" fill="#F5F5F5"/>
<path d="M61.4768 140.357C61.3045 140.184 62.3831 138.833 63.8788 137.337C65.3744 135.842 66.7255 134.769 66.8978 134.936C67.0702 135.102 65.9916 136.453 64.4904 137.955C62.9892 139.456 61.6436 140.523 61.4768 140.357Z" fill="#F5F5F5"/>
<path d="M67.8319 140.885C67.6595 141.052 66.2251 139.89 64.6182 138.283C63.0114 136.676 61.8382 135.236 62.0161 135.069C62.1941 134.902 63.623 136.064 65.2298 137.671C66.8367 139.278 67.9876 140.713 67.8319 140.885Z" fill="#F5F5F5"/>
<path d="M169.313 253.28L130.276 240.748C130.172 240.716 130.063 240.702 129.954 240.709L99.9299 242.933C94.6535 230.145 88.0427 214.16 85.0347 206.86C84.5335 205.663 83.726 204.619 82.6933 203.833C81.6607 203.048 80.4394 202.548 79.1522 202.384L46.6374 198.136C46.2508 198.089 45.8586 198.145 45.5001 198.297C45.1417 198.449 44.8294 198.693 44.5947 199.003C44.36 199.314 44.2109 199.681 44.1625 200.067C44.1141 200.454 44.168 200.846 44.3188 201.205L62.6279 243.9C62.8703 244.467 63.2277 244.977 63.6776 245.398C64.1274 245.819 64.6598 246.142 65.2411 246.347L102.432 261.187C103.282 261.525 104.203 261.648 105.112 261.542L107.492 261.281C115.731 260.419 156.42 256.277 169.146 254.943C169.348 254.932 169.539 254.85 169.686 254.71C169.832 254.571 169.923 254.384 169.943 254.183C169.964 253.982 169.911 253.78 169.796 253.615C169.68 253.449 169.509 253.331 169.313 253.28Z" fill="#E0E0E0"/>
<path d="M169.313 253.28C169.443 253.322 169.562 253.394 169.658 253.491C169.755 253.588 169.827 253.706 169.869 253.836C169.92 254.001 169.921 254.176 169.872 254.341C169.824 254.506 169.728 254.654 169.597 254.765C169.421 254.9 169.207 254.974 168.985 254.976L168.251 255.054L159.116 256.021L125.511 259.519L114.391 260.675L108.47 261.287L105.429 261.615C104.375 261.779 103.297 261.654 102.31 261.253L77.4341 251.345L70.7899 248.693L67.4039 247.348L65.697 246.669C65.4134 246.547 65.141 246.447 64.8352 246.319C64.5442 246.19 64.2683 246.03 64.0123 245.841C63.4974 245.46 63.066 244.977 62.7446 244.423C62.4332 243.867 62.2331 243.283 61.9773 242.711L60.4928 239.258C59.4957 236.945 58.4931 234.608 57.4848 232.247C53.4427 222.795 49.2505 213.054 44.9637 203.057L44.3744 201.683C44.1252 201.227 43.997 200.714 44.0018 200.193C44.0338 199.663 44.2422 199.159 44.5939 198.761C44.9455 198.363 45.4202 198.094 45.9423 197.997C46.0702 197.969 46.2036 197.997 46.337 197.958L46.7207 197.986L47.4546 198.086L48.9169 198.275L51.8303 198.653L63.3284 200.16L74.5596 201.628L77.3396 201.989C78.257 202.128 79.1744 202.189 80.1196 202.406C81.9459 202.877 83.5316 204.011 84.5676 205.587C85.031 206.371 85.42 207.198 85.7296 208.055C86.0707 208.886 86.4117 209.712 86.7527 210.535L88.771 215.433L92.7074 224.974C95.2762 231.213 97.7504 237.206 100.102 242.911L99.9799 242.833L129.237 240.67L130.048 240.609C130.195 240.607 130.34 240.634 130.477 240.687L130.86 240.815L132.328 241.304L135.286 242.255L140.863 244.084L150.704 247.259L164.465 251.707L168.079 252.891C168.896 253.158 169.313 253.302 169.313 253.302C169.313 253.302 168.891 253.18 168.068 252.924L164.443 251.779L150.676 247.364L140.829 244.217L135.214 242.416L132.256 241.471L130.738 240.987C130.499 240.889 130.249 240.824 129.993 240.792L129.181 240.854L99.9299 243.078H99.8465L99.8076 242.994C97.4501 237.295 94.9759 231.318 92.3961 225.069L88.454 215.528C87.7868 213.912 87.1122 212.279 86.4302 210.629C86.091 209.807 85.7463 208.961 85.4072 208.15C85.1021 207.31 84.7205 206.501 84.2674 205.731C83.2744 204.218 81.7545 203.128 80.0028 202.673C79.1355 202.462 78.2014 202.395 77.2896 202.262L74.5096 201.9L63.2728 200.438L51.7747 198.937L48.8557 198.559L47.3934 198.364C46.9253 198.27 46.4464 198.24 45.9701 198.275C45.5124 198.362 45.0967 198.599 44.7887 198.948C44.4806 199.298 44.2976 199.74 44.2687 200.204C44.2653 200.681 44.386 201.151 44.619 201.567L45.225 202.94L57.7406 232.136C58.7525 234.493 59.7533 236.83 60.743 239.147C61.2434 240.303 61.7327 241.454 62.2275 242.599C62.4777 243.155 62.6946 243.767 62.9837 244.267C63.2834 244.788 63.6887 245.241 64.1735 245.596C64.4141 245.774 64.6732 245.925 64.9464 246.047C65.2132 246.163 65.5024 246.269 65.7915 246.386L67.4984 247.07L70.8789 248.421L77.5509 251.073L102.415 261.009C103.365 261.398 104.404 261.519 105.418 261.359L108.464 261.031L114.386 260.43L125.506 259.318L159.122 255.91L168.262 254.993L168.996 254.926C169.208 254.926 169.415 254.857 169.586 254.731C169.712 254.626 169.805 254.487 169.853 254.33C169.902 254.173 169.903 254.005 169.858 253.847C169.805 253.651 169.677 253.484 169.502 253.38C169.38 253.308 169.313 253.286 169.313 253.28Z" fill="#263238"/>
<path d="M119.073 245.552L133.712 251.679L151.955 249.777L136.615 243.445L119.073 245.552Z" fill="#F5F5F5"/>
<path d="M108.036 257.133L136.615 254.553L109.326 243.734L100.552 244.395L105.19 255.582L108.036 257.133Z" fill="#F5F5F5"/>
<path d="M166.483 253.264L166.288 253.297L165.705 253.369L163.481 253.597L155.219 254.403L127.975 256.944L106.557 258.879H106.468L106.435 258.796L101.692 247.225L100.391 243.99C100.247 243.619 100.136 243.335 100.058 243.139C100.017 243.041 99.9818 242.941 99.9521 242.839C99.9521 242.839 100.002 242.933 100.091 243.122L100.458 243.962L101.82 247.17C102.988 249.95 104.656 253.925 106.658 258.707L106.535 258.629L127.947 256.644L155.219 254.187L163.464 253.486L165.688 253.308L166.272 253.269L166.483 253.264Z" fill="black"/>
<path d="M45.2639 199.682H45.5086L46.2314 199.765L49.0114 200.127L59.2084 201.517C63.5118 202.117 68.6604 202.84 74.326 203.68L78.6851 204.352L79.7971 204.541C79.9806 204.569 80.1752 204.614 80.3531 204.658C80.4476 204.658 80.5477 204.697 80.6422 204.725C81.1111 204.913 81.5368 205.195 81.8932 205.553C82.0376 205.707 82.1526 205.886 82.2324 206.081L82.4492 206.637C83.6112 209.54 84.8122 212.548 86.0465 215.622C90.9616 227.938 95.404 239.091 98.6288 247.175C100.225 251.206 101.514 254.476 102.415 256.744C102.849 257.856 103.188 258.746 103.427 259.357C103.538 259.646 103.622 259.869 103.683 260.036C103.714 260.112 103.74 260.19 103.761 260.269C103.721 260.197 103.686 260.123 103.655 260.047L103.371 259.374L102.31 256.789C101.392 254.52 100.086 251.268 98.4175 247.248L85.8074 215.728C84.5731 212.653 83.3722 209.645 82.2101 206.743L81.9933 206.187C81.9263 206.023 81.8302 205.872 81.7097 205.742C81.4611 205.472 81.1604 205.254 80.8257 205.103C80.7424 205.063 80.6571 205.028 80.5699 204.997L80.303 204.931C80.1251 204.892 79.9472 204.853 79.747 204.825L78.635 204.63L74.276 203.946L59.175 201.722L48.9891 200.238L46.2091 199.826L45.4919 199.71L45.2639 199.682Z" fill="black"/>
<path d="M74.0037 225.241C75.3937 227.104 75.6717 229.244 74.632 230.023C73.5922 230.801 71.6129 229.928 70.2229 228.066C68.8329 226.203 68.5549 224.068 69.5946 223.284C70.6343 222.5 72.6137 223.384 74.0037 225.241Z" fill="white"/>
<path d="M249.911 193.488C248.048 182.924 236.367 176.558 232.508 173.044L238.307 180.8C241.275 193.041 242.4 205.657 241.643 218.23C241.565 219.603 241.715 221.455 242.694 221.649C243.048 221.679 243.399 221.569 243.673 221.344C247.098 219.147 249.321 214.116 249.816 208.934C250.311 203.752 250.756 198.375 249.911 193.488Z" fill="#F5F5F5"/>
<path d="M241.36 181.656C240.804 180.594 241.032 177.208 238.024 180.744L237.829 179.421L219.242 165.132L177.814 167.284C173.839 167.534 167.868 174.417 166.378 177.292C165.154 187.983 164.91 197.474 164.91 197.474C164.91 197.474 163.486 209.362 164.91 214.983C166.333 220.604 168.018 222.633 170.219 227.004C171.831 229.989 173.839 232.742 176.191 235.188L178.126 250.2L221.405 254.092L241.215 252.98C241.215 252.98 239.441 223.373 239.441 222.85C239.441 222.606 241.916 216.89 244.573 210.824C249.088 200.443 246.542 191.675 241.36 181.656Z" fill="#455A64"/>
<path d="M132.673 235.505C132.889 235.505 135.052 220.888 136.47 217.568C137.804 214.438 166.377 177.286 166.377 177.286L173.105 198.97L170.219 210.568L154.651 229.3L150.253 242.877L132.673 235.505Z" fill="#455A64"/>
<path d="M247.12 192.765C245.068 179.76 234.938 180.327 234.938 180.327L224.869 197.847V234.076L176.291 238.279L175.39 250.478C175.39 250.478 223.79 261.542 234.971 257.834C242.371 255.382 248.621 249.194 249.305 239.08C249.989 228.966 249.177 205.776 247.12 192.765Z" fill="#455A64"/>
<path d="M154.701 229.278C154.56 228.449 154.375 227.629 154.145 226.82C153.536 224.877 152.436 223.125 150.952 221.731C149.468 220.337 147.649 219.35 145.672 218.864C144.85 218.679 144.018 218.538 143.181 218.441C143.41 218.414 143.642 218.414 143.871 218.441C144.494 218.467 145.114 218.549 145.722 218.686C147.751 219.135 149.62 220.125 151.133 221.55C152.645 222.975 153.744 224.783 154.312 226.781C154.487 227.38 154.606 227.995 154.668 228.616C154.707 228.834 154.718 229.057 154.701 229.278Z" fill="black"/>
<path d="M177.953 237.779C178.023 237.76 178.093 237.747 178.165 237.74L178.782 237.651L181.161 237.334L189.93 236.222L218.842 232.708L225.269 231.941L225.141 232.08C225.514 222.228 225.697 213.543 225.63 207.321C225.63 204.213 225.564 201.717 225.525 199.999C225.525 199.154 225.486 198.492 225.475 198.031V197.519C225.475 197.402 225.475 197.347 225.475 197.341C225.48 197.4 225.48 197.46 225.475 197.519C225.475 197.647 225.475 197.814 225.508 198.025C225.508 198.492 225.564 199.137 225.603 199.999C225.675 201.711 225.753 204.208 225.797 207.321C225.897 213.543 225.764 222.239 225.402 232.086V232.208H225.28L218.853 232.981L189.913 236.411L181.139 237.418L178.748 237.673L178.126 237.734L177.953 237.779Z" fill="black"/>
<path d="M249.966 237.779C249.974 237.853 249.974 237.927 249.966 238.001C249.966 238.157 249.966 238.374 249.933 238.646C249.883 239.475 249.788 240.301 249.649 241.12C249.431 242.42 249.113 243.7 248.699 244.951C248.131 246.603 247.369 248.182 246.43 249.655C245.287 251.448 243.845 253.032 242.166 254.336C240.236 255.835 238.006 256.899 235.627 257.456C234.347 257.764 233.046 257.981 231.735 258.106C230.371 258.228 229.001 258.28 227.632 258.262C224.76 258.204 221.897 257.936 219.064 257.461L202.656 254.765L195.501 253.575L189.268 252.424C185.47 251.712 182.39 251.173 180.255 250.85L177.792 250.489L177.153 250.4C177.079 250.393 177.006 250.379 176.936 250.356H177.153L177.798 250.422C178.354 250.483 179.199 250.578 180.272 250.728C182.412 251.017 185.498 251.529 189.307 252.213L195.528 253.325L202.69 254.487L219.097 257.167C221.92 257.647 224.775 257.92 227.637 257.984C229.027 257.984 230.384 257.945 231.713 257.839C233.009 257.72 234.295 257.508 235.56 257.205C237.909 256.662 240.112 255.619 242.021 254.147C243.685 252.867 245.117 251.312 246.258 249.549C247.198 248.094 247.965 246.534 248.543 244.901C248.968 243.663 249.3 242.396 249.538 241.109C249.722 240.047 249.833 239.213 249.872 238.646L249.939 238.001C249.943 237.927 249.952 237.852 249.966 237.779Z" fill="black"/>
<path d="M176.641 238.674C176.618 238.6 176.604 238.523 176.597 238.446C176.569 238.274 176.53 238.046 176.491 237.768C176.402 237.145 176.274 236.278 176.119 235.177V235.216L172.438 231.14C171.72 230.117 171.072 229.047 170.497 227.938C169.855 226.675 169.287 225.375 168.796 224.046C167.711 221.041 166.965 217.925 166.572 214.755C166.184 211.324 166.104 207.865 166.333 204.419C166.505 201.25 166.833 198.403 167.145 196.023C167.456 193.644 167.751 191.725 167.962 190.397L168.212 188.873C168.24 188.712 168.262 188.584 168.285 188.478C168.289 188.432 168.3 188.387 168.318 188.345C168.323 188.389 168.323 188.434 168.318 188.478C168.318 188.59 168.318 188.717 168.273 188.879C168.223 189.257 168.162 189.768 168.079 190.413C167.901 191.742 167.64 193.666 167.35 196.051C167.061 198.436 166.8 201.272 166.628 204.441C166.415 207.869 166.501 211.309 166.883 214.722C167.271 217.872 168.002 220.971 169.063 223.962C169.543 225.278 170.1 226.565 170.731 227.815C171.294 228.919 171.927 229.985 172.627 231.007L176.258 235.132L176.558 237.729C176.586 238.012 176.608 238.24 176.63 238.413C176.649 238.499 176.653 238.587 176.641 238.674Z" fill="black"/>
<path d="M232.269 240.025C231.902 239.619 231.566 239.186 231.263 238.73C230.657 237.912 229.806 236.8 228.811 235.616C227.815 234.432 226.876 233.392 226.181 232.658C225.782 232.277 225.41 231.869 225.069 231.435C225.521 231.749 225.939 232.111 226.314 232.514C227.27 233.436 228.174 234.411 229.022 235.433C229.876 236.448 230.676 237.508 231.418 238.607C231.749 239.05 232.034 239.525 232.269 240.025Z" fill="black"/>
<path d="M144.56 237.29C144.148 234.915 141.986 233.064 141.986 233.064C141.986 233.064 140.951 230.173 139.406 229.411C137.86 228.649 136.626 230.173 135.28 229.761C133.935 229.35 131.049 229.244 130.121 229.761C129.192 230.278 128.058 233.164 128.058 233.164C127.122 233.202 126.206 233.449 125.378 233.887C124.676 234.249 124.069 234.771 123.604 235.41C123.201 235.253 122.76 235.222 122.339 235.322C121.918 235.421 121.537 235.646 121.247 235.966C120.683 236.626 120.261 237.394 120.007 238.224L119.273 240.192C119.132 240.492 119.067 240.822 119.084 241.154C119.141 241.426 119.288 241.671 119.502 241.849C119.716 242.027 119.984 242.127 120.263 242.132C120.545 242.134 120.825 242.075 121.084 241.961C121.342 241.847 121.574 241.68 121.764 241.471C122.142 241.097 122.476 240.681 122.759 240.231L122.943 241.521C122.943 241.521 123.248 243.561 124.9 243.684C126.04 243.773 127.274 242.449 127.274 242.449L130.16 242.138L130.571 245.024C130.761 245.58 131.124 246.06 131.608 246.394C132.091 246.729 132.669 246.899 133.256 246.881C134.291 246.881 135.625 245.129 135.625 245.129L138.31 246.158C138.31 246.158 141.402 248.326 142.847 247.603C143.252 247.399 143.574 247.063 143.762 246.65C143.95 246.238 143.992 245.774 143.882 245.335C144.499 244.635 144.987 243.831 145.322 242.961C145.711 241.726 144.994 239.664 144.56 237.29Z" fill="#FFBE9D"/>
<path d="M122.876 241.026C122.759 240.005 122.794 238.973 122.982 237.962C123.078 236.941 123.329 235.94 123.727 234.993C123.805 234.993 123.499 236.344 123.265 238.007C123.032 239.669 122.982 241.026 122.876 241.026Z" fill="#EB996E"/>
<path d="M127.385 238.313C127.561 239.014 127.643 239.736 127.63 240.459C127.689 240.981 127.636 241.51 127.474 242.01C127.313 242.399 127.085 242.566 127.068 242.522C127.052 242.477 127.185 242.305 127.28 241.966C127.375 241.481 127.396 240.984 127.341 240.492C127.256 239.767 127.271 239.034 127.385 238.313Z" fill="#EB996E"/>
<path d="M129.309 237.084C129.365 237.14 128.987 237.64 128.458 238.151C127.93 238.663 127.463 239.074 127.402 239.019C127.341 238.963 127.724 238.463 128.253 237.951C128.781 237.44 129.253 237.028 129.309 237.084Z" fill="#EB996E"/>
<path d="M129.692 231.535C129.755 232.055 129.777 232.58 129.759 233.103C129.759 234.076 129.798 235.41 129.876 236.884C129.954 238.357 130.071 239.692 130.154 240.659C130.233 241.178 130.266 241.702 130.254 242.227C130.101 241.724 130 241.206 129.954 240.681C129.815 239.719 129.67 238.385 129.587 236.901C129.503 235.416 129.515 234.076 129.553 233.103C129.545 232.577 129.592 232.052 129.692 231.535Z" fill="#EB996E"/>
<path d="M140.512 232.642C140.512 232.642 140.39 232.92 140.195 233.42C139.924 234.129 139.709 234.857 139.55 235.599C139.45 236.078 139.345 236.595 139.228 237.145C139.118 237.748 138.954 238.34 138.739 238.913C138.499 239.561 138.094 240.136 137.566 240.581C137.277 240.832 136.933 241.01 136.562 241.102C136.19 241.194 135.803 241.196 135.431 241.109C135.044 241.022 134.694 240.816 134.43 240.52C134.186 240.226 134.03 239.87 133.979 239.491C133.9 238.816 133.887 238.134 133.94 237.457C134.003 236.319 134.178 235.19 134.463 234.087C134.654 233.344 134.899 232.615 135.197 231.908C135.303 231.657 135.386 231.468 135.453 231.352C135.481 231.284 135.518 231.22 135.564 231.163C135.495 231.433 135.407 231.699 135.303 231.958C135.047 232.673 134.834 233.403 134.663 234.143C134.41 235.239 134.258 236.355 134.207 237.479C134.163 238.135 134.18 238.794 134.257 239.447C134.303 239.774 134.437 240.082 134.647 240.337C134.873 240.585 135.17 240.76 135.497 240.837C135.827 240.913 136.171 240.91 136.499 240.828C136.828 240.745 137.132 240.587 137.388 240.364C137.884 239.948 138.266 239.412 138.5 238.808C138.849 237.737 139.137 236.647 139.361 235.544C139.536 234.797 139.782 234.069 140.095 233.37C140.182 233.179 140.28 232.993 140.39 232.814C140.457 232.697 140.501 232.636 140.512 232.642Z" fill="#EB996E"/>
<path d="M141.602 233.893C141.524 234.509 141.252 235.085 140.825 235.537C140.398 235.988 139.839 236.293 139.228 236.406C139.715 236.084 140.178 235.727 140.612 235.338C140.978 234.882 141.309 234.398 141.602 233.893Z" fill="#EB996E"/>
<path d="M135.631 241.082C135.813 241.853 135.86 242.651 135.77 243.439C135.74 244.14 135.641 244.837 135.475 245.518V245.557C135.454 245.568 135.431 245.574 135.408 245.575C135.384 245.575 135.361 245.571 135.339 245.561C135.318 245.551 135.299 245.537 135.284 245.519C135.269 245.501 135.258 245.48 135.252 245.457C135.252 245.402 135.252 245.379 135.252 245.379C135.252 245.379 135.252 245.407 135.291 245.429C135.33 245.452 135.369 245.474 135.386 245.429L135.353 245.474C135.353 245.096 135.436 244.306 135.486 243.395C135.48 242.621 135.528 241.848 135.631 241.082Z" fill="#EB996E"/>
<path d="M142.175 238.78C141.96 239.133 141.707 239.462 141.419 239.758C140.781 240.499 140.222 241.304 139.751 242.16C139.281 243.015 139.015 243.966 138.972 244.94C138.972 245.691 139.1 246.147 139.05 246.158C138.855 245.782 138.758 245.363 138.766 244.94C138.75 243.92 139.001 242.914 139.495 242.021C139.985 241.143 140.591 240.335 141.296 239.619C141.552 239.303 141.847 239.021 142.175 238.78Z" fill="#EB996E"/>
<path d="M141.035 243.906C140.861 243.281 140.89 242.617 141.118 242.009C141.346 241.402 141.76 240.882 142.303 240.526C144.243 239.147 150.053 235.522 150.175 235.522C150.298 235.522 156.998 233.298 159.817 233.008C162.635 232.719 174.973 238.846 174.973 238.846C174.973 238.846 177.836 242.972 177.375 246.931C176.914 250.889 174.334 251.117 174.334 251.117L170.753 250.244L167.061 249.538C167.061 249.538 158.894 251.812 157.609 251.395C156.325 250.978 155.88 249.583 157.27 248.827C158.66 248.071 162.658 246.886 162.658 246.886L165.732 245.585L155.724 247.014C155.724 247.014 147.262 248.682 146.272 248.449C145.283 248.215 145.133 247.476 145.049 246.781C145.049 246.781 141.641 248.449 140.629 247.537C139.617 246.625 139.172 244.64 141.035 243.906Z" fill="#FFBE9D"/>
<path d="M162.635 241.471C162.387 241.511 162.136 241.524 161.885 241.51C161.407 241.51 160.712 241.51 159.855 241.565C158.857 241.611 157.864 241.75 156.892 241.982C156.319 242.128 155.76 242.327 155.224 242.577C154.668 242.833 154.112 243.133 153.556 243.467C152.989 243.791 152.398 244.072 151.788 244.306C151.218 244.517 150.621 244.646 150.014 244.69C149.015 244.69 148.019 244.802 147.045 245.024C146.409 245.226 145.848 245.613 145.433 246.136C145.292 246.339 145.168 246.552 145.06 246.775C145.06 246.775 145.06 246.703 145.094 246.58C145.151 246.401 145.234 246.231 145.338 246.074C145.739 245.497 146.314 245.062 146.979 244.834C147.963 244.577 148.975 244.441 149.992 244.429C151.202 244.287 152.366 243.875 153.395 243.222C153.951 242.905 154.507 242.583 155.096 242.321C155.645 242.071 156.217 241.874 156.803 241.732C157.793 241.501 158.806 241.379 159.822 241.371C160.689 241.371 161.384 241.371 161.868 241.404C162.125 241.402 162.382 241.424 162.635 241.471Z" fill="#EB996E"/>
<path d="M159.611 237.251C159.553 237.289 159.492 237.321 159.427 237.345C159.311 237.401 159.127 237.473 158.871 237.557C158.189 237.767 157.492 237.927 156.786 238.035C155.902 238.19 154.835 238.307 153.701 238.591C152.478 238.96 151.305 239.473 150.203 240.12C148.152 241.261 146.009 242.232 143.798 243.022C142.953 243.322 142.258 243.545 141.774 243.689C141.529 243.778 141.276 243.843 141.018 243.884C141.249 243.76 141.491 243.66 141.741 243.584L143.726 242.827C145.905 241.988 148.023 240.997 150.064 239.864C151.186 239.207 152.385 238.691 153.634 238.329C154.665 238.096 155.708 237.922 156.759 237.807C157.458 237.718 158.153 237.59 158.838 237.423C159.092 237.351 159.35 237.294 159.611 237.251Z" fill="#EB996E"/>
<path d="M167.734 239.636C167.66 239.419 167.606 239.195 167.573 238.969C167.44 238.449 167.183 237.968 166.825 237.569C166.467 237.169 166.018 236.861 165.516 236.672C165.294 236.613 165.079 236.535 164.871 236.439C164.871 236.406 165.149 236.372 165.582 236.478C166.146 236.63 166.653 236.94 167.045 237.373C167.433 237.808 167.686 238.347 167.773 238.924C167.831 239.16 167.818 239.408 167.734 239.636Z" fill="#EB996E"/>
<path d="M172.36 245.88C172.35 245.567 172.322 245.255 172.277 244.946C172.087 244.223 171.66 243.585 171.064 243.133C170.451 242.688 169.775 242.337 169.057 242.093C168.745 242.011 168.446 241.885 168.168 241.721C168.492 241.725 168.814 241.786 169.118 241.899C169.886 242.096 170.609 242.437 171.248 242.905C171.897 243.395 172.336 244.112 172.477 244.912C172.557 245.238 172.516 245.582 172.36 245.88Z" fill="#EB996E"/>
<path d="M145.083 246.769C144.941 246.895 144.777 246.993 144.599 247.058C144.134 247.277 143.655 247.463 143.164 247.614C142.827 247.732 142.481 247.827 142.13 247.898C141.707 247.954 141.277 247.91 140.874 247.77C140.646 247.687 140.438 247.557 140.264 247.388C140.09 247.22 139.953 247.016 139.862 246.792C139.632 246.335 139.539 245.821 139.595 245.313C139.653 244.929 139.851 244.58 140.151 244.334C140.407 244.109 140.693 243.922 141.002 243.778L140.929 243.945C140.703 243.256 140.755 242.506 141.074 241.854C141.339 241.366 141.695 240.934 142.125 240.581C142.4 240.351 142.694 240.145 143.003 239.964C143.11 239.887 143.228 239.829 143.353 239.792C143.381 239.83 142.903 240.108 142.241 240.709C141.851 241.066 141.527 241.489 141.285 241.96C141.011 242.56 140.979 243.244 141.196 243.867L141.23 243.973L141.124 244.028C140.601 244.301 139.973 244.701 139.912 245.357C139.865 245.809 139.946 246.266 140.145 246.675C140.219 246.867 140.332 247.042 140.478 247.187C140.624 247.333 140.798 247.446 140.99 247.52C141.346 247.65 141.726 247.7 142.102 247.664C142.444 247.603 142.782 247.523 143.114 247.425C143.732 247.253 144.226 247.081 144.56 246.958C144.727 246.877 144.902 246.814 145.083 246.769Z" fill="#EB996E"/>
<path d="M188.162 134.296C186.955 122.253 184.403 110.266 184.931 98.1562L175.029 104.339C175.524 109.132 171.215 112.846 168.718 116.96C167.224 119.474 166.348 122.306 166.161 125.224C165.975 128.142 166.483 131.063 167.645 133.746C168.535 135.747 169.797 137.638 170.125 139.806C170.681 143.465 168.418 147.184 169.252 150.793C170.208 154.946 175.29 157.226 179.388 156.058C183.486 154.89 186.421 151.054 187.628 146.99C188.834 142.925 188.584 138.539 188.162 134.296Z" fill="#263238"/>
<path d="M175.562 102.304C176.11 99.3655 177.43 96.6255 179.385 94.3648C181.341 92.1041 183.862 90.404 186.691 89.4388C189.52 88.4735 192.555 88.2778 195.484 88.8717C198.414 89.4657 201.133 90.8278 203.362 92.8186C205.169 94.4366 206.648 96.4548 208.739 97.6836C211.102 99.068 211.408 98.601 214.01 99.4406C216.612 100.28 221.71 107.074 221.794 109.81L223.818 121.708C223.884 124.516 220.382 126.323 217.668 125.6C214.955 124.878 213.042 122.481 211.486 120.135C209.929 117.789 208.45 115.248 206.053 113.774C202.078 111.333 196.974 112.579 192.47 113.774C187.967 114.97 182.735 115.998 178.987 113.218C175.785 110.8 174.829 106.24 175.562 102.304Z" fill="#263238"/>
<path d="M174.128 119.54C174.128 111.711 178.737 101.831 186.555 102.187L211.185 106.857C212.332 106.908 213.418 107.388 214.227 108.201C215.037 109.015 215.511 110.103 215.556 111.25L216.484 169.908H216.651C216.651 169.908 208.094 191.425 191.748 187.389C188.506 186.588 190.903 178.52 190.046 174.984L189.885 175.018C189.852 174.589 189.824 174.195 189.791 173.789C189.312 171.143 189.113 168.453 189.196 165.766C188.857 161.045 188.74 159.094 188.74 159.155C188.74 159.216 178.676 158.098 175.829 145.227C174.417 138.855 174.1 128.241 174.128 119.54Z" fill="#FFBE9D"/>
<path d="M178.476 129.781C178.498 130.216 178.688 130.625 179.007 130.921C179.326 131.217 179.748 131.377 180.183 131.366C180.396 131.37 180.608 131.332 180.807 131.253C181.005 131.174 181.185 131.057 181.337 130.907C181.489 130.757 181.609 130.578 181.691 130.381C181.772 130.184 181.814 129.973 181.812 129.759C181.79 129.325 181.6 128.916 181.281 128.62C180.962 128.324 180.54 128.164 180.105 128.175C179.892 128.17 179.68 128.208 179.482 128.287C179.283 128.366 179.103 128.484 178.951 128.634C178.799 128.784 178.679 128.962 178.597 129.16C178.516 129.357 178.475 129.568 178.476 129.781Z" fill="#263238"/>
<path d="M176.758 124.917C176.975 125.122 178.181 124.11 179.977 124.01C181.773 123.91 183.141 124.722 183.313 124.494C183.408 124.388 183.169 124.01 182.574 123.627C181.764 123.134 180.822 122.905 179.877 122.971C178.953 123.037 178.074 123.393 177.364 123.988C176.808 124.422 176.647 124.828 176.758 124.917Z" fill="#263238"/>
<path d="M194.656 128.875C194.677 129.31 194.868 129.719 195.187 130.015C195.506 130.311 195.927 130.47 196.362 130.46C196.576 130.464 196.788 130.426 196.986 130.347C197.184 130.268 197.365 130.15 197.516 130C197.668 129.851 197.789 129.672 197.87 129.475C197.952 129.278 197.993 129.066 197.992 128.853C197.97 128.415 197.777 128.004 197.454 127.707C197.132 127.411 196.706 127.253 196.268 127.268C196.056 127.266 195.846 127.306 195.65 127.386C195.453 127.466 195.275 127.584 195.125 127.734C194.975 127.883 194.856 128.061 194.775 128.257C194.695 128.453 194.654 128.663 194.656 128.875Z" fill="#263238"/>
<path d="M194.411 124.194C194.628 124.394 195.834 123.388 197.63 123.282C199.426 123.176 200.794 123.999 200.966 123.766C201.055 123.66 200.827 123.282 200.227 122.898C199.416 122.408 198.475 122.179 197.53 122.242C196.598 122.298 195.707 122.647 194.984 123.237C194.467 123.693 194.3 124.099 194.411 124.194Z" fill="#263238"/>
<path d="M188.701 137.888C188.701 137.782 187.589 137.66 185.754 137.538C185.292 137.538 184.853 137.449 184.759 137.143C184.692 136.671 184.769 136.19 184.981 135.764C185.348 134.652 185.726 133.445 186.126 132.2C187.711 127.118 188.823 122.954 188.617 122.893C188.412 122.831 186.949 126.896 185.381 131.972L184.297 135.564C184.041 136.132 183.995 136.772 184.169 137.371C184.245 137.529 184.356 137.669 184.494 137.778C184.632 137.887 184.793 137.962 184.964 137.999C185.222 138.053 185.486 138.073 185.748 138.06C187.572 138.049 188.701 137.988 188.701 137.888Z" fill="#263238"/>
<path d="M188.74 159.188C194.865 158.911 200.793 156.94 205.865 153.495C205.865 153.495 202.017 162.808 188.94 162.391L188.74 159.188Z" fill="#EB996E"/>
<path d="M189.718 142.164C190.033 141.713 190.458 141.35 190.952 141.11C191.446 140.869 191.994 140.759 192.543 140.79C192.941 140.8 193.332 140.891 193.693 141.057C194.055 141.224 194.378 141.462 194.645 141.758C194.903 142.042 195.067 142.399 195.116 142.78C195.165 143.16 195.095 143.547 194.917 143.887C194.649 144.227 194.285 144.478 193.873 144.61C193.461 144.742 193.019 144.747 192.604 144.627C191.738 144.378 190.931 143.958 190.23 143.392C190.014 143.263 189.825 143.093 189.674 142.892C189.602 142.797 189.56 142.683 189.553 142.564C189.546 142.445 189.575 142.327 189.635 142.225" fill="#EB996E"/>
<path d="M194.044 138.811C193.749 138.811 193.86 140.757 192.281 142.236C190.702 143.715 188.612 143.631 188.612 143.904C188.612 144.026 189.096 144.254 189.974 144.226C191.116 144.175 192.203 143.722 193.043 142.947C193.849 142.203 194.334 141.174 194.394 140.078C194.433 139.261 194.183 138.789 194.044 138.811Z" fill="#263238"/>
<path d="M193.549 117.394C193.755 117.872 195.534 117.533 197.653 117.661C199.771 117.789 201.511 118.256 201.761 117.8C201.873 117.583 201.55 117.144 200.838 116.688C199.887 116.164 198.829 115.863 197.744 115.809C196.659 115.755 195.576 115.949 194.578 116.376C193.827 116.76 193.488 117.166 193.549 117.394Z" fill="#263238"/>
<path d="M177.103 119.685C177.442 120.074 178.654 119.579 180.139 119.468C181.623 119.357 182.919 119.579 183.163 119.134C183.28 118.917 183.058 118.523 182.479 118.172C181.714 117.752 180.84 117.57 179.971 117.649C179.101 117.728 178.275 118.065 177.598 118.617C177.097 119.067 176.953 119.496 177.103 119.685Z" fill="#263238"/>
<path d="M186.777 98.84L187.789 97.3611C195.35 97.7529 202.822 99.1707 210.001 101.576C212.87 102.537 215.783 103.722 217.841 105.94C220.676 108.987 221.371 113.391 221.927 117.516C224.051 133.212 226.008 149.397 221.983 164.72C220.671 162.875 218.28 162.157 216.034 161.863C213.787 161.568 211.447 161.579 209.362 160.673C208.229 160.154 207.218 159.405 206.393 158.472C205.567 157.539 204.946 156.444 204.569 155.257C203.826 152.862 203.95 150.281 204.919 147.968C205.97 145.394 207.966 142.847 207.271 140.184C206.543 137.365 203.168 135.936 202.223 133.184C200.594 128.425 207.115 123.654 205.442 118.912C204.819 117.16 203.185 115.959 201.472 115.236C199.76 114.514 197.914 114.163 196.184 113.491C193.309 112.3 190.867 110.258 189.186 107.639C187.504 105.02 186.664 101.95 186.777 98.84Z" fill="#263238"/>
<path d="M225.241 106.596C217.157 95.2649 211.68 93.8916 204.074 93.469L214.638 117.155C216.223 120.969 218.402 125.595 218.741 129.704C219.142 134.58 217.452 138.661 215.189 142.992C212.475 148.196 209.495 153.156 204.83 156.714C200.166 160.272 189.779 164.748 184.386 162.441L191.909 166.65L209.879 166.716L230.812 166.8C230.812 166.8 233.259 164.654 235.41 159.116C240.809 145.244 234.259 119.234 225.241 106.596Z" fill="#F5F5F5"/>
<path d="M240.148 180.4C240.148 180.4 235.644 171.159 229.767 166.077C223.89 160.995 220.282 161.045 211.897 161.757C203.513 162.469 191.781 163.792 189.001 163.086L188.74 159.194C187.361 159.055 181.706 156.303 180.606 154.64C178.504 156.792 177.586 159.088 178.065 161.529L176.691 162.046C174.665 162.787 172.983 164.248 171.966 166.151C170.949 168.053 170.667 170.263 171.176 172.36C171.698 174.361 172.961 175.59 175.496 176.029C185.56 177.77 212.464 170.497 220.565 170.469C228.666 170.442 240.148 180.4 240.148 180.4Z" fill="#F5F5F5"/>
<path d="M174.584 175.924C174.82 175.917 175.056 175.93 175.29 175.963C175.746 176.007 176.402 176.08 177.286 176.141C179.739 176.332 182.201 176.373 184.659 176.263C188.3 176.076 191.919 175.585 195.478 174.795C197.491 174.356 199.587 173.822 201.739 173.199L208.378 171.148C212.931 169.763 217.496 168.818 221.672 169.23C225.35 169.566 228.911 170.705 232.102 172.566C234.245 173.821 236.182 175.398 237.846 177.242C238.298 177.74 238.721 178.263 239.113 178.81C239.259 178.985 239.391 179.171 239.508 179.366C239.333 179.21 239.176 179.035 239.041 178.843C238.757 178.481 238.307 177.976 237.712 177.342C233.469 172.898 227.753 170.15 221.633 169.613C217.541 169.235 213.048 170.169 208.511 171.548C206.237 172.232 204.03 172.96 201.867 173.589C199.704 174.217 197.597 174.74 195.567 175.168C191.982 175.946 188.336 176.407 184.67 176.547C182.2 176.629 179.727 176.538 177.269 176.274C176.402 176.185 175.729 176.085 175.279 176.013C175.045 176.003 174.813 175.973 174.584 175.924Z" fill="#263238"/>
<path d="M240.631 177.364C230.479 164.165 211.013 159.122 195.723 165.727L179.599 169.146C175.346 169.88 168.524 171.265 168.201 175.207C167.907 179.382 168.816 183.553 170.82 187.227C174.567 193.755 172.532 202.501 176.28 209.028C178.048 212.114 179.855 215.244 182.435 217.696C185.015 220.148 188.517 221.866 192.054 221.483C195.99 221.06 199.215 218.185 201.717 215.116C207.105 208.506 210.468 200.477 215.511 193.605C220.554 186.733 226.503 181.673 237.101 181.022C239.025 180.9 244.512 183.463 244.512 183.463C244.668 182.685 241.115 177.981 240.631 177.364Z" fill="#F5F5F5"/>
<g opacity="0.3">
<path d="M218.931 169.513C211.919 169.513 205.031 172.883 198.236 174.384C170.903 180.4 170.903 170.092 170.903 170.092C170.047 174.934 174.595 177.158 179.382 178.27C188.523 180.383 198.286 181.517 204.88 179.41C210.196 177.742 215.745 176.502 221.11 174.962C226.475 173.422 234.204 174.011 238.268 177.825C234.632 171.848 225.942 169.497 218.931 169.513Z" fill="black"/>
</g>
<g opacity="0.3">
<path d="M183.408 168.774C183.734 169.49 184.211 170.127 184.806 170.642C185.401 171.157 186.1 171.538 186.855 171.759C188.369 172.196 189.954 172.332 191.52 172.16C197.235 171.771 202.729 169.863 208.139 167.973C203.813 167.823 199.626 169.33 195.384 170.197C191.142 171.064 186.36 171.12 182.913 168.529" fill="black"/>
</g>
<path d="M242.005 181.595C242.005 181.595 241.955 181.556 241.877 181.473L241.538 181.083C241.243 180.733 240.792 180.244 240.198 179.621C238.523 177.86 236.498 176.468 234.254 175.535C232.688 174.944 231.043 174.588 229.372 174.478C227.457 174.323 225.53 174.384 223.629 174.662C219.592 175.218 215.328 176.636 210.802 177.925C206.276 179.215 201.956 180.561 197.847 180.778C194.225 180.934 190.596 180.675 187.033 180.005C183.997 179.449 181.578 178.804 179.905 178.387L177.981 177.898L177.486 177.764L177.314 177.709C177.373 177.7 177.433 177.7 177.492 177.709L177.998 177.814L179.933 178.253C181.601 178.637 184.036 179.243 187.072 179.777C190.62 180.418 194.229 180.656 197.83 180.489C201.895 180.261 206.22 178.976 210.724 177.625C215.228 176.274 219.52 174.912 223.59 174.373C225.513 174.101 227.46 174.049 229.394 174.217C231.469 174.336 233.499 174.866 235.367 175.777C237.235 176.688 238.904 177.96 240.275 179.521C240.865 180.161 241.304 180.661 241.582 181.022L241.899 181.428L242.005 181.595Z" fill="black"/>
<path d="M231.796 167.995C231.754 167.968 231.715 167.936 231.68 167.901L231.357 167.606C231.085 167.339 230.657 166.967 230.101 166.494C228.499 165.2 226.744 164.109 224.874 163.247C222.099 161.976 219.149 161.129 216.123 160.734C212.413 160.274 208.66 160.283 204.953 160.762C201.242 161.252 197.56 161.939 193.922 162.819C192.314 163.197 190.659 163.328 189.012 163.208C187.564 163.1 186.174 162.596 184.992 161.752C184.044 161.032 183.234 160.146 182.602 159.138C182.124 158.386 181.709 157.596 181.362 156.775C181.078 156.103 180.889 155.563 180.767 155.196L180.639 154.779C180.62 154.733 180.609 154.684 180.605 154.635C180.605 154.635 180.633 154.679 180.667 154.768C180.7 154.857 180.761 155.013 180.822 155.18C180.961 155.535 181.167 156.064 181.467 156.731C181.83 157.536 182.256 158.311 182.741 159.049C183.374 160.03 184.178 160.888 185.115 161.585C186.273 162.394 187.63 162.873 189.04 162.969C190.66 163.074 192.287 162.936 193.866 162.558C197.509 161.659 201.199 160.965 204.919 160.478C208.651 159.997 212.43 159.997 216.162 160.478C219.21 160.892 222.178 161.767 224.963 163.075C226.838 163.954 228.59 165.075 230.173 166.411C230.602 166.775 231.012 167.161 231.402 167.567L231.702 167.879C231.769 167.957 231.802 167.99 231.796 167.995Z" fill="black"/>
<path d="M228.516 167.723H228.377L227.966 167.656L226.381 167.395C224.439 167.096 222.483 166.897 220.521 166.8C217.608 166.657 214.689 166.75 211.791 167.078C208.247 167.554 204.734 168.243 201.272 169.141C197.58 170.03 193.988 170.809 190.658 170.759C189.086 170.769 187.519 170.582 185.993 170.203C184.663 169.826 183.432 169.16 182.39 168.251C180.895 166.945 179.681 165.348 178.821 163.558C178.494 162.911 178.235 162.23 178.048 161.529C178.074 161.568 178.095 161.612 178.109 161.657L178.259 162.046C178.398 162.391 178.609 162.886 178.921 163.503C179.81 165.255 181.034 166.815 182.524 168.095C183.55 168.97 184.755 169.609 186.054 169.969C187.561 170.336 189.107 170.513 190.658 170.497C193.949 170.497 197.513 169.758 201.222 168.863C204.697 167.958 208.225 167.27 211.786 166.806C214.698 166.492 217.63 166.419 220.554 166.589C222.523 166.703 224.483 166.931 226.425 167.273C227.115 167.4 227.643 167.506 228.004 167.589L228.41 167.684C228.477 167.701 228.516 167.717 228.516 167.723Z" fill="black"/>
<path d="M229.028 142.77C228.978 143.085 228.907 143.397 228.816 143.704C228.729 144.069 228.622 144.429 228.494 144.782C228.349 145.199 228.21 145.677 227.988 146.183C227.765 146.689 227.549 147.256 227.254 147.851C226.959 148.446 226.631 149.041 226.27 149.681C224.646 152.414 222.533 154.824 220.037 156.792C219.453 157.237 218.925 157.665 218.369 158.009C217.813 158.354 217.313 158.682 216.829 158.955C216.345 159.227 215.9 159.45 215.511 159.644C215.178 159.819 214.834 159.973 214.483 160.106C214.193 160.239 213.894 160.35 213.587 160.439C213.859 160.272 214.143 160.127 214.438 160.006C214.716 159.878 215.055 159.716 215.439 159.5C215.823 159.283 216.267 159.077 216.729 158.777C217.19 158.477 217.713 158.187 218.236 157.809C218.758 157.431 219.309 157.025 219.904 156.586C222.352 154.61 224.441 152.225 226.075 149.536C226.437 148.908 226.792 148.318 227.07 147.74C227.348 147.162 227.626 146.628 227.832 146.117C228.038 145.605 228.216 145.149 228.388 144.743C228.56 144.337 228.661 143.976 228.75 143.687C228.816 143.374 228.909 143.067 229.028 142.77Z" fill="black"/>
<path d="M228.188 175.913C228.037 175.913 227.886 175.9 227.738 175.874L227.182 175.802C226.97 175.774 226.72 175.802 226.448 175.763C224.875 175.725 223.309 175.968 221.822 176.48C220.796 176.832 219.798 177.259 218.836 177.759C217.734 178.339 216.663 178.978 215.628 179.671C213.437 181.134 211.147 182.924 208.689 184.731L196.146 194.044L192.315 196.824L191.264 197.547C191.147 197.641 191.02 197.724 190.886 197.791C190.992 197.687 191.105 197.59 191.225 197.502L192.243 196.713L196.018 193.849L208.528 184.497C210.985 182.696 213.276 180.906 215.495 179.449C216.54 178.756 217.622 178.119 218.736 177.542C219.716 177.049 220.73 176.629 221.772 176.285C223.283 175.785 224.874 175.57 226.464 175.651C226.742 175.651 226.993 175.679 227.204 175.713L227.76 175.813C227.905 175.833 228.049 175.867 228.188 175.913Z" fill="black"/>
<path d="M246.13 192.96C246.022 192.707 245.94 192.445 245.885 192.176C245.752 191.67 245.563 190.93 245.296 190.03C244.996 188.973 244.615 187.942 244.156 186.944C243.599 185.729 242.837 184.62 241.904 183.663C240.977 182.703 239.816 182 238.535 181.623C237.481 181.34 236.386 181.245 235.299 181.339C234.293 181.452 233.294 181.623 232.308 181.851C232.368 181.811 232.433 181.781 232.502 181.762C232.636 181.712 232.831 181.645 233.058 181.573C233.784 181.357 234.529 181.212 235.282 181.139C236.399 181.009 237.53 181.086 238.618 181.367C239.95 181.744 241.158 182.465 242.121 183.458C243.079 184.438 243.854 185.581 244.412 186.833C244.868 187.848 245.24 188.898 245.524 189.974C245.763 190.886 245.924 191.642 246.024 192.153C246.083 192.419 246.118 192.688 246.13 192.96Z" fill="black"/>
<path d="M236.267 89.1896C247.199 88.6817 255.649 79.4077 255.141 68.4755C254.634 57.5433 245.36 49.0927 234.427 49.6006C223.495 50.1085 215.045 59.3826 215.552 70.3148C216.06 81.2469 225.334 89.6975 236.267 89.1896Z" fill="white"/>
<path d="M224.324 92.2962C224.507 92.2446 224.693 92.2019 224.88 92.1683C225.415 92.102 225.957 92.205 226.431 92.463C226.757 92.6326 227.042 92.8717 227.265 93.1635C227.513 93.5027 227.658 93.9062 227.682 94.3256C227.734 94.8078 227.637 95.2945 227.405 95.7201C227.172 96.1457 226.814 96.4898 226.38 96.706C225.946 96.9222 225.456 97.0002 224.976 96.9295C224.496 96.8588 224.049 96.6427 223.696 96.3105C223.377 96.0383 223.142 95.6818 223.017 95.2819C222.914 94.9204 222.894 94.5405 222.956 94.1699C223.038 93.6364 223.283 93.1412 223.657 92.7521C223.924 92.4796 224.118 92.3851 224.107 92.3684C224.058 92.3835 224.011 92.406 223.968 92.4352C223.912 92.4641 223.858 92.4976 223.807 92.5352C223.737 92.5869 223.67 92.6426 223.607 92.702C223.264 93.0299 223.015 93.4436 222.886 93.9002C222.757 94.3568 222.752 94.8396 222.873 95.2986C222.996 95.7309 223.243 96.1175 223.584 96.4106C223.956 96.7406 224.412 96.9602 224.902 97.0444C225.429 97.1556 225.979 97.0855 226.461 96.8453C226.944 96.6051 227.331 96.2089 227.56 95.7211C227.786 95.2786 227.886 94.7823 227.849 94.2866C227.819 93.8373 227.658 93.4065 227.387 93.0468C227.15 92.7371 226.844 92.4876 226.492 92.3184C225.993 92.0603 225.423 91.9725 224.869 92.0682C224.784 92.0807 224.7 92.1012 224.618 92.1294C224.555 92.1455 224.494 92.1678 224.435 92.1961C224.368 92.2572 224.318 92.2962 224.324 92.2962Z" fill="#263238"/>
<path d="M218.847 80.67L218.686 80.3865L218.197 79.5747C218.091 79.3912 217.969 79.1911 217.835 78.9742C217.702 78.7574 217.602 78.4905 217.468 78.2125C217.335 77.9345 217.196 77.6565 217.046 77.3229C216.964 77.1619 216.895 76.9946 216.84 76.8225C216.779 76.6446 216.712 76.4667 216.645 76.2665C215.972 74.463 215.576 72.5677 215.472 70.6454C215.318 68.0994 215.654 65.5476 216.462 63.1282L216.812 62.1163C216.951 61.7772 217.112 61.4491 217.263 61.11C217.335 60.9432 217.413 60.7764 217.491 60.604C217.561 60.4301 217.647 60.2627 217.746 60.1036L218.302 59.1084C218.397 58.9416 218.491 58.7748 218.591 58.608L218.936 58.1298L219.631 57.1624C219.87 56.8454 220.154 56.5508 220.421 56.2394L220.827 55.7779C220.893 55.7056 220.96 55.6222 221.032 55.55L221.26 55.3387C221.857 54.7394 222.494 54.1821 223.167 53.6707C223.512 53.4205 223.846 53.1147 224.213 52.8978L225.325 52.214C225.514 52.1028 225.697 51.9749 225.881 51.8748L226.487 51.5857C226.892 51.3966 227.293 51.1854 227.71 51.0297C228.567 50.6886 229.446 50.4026 230.34 50.1734L231.018 50.0011L231.363 49.9177L231.713 49.8676L233.12 49.6564C233.598 49.6063 234.076 49.5952 234.56 49.5674C234.799 49.5674 235.043 49.5285 235.288 49.5674L236.016 49.6008C237.003 49.6369 237.985 49.739 238.958 49.9066L240.42 50.2568L240.787 50.3458C240.909 50.3792 241.026 50.4236 241.148 50.4626L241.866 50.7128L242.588 50.9574L243.289 51.2688L243.989 51.5912L244.34 51.7469C244.456 51.8081 244.562 51.8748 244.679 51.9415L246.024 52.7144L247.303 53.6262C250.735 56.1979 253.234 59.8191 254.42 63.94C254.553 64.446 254.681 64.9575 254.809 65.4579L255.043 66.998L255.098 67.3816V67.7653L255.137 68.5326L255.176 69.2998L255.143 70.0616L255.109 70.8233V71.2014L255.059 71.5739C254.987 72.0743 254.92 72.5691 254.854 73.064C254.657 74.0331 254.395 74.9878 254.07 75.9218L253.836 76.6112C253.758 76.8448 253.642 77.056 253.547 77.2784C253.341 77.7177 253.163 78.1625 252.941 78.585C252.719 79.0076 252.468 79.4135 252.235 79.8249L252.057 80.1307C251.99 80.2308 251.918 80.3253 251.851 80.4198L251.445 80.9758C250.909 81.7249 250.324 82.438 249.694 83.1109C249.377 83.4389 249.038 83.7336 248.715 84.045L248.221 84.5009C248.059 84.651 247.87 84.7789 247.698 84.9123L246.653 85.713C246.297 85.9632 245.913 86.1744 245.541 86.4024C244.828 86.8467 244.085 87.2406 243.317 87.5811L243.039 87.7146L242.75 87.8258L242.194 88.0315C241.804 88.1649 241.432 88.3262 241.048 88.4374L239.892 88.732L239.336 88.8766L238.78 88.9656L237.668 89.1379C237.484 89.1702 237.298 89.1888 237.112 89.1935H236.556C236.189 89.1935 235.822 89.2436 235.444 89.2491L234.371 89.2046C231.823 89.0793 229.324 88.4639 227.009 87.3921C226.753 87.2753 226.498 87.1697 226.253 87.0529L225.564 86.6526L224.896 86.2745C224.785 86.2078 224.674 86.1522 224.574 86.0855L224.279 85.8742L223.167 85.0736C222.817 84.8067 222.517 84.5176 222.211 84.2618L221.777 83.8837C221.638 83.7681 221.506 83.6437 221.383 83.5112L220.632 82.844C220.426 82.6216 220.226 82.4214 220.076 82.2268L219.648 81.6708L219.092 80.9202C218.964 80.7534 218.892 80.67 218.892 80.67L219.081 80.9314C219.209 81.1093 219.398 81.3595 219.637 81.6931L220.054 82.2491C220.22 82.4492 220.421 82.6494 220.61 82.8718L221.277 83.6002C221.399 83.7359 221.531 83.8622 221.672 83.9782L222.105 84.3619C222.406 84.6176 222.706 84.9179 223.056 85.1792L224.168 85.991L224.463 86.2022C224.568 86.2745 224.68 86.3301 224.785 86.3968L225.452 86.7805L226.147 87.1864L226.904 87.5311C229.228 88.619 231.741 89.2459 234.304 89.377L235.383 89.427C235.744 89.427 236.117 89.3937 236.495 89.377L237.051 89.3436C237.237 89.3429 237.423 89.3262 237.607 89.2936L238.746 89.1212L239.302 89.0323L239.858 88.8877L241.026 88.593C241.41 88.4818 241.788 88.3262 242.177 88.1927L242.761 87.9814C242.855 87.9425 242.955 87.9147 243.05 87.8702L243.333 87.7368C244.114 87.394 244.87 86.9984 245.596 86.5525C245.963 86.3246 246.347 86.1133 246.708 85.8631L247.765 85.0569C247.943 84.9179 248.126 84.7956 248.321 84.6454L248.816 84.184C249.138 83.8726 249.488 83.5724 249.805 83.2443C250.44 82.566 251.031 81.8472 251.573 81.0926C251.707 80.898 251.846 80.709 251.985 80.5366C252.051 80.4421 252.124 80.3476 252.19 80.2475L252.368 79.9361L253.086 78.6907C253.308 78.2626 253.492 77.8122 253.697 77.373C253.792 77.145 253.914 76.9282 253.992 76.7002L254.225 75.9996C254.555 75.059 254.819 74.0967 255.015 73.1196C255.087 72.6247 255.16 72.1188 255.226 71.6184L255.282 71.2403V70.8566L255.315 70.0949L255.349 69.3221L255.31 68.5492L255.265 67.7764V67.3816L255.204 66.998L254.97 65.4468C254.843 64.9352 254.715 64.4237 254.581 63.9122C253.408 59.7428 250.9 56.073 247.442 53.465L246.152 52.542L244.79 51.7636C244.679 51.6969 244.568 51.6302 244.451 51.569L244.095 51.4078L243.389 51.0853L242.683 50.7739L241.955 50.5237L241.226 50.2735L240.865 50.1512L240.492 50.0678C240.003 49.9455 239.508 49.8287 239.019 49.7175C238.038 49.5454 237.045 49.4414 236.05 49.4062L235.316 49.3728C235.071 49.3728 234.827 49.3728 234.582 49.3728C234.093 49.4062 233.609 49.4117 233.131 49.4618L231.707 49.6786L231.357 49.7342C231.24 49.7342 231.124 49.7898 231.012 49.8176L230.323 49.9955C229.422 50.2232 228.538 50.5111 227.676 50.8573C227.254 51.0352 226.848 51.2521 226.437 51.4411L225.831 51.7358C225.63 51.8359 225.447 51.9638 225.275 52.0805L224.163 52.77C223.796 53.0146 223.456 53.2982 223.112 53.5539C222.433 54.0654 221.79 54.6227 221.188 55.2219L220.96 55.4388C220.888 55.511 220.821 55.5944 220.754 55.6723C220.688 55.7501 220.482 55.9836 220.343 56.1338C220.076 56.4507 219.787 56.7454 219.553 57.0623L218.853 58.0408L218.508 58.5246C218.408 58.6914 218.313 58.8637 218.219 59.0305L217.663 60.0313C217.566 60.1931 217.483 60.3623 217.413 60.5373L217.179 61.0488C217.029 61.388 216.868 61.7216 216.734 62.0607C216.601 62.3999 216.501 62.7446 216.384 63.0838C215.577 65.5184 215.249 68.086 215.417 70.6454C215.528 72.5772 215.935 74.4805 216.623 76.2888L216.823 76.8448C216.878 77.0168 216.947 77.1842 217.029 77.3452L217.463 78.2348C217.602 78.5072 217.713 78.763 217.841 78.9909L218.208 79.5858L218.714 80.392C218.78 80.5755 218.847 80.67 218.847 80.67Z" fill="#263238"/>
<path d="M225.341 69.8948L228.277 66.9592L233.937 71.9909L245.046 61.2991L247.77 64.2348L233.52 77.651L225.341 69.8948Z" fill="#F5F5F5"/>
</svg>
