<svg width="387" height="387" viewBox="0 0 387 387" fill="none" xmlns="http://www.w3.org/2000/svg">
<path d="M267.525 104.343C265.18 98.1857 261.585 92.5805 256.968 87.8799C248.988 79.7219 239.894 72.516 229.607 67.454C219.321 62.3921 202.517 57.9029 190.311 57.9725C183.995 57.7249 180.806 58.1196 175.063 60.341C171.48 61.7264 168.469 64.9231 168.221 68.7079C167.989 72.2141 170.156 76.5253 173.051 78.5687C185.497 87.3458 194.924 87.8025 206.999 91.6648C219.073 95.527 231.488 101.247 237.997 111.99C241.534 117.81 243.547 125.272 249.677 128.36C255.621 131.363 263.454 128.453 267.1 122.942C270.745 117.431 269.878 110.496 267.525 104.343Z" fill="white"/>
<path d="M70.5268 323.826L71.3704 325.235C72.3161 326.832 73.703 328.122 75.3643 328.95L76.8426 329.678L75.4339 330.498C73.8491 331.447 72.5723 332.834 71.7574 334.492L71.0221 335.962L70.1785 334.554C69.225 332.973 67.8392 331.697 66.1846 330.877L64.7063 330.15L66.1227 329.298C67.7018 328.346 68.977 326.963 69.7992 325.312L70.5268 323.826Z" fill="#EBEBEB"/>
<path d="M343.54 46.9121L344.383 48.3208C345.337 49.902 346.723 51.1777 348.377 51.9973L349.848 52.7249L348.439 53.5685C346.858 54.522 345.582 55.9078 344.763 57.5624L344.035 59.0407L343.191 57.632C342.242 56.0472 340.855 54.7704 339.198 53.9555L337.719 53.2279L339.128 52.3765C340.713 51.4275 341.99 50.0405 342.804 48.3827L343.54 46.9121Z" fill="#EBEBEB"/>
<path d="M353.238 68.7776L353.973 70.0005C354.801 71.3746 356.004 72.4836 357.441 73.1971L358.726 73.8318L357.503 74.6058C356.127 75.4343 355.017 76.6405 354.306 78.0811L353.671 79.3582L352.944 78.0965C352.115 76.7203 350.909 75.6108 349.469 74.8999L348.184 74.3039L349.407 73.5299C350.781 72.7022 351.89 71.4991 352.603 70.0624L353.238 68.7776Z" fill="#EBEBEB"/>
<path d="M54.18 307.905L54.7759 308.903C55.4498 310.022 56.4302 310.925 57.601 311.504L58.6459 312.022L57.6475 312.618C56.5284 313.292 55.6259 314.273 55.0468 315.444L54.5283 316.488L53.9323 315.49C53.2502 314.369 52.2619 313.467 51.084 312.889L50.0391 312.371L51.0375 311.775C52.1566 311.101 53.0591 310.121 53.6382 308.95L54.18 307.905Z" fill="#EBEBEB"/>
<path d="M310.211 318.834L310.815 319.832C311.484 320.955 312.466 321.859 313.64 322.433L314.677 322.951L313.679 323.555C312.562 324.228 311.66 325.205 311.078 326.373L310.567 327.417L309.964 326.419C309.29 325.3 308.31 324.397 307.139 323.818L306.094 323.307L307.092 322.704C308.215 322.034 309.119 321.053 309.693 319.879L310.211 318.834Z" fill="#EBEBEB"/>
<path d="M46.6955 33.46L47.2915 34.4584C47.9653 35.5775 48.9457 36.48 50.1166 37.0591L51.1615 37.5776L50.163 38.1736C49.0406 38.8537 48.1378 39.8425 47.5624 41.0219L47.0438 42.0668L46.4401 41.0219C45.7642 39.9045 44.7844 39.0025 43.615 38.4213L42.5701 37.9259L43.5685 37.3222C44.6859 36.6464 45.5879 35.6665 46.1692 34.4971L46.6955 33.46Z" fill="#EBEBEB"/>
<path d="M344.206 215.652L344.809 216.65C345.481 217.771 346.462 218.674 347.634 219.251L348.679 219.77L347.681 220.366C346.56 221.037 345.657 222.018 345.08 223.191L344.562 224.236L343.958 223.237C343.285 222.12 342.308 221.218 341.141 220.636L340.096 220.126L341.094 219.522C342.212 218.846 343.114 217.866 343.695 216.697L344.206 215.652Z" fill="#EBEBEB"/>
<path d="M44.118 105.388L44.7217 106.378C45.391 107.501 46.3726 108.405 47.5468 108.979L48.5839 109.498L47.5932 110.101C46.4705 110.771 45.5669 111.752 44.9926 112.926L44.474 113.964L43.8935 113.004C43.2197 111.885 42.2393 110.982 41.0684 110.403L40.0312 109.892L41.022 109.289C42.145 108.617 43.0506 107.636 43.6303 106.464L44.118 105.388Z" fill="#EBEBEB"/>
<path d="M84.9697 118.105L85.527 119.034C86.1515 120.074 87.0624 120.912 88.1509 121.448L89.1261 121.928L88.1973 122.493C87.155 123.118 86.3141 124.028 85.7747 125.117L85.2948 126.085L84.7375 125.164C84.1104 124.121 83.197 123.28 82.1059 122.741L81.1384 122.261L82.0672 121.704C83.1078 121.076 83.946 120.163 84.4821 119.072L84.9697 118.105Z" fill="white"/>
<path d="M285.877 220.033L286.434 220.962C287.061 222.002 287.971 222.843 289.058 223.384L290.033 223.864L289.105 224.421C288.062 225.048 287.221 225.962 286.682 227.053L286.202 228.02L285.645 227.092C285.016 226.053 284.106 225.213 283.021 224.669L282.046 224.189L282.974 223.632C284.017 223.007 284.858 222.097 285.397 221.008L285.877 220.033Z" fill="white"/>
<path d="M176.751 28.6381L177.308 29.5669C177.932 30.6092 178.843 31.4501 179.932 31.9895L180.907 32.4694L179.978 33.0266C178.944 33.6405 178.104 34.5339 177.556 35.6041L177.076 36.5793L176.519 35.6505C175.891 34.6076 174.978 33.7668 173.887 33.2279L172.919 32.748L173.848 32.1907C174.887 31.5642 175.725 30.6538 176.263 29.5669L176.751 28.6381Z" fill="white"/>
<path d="M307.387 116.1L307.944 117.029C308.571 118.072 309.484 118.913 310.575 119.452L311.543 119.931L310.614 120.489C309.575 121.115 308.738 122.026 308.199 123.113L307.719 124.088L307.162 123.159C306.535 122.116 305.622 121.275 304.53 120.736L303.563 120.256L304.484 119.699C305.525 119.073 306.365 118.163 306.907 117.075L307.387 116.1Z" fill="white"/>
<path d="M106.131 153.871L106.534 154.545C106.992 155.304 107.658 155.917 108.453 156.309L109.165 156.658L108.484 157.068C107.725 157.526 107.112 158.192 106.719 158.987L106.371 159.692L105.961 159.018C105.503 158.259 104.836 157.647 104.041 157.254L103.337 156.905L104.01 156.495C104.772 156.039 105.385 155.373 105.775 154.576L106.131 153.871Z" fill="white"/>
<path d="M124.614 240.606L125.024 241.287C125.483 242.039 126.146 242.646 126.936 243.036L127.648 243.384L126.967 243.795C126.207 244.253 125.595 244.919 125.202 245.714L124.854 246.418L124.444 245.745C123.988 244.987 123.324 244.374 122.532 243.98L121.82 243.624L122.501 243.222C123.26 242.764 123.873 242.098 124.266 241.302L124.614 240.606Z" fill="white"/>
<path d="M301.318 89.7839L301.721 90.4573C302.177 91.2188 302.843 91.8317 303.64 92.222L304.352 92.5781L303.671 92.9806C302.912 93.4387 302.299 94.1048 301.907 94.9001L301.558 95.6122L301.148 94.931C300.69 94.1716 300.024 93.5592 299.229 93.1663L298.524 92.818L299.198 92.4078C299.959 91.952 300.572 91.2853 300.962 90.4883L301.318 89.7839Z" fill="white"/>
<path d="M69.8923 135.574L70.2948 136.247C70.7518 137.01 71.418 137.625 72.2143 138.02L72.9264 138.368L72.2452 138.771C71.489 139.233 70.8776 139.898 70.4805 140.69L70.1322 141.402L69.722 140.721C69.2638 139.962 68.5977 139.349 67.8025 138.956L67.0981 138.608L67.7715 138.198C68.533 137.742 69.1459 137.075 69.5362 136.278L69.8923 135.574Z" fill="white"/>
<path d="M320.885 93.979L321.117 94.366C321.38 94.7995 321.761 95.1486 322.216 95.3722L322.627 95.5734L322.24 95.8056C321.796 96.0636 321.439 96.4457 321.21 96.9047L321.009 97.3149L320.777 96.9279C320.516 96.4905 320.135 96.1382 319.678 95.914L319.275 95.7128L319.662 95.4806C320.096 95.2178 320.445 94.8364 320.668 94.3815L320.885 93.979Z" fill="white"/>
<path d="M306.419 205.404L306.651 205.799C306.914 206.232 307.295 206.581 307.75 206.805L308.153 207.006L307.766 207.238C307.33 207.501 306.978 207.882 306.752 208.338L306.55 208.748L306.318 208.353C306.055 207.92 305.674 207.57 305.219 207.347L304.817 207.146L305.204 206.913C305.639 206.651 305.991 206.27 306.218 205.814L306.419 205.404Z" fill="white"/>
<path d="M206.325 19.915L206.558 20.302C206.82 20.7355 207.202 21.0846 207.657 21.3082L208.067 21.5095L207.68 21.7494C207.24 22.0054 206.885 22.3848 206.658 22.8408L206.457 23.251L206.225 22.864C205.958 22.426 205.571 22.074 205.11 21.85L204.723 21.672L205.118 21.4398C205.551 21.177 205.9 20.7956 206.124 20.3407L206.325 19.915Z" fill="white"/>
<path d="M161.998 39.6753L162.23 40.0623C162.489 40.4959 162.864 40.8474 163.314 41.0762L163.717 41.2775L163.33 41.5097C162.896 41.7725 162.547 42.1538 162.323 42.6088L162.122 43.0112L161.882 42.6242C161.623 42.1888 161.244 41.8368 160.791 41.6103L160.381 41.4091L160.768 41.1769C161.199 40.9143 161.546 40.5326 161.766 40.0778L161.998 39.6753Z" fill="white"/>
<path d="M129.599 250.776L129.831 251.163C130.093 251.599 130.475 251.951 130.93 252.177L131.333 252.378L130.946 252.61C130.512 252.873 130.163 253.255 129.939 253.71L129.738 254.112L129.506 253.725C129.242 253.291 128.861 252.94 128.407 252.711L127.997 252.51L128.384 252.278C128.821 252.017 129.173 251.636 129.398 251.179L129.599 250.776Z" fill="white"/>
<path d="M243.485 307.92L147.509 307.696C143.53 307.696 140.311 304.886 140.318 301.442C140.318 298.005 143.561 295.25 147.54 295.25L243.516 295.474C247.494 295.474 250.706 298.276 250.699 301.721C250.691 305.142 247.463 307.928 243.485 307.92Z" fill="#455A64"/>
<path d="M243.485 292.781L147.509 292.564C143.53 292.564 140.311 289.755 140.318 286.31C140.318 282.866 143.561 280.118 147.54 280.118L243.516 280.335C247.494 280.335 250.706 283.145 250.699 286.589C250.691 290.01 247.463 292.789 243.485 292.781Z" fill="#455A64"/>
<path d="M239.63 310.18L151.766 309.979C150.099 310.094 148.538 310.837 147.398 312.058C146.257 313.279 145.623 314.887 145.623 316.558C145.623 318.229 146.257 319.838 147.398 321.059C148.538 322.28 150.099 323.023 151.766 323.137H161.41L174.15 347.572C174.868 348.938 175.944 350.083 177.262 350.884C178.58 351.686 180.092 352.114 181.635 352.124L213.036 352.193C214.596 352.198 216.126 351.772 217.459 350.962C218.792 350.152 219.876 348.99 220.59 347.603L233.082 323.354H239.638C241.305 323.24 242.866 322.497 244.007 321.275C245.147 320.054 245.781 318.446 245.781 316.775C245.781 315.104 245.147 313.496 244.007 312.274C242.866 311.053 241.305 310.31 239.638 310.196L239.63 310.18Z" fill="#455A64"/>
<path d="M269.809 207.951C269.809 207.951 269.569 208.322 269.097 209.011L267.007 212.107L265.482 214.398C264.925 215.242 264.375 216.209 263.74 217.231L261.728 220.559C260.993 221.735 260.358 223.075 259.6 224.429C259.228 225.126 258.826 225.838 258.454 226.565C258.261 226.937 258.067 227.339 257.866 227.68C257.665 228.02 257.502 228.454 257.316 228.849C256.542 230.435 255.768 232.092 254.994 233.833L252.719 239.398C251.999 241.356 251.287 243.415 250.552 245.544C249.061 250.135 247.844 254.81 246.906 259.545C245.848 264.885 245.33 270.317 245.358 275.761V275.892H245.234L142.795 275.946H142.633V275.784C141.557 263.795 138.431 252.079 133.391 241.147C130.752 235.349 127.708 229.745 124.281 224.375C122.547 221.643 120.705 218.957 118.747 216.318C116.789 213.678 114.653 211.163 112.555 208.578L112.3 208.268H112.71L112.563 208.578C102.967 196.239 96.4197 181.81 93.4528 166.464C93.0348 164.498 92.7794 162.501 92.4698 160.504C92.3459 159.498 92.2531 158.492 92.1447 157.486L91.9899 155.938L91.8893 154.39C91.8351 153.376 91.7422 152.362 91.7113 151.34C91.6803 150.319 91.7113 149.297 91.6493 148.244C91.5874 147.192 91.6493 146.201 91.6493 145.148C91.6493 144.096 91.6493 143.089 91.7422 142.052C92.2108 133.748 93.6924 125.531 96.154 117.586C103.3 95.179 118.126 76.0136 138.02 63.468C142.759 60.4815 147.737 57.8927 152.904 55.728C157.977 53.6181 163.22 51.9428 168.577 50.7202C178.959 48.3285 189.656 47.6099 200.265 48.5917C205.368 49.075 210.428 49.9365 215.404 51.1691C220.238 52.4141 224.979 53.997 229.592 55.906C234.043 57.8228 238.364 60.0309 242.525 62.516C246.524 64.9749 250.359 67.6923 254.004 70.6507C260.894 76.314 266.997 82.8708 272.154 90.1478C276.919 96.8551 280.82 104.137 283.764 111.82C284.538 113.631 285.072 115.489 285.707 117.3C286.341 119.111 286.759 120.953 287.255 122.718C287.665 124.544 288.114 126.332 288.47 128.136C288.625 129.034 288.787 129.916 288.942 130.798C289.097 131.681 289.267 132.555 289.36 133.438C290.314 140.02 290.613 146.681 290.25 153.322C289.619 163.988 287.267 174.482 283.284 184.398C281.826 187.999 280.167 191.516 278.315 194.932C276.674 197.889 275.172 200.35 273.888 202.238L272.177 204.754L270.861 206.511L269.785 207.951L270.823 206.511L272.123 204.723L273.826 202.192C275.095 200.272 276.581 197.834 278.207 194.878C280.043 191.457 281.689 187.938 283.137 184.336C289.527 168.182 291.589 150.64 289.12 133.445C289.027 132.563 288.857 131.696 288.702 130.814C288.547 129.931 288.385 129.049 288.222 128.159C287.874 126.379 287.448 124.599 287.007 122.741C286.566 120.883 286.016 119.126 285.459 117.323C284.902 115.52 284.282 113.662 283.516 111.858C280.573 104.204 276.672 96.9535 271.906 90.2794C266.756 83.0416 260.665 76.5215 253.795 70.8907C250.155 67.9511 246.331 65.2469 242.347 62.7946C238.2 60.3193 233.892 58.124 229.452 56.2234C224.857 54.3232 220.135 52.7481 215.319 51.5097C210.359 50.2785 205.314 49.4221 200.226 48.9478C189.658 47.9725 179.002 48.6937 168.662 51.084C163.326 52.3014 158.103 53.9716 153.051 56.0763C147.905 58.2422 142.947 60.8311 138.229 63.8163C118.39 76.3551 103.624 95.5051 96.541 117.88C94.0883 125.795 92.6119 133.98 92.1447 142.253C92.0905 143.275 92.0828 144.297 92.0518 145.349C92.0209 146.402 91.9667 147.385 92.0131 148.407C92.0596 149.428 92.0518 150.442 92.075 151.456C92.0983 152.47 92.1911 153.484 92.2531 154.49L92.3459 156.038L92.5007 157.586C92.6091 158.585 92.7097 159.591 92.8336 160.59C93.1354 162.579 93.3908 164.568 93.8011 166.526C96.7539 181.812 103.272 196.185 112.826 208.477L113.074 208.794H112.671L112.826 208.477C114.939 211.039 117.114 213.547 119.018 216.217C120.922 218.887 122.826 221.565 124.56 224.305C127.999 229.686 131.049 235.307 133.685 241.124C138.749 252.094 141.89 263.851 142.973 275.885L142.803 275.722L245.242 275.776L245.118 275.908C245.104 270.45 245.638 265.005 246.712 259.654C247.645 254.907 248.855 250.219 250.335 245.613C251.109 243.485 251.798 241.426 252.525 239.468C253.253 237.51 254.073 235.675 254.847 233.895C255.621 232.115 256.449 230.497 257.169 228.918L257.719 227.749L258.315 226.635C258.709 225.907 259.089 225.195 259.468 224.499C260.242 223.129 260.877 221.79 261.612 220.629L263.64 217.308C264.275 216.287 264.832 215.319 265.397 214.483C265.962 213.647 266.488 212.889 266.945 212.215L269.066 209.119L269.84 208.074L269.809 207.951Z" fill="white"/>
<path d="M105.829 180.806C105.79 180.739 105.761 180.666 105.744 180.59C105.682 180.419 105.612 180.203 105.519 179.932C105.318 179.328 105.047 178.484 104.699 177.409L104.111 175.582C103.917 174.909 103.747 174.166 103.546 173.376C103.159 171.782 102.64 169.986 102.307 167.958C102.122 166.944 101.928 165.884 101.719 164.777C101.51 163.67 101.417 162.501 101.255 161.294C100.891 158.895 100.775 156.309 100.597 153.554C100.366 147.64 100.625 141.716 101.371 135.845C102.208 129.985 103.526 124.205 105.31 118.561C106.208 115.984 107.013 113.523 108.004 111.301C108.484 110.187 108.894 109.088 109.382 108.074L110.798 105.163C111.657 103.29 112.64 101.696 113.43 100.264C113.84 99.5597 114.204 98.8863 114.567 98.2903L115.62 96.6804L117.083 94.4668L117.47 93.9017C117.563 93.7702 117.609 93.7082 117.617 93.716C117.625 93.7237 117.617 93.7856 117.509 93.925L117.153 94.5132L115.752 96.7655L114.73 98.3832C114.374 98.9869 114.026 99.668 113.631 100.38C112.857 101.82 111.889 103.414 111.054 105.295L109.66 108.205C109.188 109.219 108.786 110.318 108.314 111.433C107.338 113.646 106.549 116.077 105.666 118.677C103.918 124.305 102.623 130.064 101.796 135.899C101.048 141.747 100.771 147.646 100.968 153.538C101.139 156.247 101.239 158.833 101.588 161.224C101.742 162.424 101.835 163.593 102.029 164.7C102.222 165.806 102.408 166.859 102.594 167.873C102.896 169.909 103.368 171.743 103.762 173.291C103.956 174.065 104.118 174.839 104.297 175.505C104.475 176.17 104.684 176.782 104.846 177.339C105.163 178.423 105.419 179.274 105.62 179.878L105.806 180.543C105.827 180.629 105.835 180.718 105.829 180.806Z" fill="white"/>
<path d="M135.396 76.626C133.711 78.3424 131.933 79.9651 130.071 81.4867C128.295 83.1129 126.426 84.635 124.475 86.0456C126.161 84.328 127.941 82.7052 129.807 81.1848C131.582 79.5605 133.448 78.0384 135.396 76.626Z" fill="white"/>
<path d="M270.9 192.037C270.9 192.037 270.9 191.975 270.97 191.859L271.202 191.356L272.123 189.452L272.796 188.082C273.036 187.579 273.268 187.014 273.57 186.418C274.081 185.218 274.723 183.879 275.288 182.339L276.217 179.932C276.535 179.096 276.806 178.206 277.115 177.292C277.765 175.474 278.299 173.484 278.895 171.395C280.087 166.844 280.982 162.222 281.573 157.555C282.109 152.88 282.344 148.174 282.278 143.469C282.193 141.301 282.154 139.235 281.953 137.277C281.867 136.317 281.813 135.388 281.705 134.498C281.597 133.608 281.48 132.756 281.38 131.944C281.202 130.311 280.9 128.848 280.691 127.571C280.575 126.928 280.482 126.325 280.374 125.775C280.265 125.225 280.141 124.738 280.041 124.289L279.6 122.215C279.561 121.998 279.522 121.82 279.499 121.673C279.489 121.611 279.489 121.549 279.499 121.487C279.525 121.544 279.546 121.604 279.561 121.665C279.6 121.812 279.646 121.982 279.7 122.199C279.832 122.702 280.002 123.383 280.219 124.25L280.583 125.736C280.706 126.286 280.807 126.882 280.931 127.524C281.163 128.809 281.488 130.272 281.705 131.905L282.061 134.459C282.177 135.357 282.239 136.286 282.332 137.253C282.549 139.173 282.603 141.247 282.696 143.445C282.934 152.905 281.792 162.349 279.306 171.48C278.694 173.57 278.145 175.566 277.479 177.385C277.154 178.299 276.883 179.189 276.55 180.025L275.598 182.424C275.018 183.972 274.36 185.303 273.826 186.495C273.547 187.091 273.307 187.649 273.052 188.152L272.34 189.506L271.349 191.379L271.086 191.859C271.036 191.93 270.973 191.99 270.9 192.037Z" fill="#263238"/>
<path d="M217.409 176.023L220.59 205.257L239.414 211.534L240.188 220.637L213.624 218.856C213.624 218.856 205.435 219.058 203.655 208.268L203.221 179.909L217.409 176.023Z" fill="#FFBE9D"/>
<path d="M256.473 220.482C256.306 220.68 256.082 220.823 255.832 220.892C255.582 220.961 255.317 220.953 255.072 220.869C254.964 220.836 254.862 220.786 254.77 220.722C254.104 220.304 254.561 218.841 254.561 218.841L251.248 217.362C251.248 217.362 245.962 219.081 243.849 220.582C241.736 222.084 238.052 219.444 238.052 219.444L238.586 211.704L246.496 207.618C246.496 207.618 246.016 207.858 246.744 206.89C247.471 205.923 249.367 206.89 249.367 206.89C249.816 206.441 251.179 206.596 251.179 206.596L256.597 208.717C257.146 208.935 257.64 209.274 258.042 209.708C258.444 210.141 258.743 210.66 258.919 211.225L260.296 215.598C260.296 215.598 260.838 218.632 260.474 219.205C260.317 219.444 260.076 219.617 259.799 219.69C259.522 219.763 259.228 219.73 258.973 219.599C258.973 219.599 258.199 221.294 257.742 221.24C257.269 221.088 256.828 220.849 256.442 220.536L256.473 220.482Z" fill="#FFBE9D"/>
<path d="M245.358 219.715C245.498 219.672 245.632 219.615 245.761 219.545L246.906 219.042C248.324 218.44 249.777 217.923 251.256 217.494H251.171L254.484 219.003L254.398 218.825C254.315 219.105 254.263 219.393 254.244 219.684C254.207 220.009 254.266 220.337 254.414 220.629C254.515 220.775 254.654 220.89 254.816 220.962C254.965 221.044 255.128 221.097 255.296 221.116C255.645 221.153 255.996 221.065 256.287 220.869C256.362 220.819 256.432 220.762 256.496 220.698L256.542 220.652H256.326L256.419 220.729L256.829 221C256.969 221.095 257.116 221.178 257.27 221.248C257.351 221.288 257.437 221.319 257.525 221.341C257.633 221.379 257.751 221.379 257.858 221.341C258.044 221.265 258.204 221.139 258.323 220.977C258.43 220.839 258.529 220.695 258.617 220.544C258.799 220.247 258.962 219.94 259.104 219.623L258.864 219.708C259.086 219.821 259.334 219.872 259.583 219.854C259.831 219.836 260.07 219.751 260.273 219.607C260.482 219.451 260.63 219.226 260.691 218.972C260.767 218.744 260.816 218.508 260.838 218.268C260.808 217.346 260.71 216.428 260.544 215.52C260.312 214.746 260.064 213.972 259.809 213.198C259.654 212.695 259.499 212.208 259.344 211.712C259.211 211.209 259.024 210.721 258.787 210.257C258.527 209.799 258.174 209.401 257.75 209.088C257.341 208.792 256.886 208.565 256.403 208.415L251.279 206.426H251.241C250.911 206.395 250.579 206.395 250.25 206.426C249.903 206.44 249.569 206.565 249.298 206.782H249.507C249.254 206.578 248.957 206.437 248.639 206.373C248.321 206.308 247.992 206.321 247.68 206.41C247.123 206.631 246.67 207.054 246.411 207.595L246.473 207.533L241.055 210.327L239.576 211.101C239.399 211.181 239.23 211.279 239.073 211.395C239.259 211.332 239.44 211.257 239.615 211.17L241.117 210.458L246.62 207.773H246.658V207.726C246.889 207.258 247.287 206.894 247.773 206.704C248.039 206.632 248.318 206.625 248.587 206.683C248.857 206.741 249.108 206.862 249.321 207.037L249.429 207.122L249.53 207.03C249.756 206.869 250.027 206.783 250.304 206.782C250.61 206.751 250.919 206.751 251.225 206.782H251.186L256.295 208.802C256.745 208.949 257.17 209.163 257.556 209.437C257.939 209.718 258.258 210.077 258.493 210.489C258.716 210.934 258.892 211.401 259.019 211.883C259.166 212.37 259.329 212.865 259.484 213.361C259.731 214.135 259.987 214.909 260.219 215.683C260.382 216.57 260.483 217.467 260.521 218.369C260.526 218.579 260.51 218.789 260.474 218.996C260.43 219.17 260.326 219.323 260.18 219.429C260.03 219.53 259.855 219.59 259.674 219.601C259.493 219.611 259.312 219.574 259.151 219.491L258.981 219.421L258.911 219.584C258.776 219.886 258.623 220.181 258.454 220.466C258.324 220.725 258.133 220.948 257.897 221.116C257.849 221.128 257.798 221.128 257.75 221.116C257.678 221.097 257.608 221.071 257.541 221.039C257.403 220.974 257.268 220.902 257.138 220.822C257.007 220.737 256.875 220.652 256.751 220.559L256.659 220.489C256.86 220.489 256.38 220.489 256.426 220.489L256.388 220.528C256.339 220.578 256.284 220.622 256.225 220.66C256 220.818 255.725 220.89 255.451 220.861C255.32 220.847 255.193 220.804 255.08 220.737C254.963 220.698 254.862 220.622 254.793 220.52C254.608 220.021 254.608 219.472 254.793 218.972V218.849L254.677 218.794L251.349 217.331H251.302H251.264C249.783 217.79 248.335 218.349 246.929 219.003C246.434 219.236 246.062 219.429 245.815 219.568C245.656 219.594 245.502 219.644 245.358 219.715Z" fill="#EB996E"/>
<path d="M249.793 209.057C250.293 209.475 250.851 209.816 251.449 210.071C252.889 210.778 254.413 211.298 255.985 211.619L255.83 211.449C255.83 211.743 255.877 212.061 255.915 212.386C256.142 214.196 256.715 215.946 257.603 217.541C257.867 218.022 258.167 218.482 258.5 218.918C258.74 219.228 258.887 219.383 258.903 219.367C258.918 219.352 258.454 218.64 257.835 217.417C257.043 215.821 256.52 214.105 256.287 212.339C256.248 212.022 256.225 211.712 256.202 211.426V211.302H256.055C254.509 210.992 253.002 210.518 251.558 209.886C250.459 209.367 249.824 208.98 249.793 209.057Z" fill="#EB996E"/>
<path d="M254.251 213.733C254.156 216.143 255.015 218.493 256.643 220.273C256.736 220.211 255.815 218.918 255.165 217.107C254.514 215.296 254.367 213.717 254.251 213.733Z" fill="#EB996E"/>
<path d="M237.541 216.898C237.541 216.898 237.587 216.96 237.696 217.053C237.85 217.186 238.016 217.305 238.191 217.409C238.842 217.829 239.567 218.121 240.327 218.268C241.494 218.494 242.701 218.386 243.81 217.959C245.216 217.404 246.39 216.385 247.138 215.072L246.898 215.149C248.639 215.987 250.527 216.473 252.456 216.581C252.973 216.634 253.496 216.603 254.004 216.488C254.289 216.424 254.541 216.256 254.708 216.016C254.785 215.894 254.835 215.757 254.857 215.615C254.878 215.472 254.87 215.327 254.832 215.188C254.758 214.91 254.577 214.674 254.329 214.53L253.725 214.197C252.131 213.338 250.629 212.649 249.406 212.084C248.183 211.519 247.084 211.132 246.403 210.869C246.037 210.712 245.656 210.592 245.265 210.513C245.614 210.703 245.977 210.868 246.349 211.008C247.053 211.31 248.059 211.782 249.298 212.324C250.536 212.866 251.984 213.632 253.555 214.507L254.151 214.839C254.231 214.886 254.302 214.948 254.358 215.023C254.414 215.097 254.454 215.182 254.476 215.273C254.5 215.365 254.506 215.461 254.493 215.555C254.48 215.65 254.448 215.741 254.398 215.822C254.279 215.983 254.101 216.092 253.903 216.124C253.435 216.225 252.955 216.251 252.479 216.202C250.602 216.087 248.763 215.617 247.061 214.816L246.906 214.739L246.821 214.894C246.13 216.139 245.039 217.115 243.725 217.664C242.672 218.094 241.52 218.225 240.397 218.044C239.657 217.923 238.943 217.679 238.284 217.324C237.788 217.053 237.556 216.875 237.541 216.898Z" fill="#EB996E"/>
<path d="M260.25 326.141C260.305 325.901 260.305 325.652 260.25 325.413C260.137 324.749 259.887 324.116 259.515 323.555C259.394 323.357 259.245 323.177 259.073 323.021C258.966 322.92 258.833 322.849 258.689 322.816C258.544 322.784 258.394 322.79 258.253 322.836C258.168 322.866 258.092 322.915 258.029 322.98C257.965 323.044 257.918 323.122 257.889 323.207C257.837 323.365 257.837 323.536 257.889 323.695C257.995 323.964 258.125 324.223 258.276 324.469C258.555 324.949 258.795 325.428 259.159 325.97C259.269 326.124 259.418 326.246 259.59 326.324C259.763 326.401 259.953 326.432 260.142 326.411C260.486 326.351 260.81 326.208 261.086 325.993C261.596 325.62 262.061 325.189 262.471 324.709C262.668 324.482 262.852 324.244 263.021 323.997C263.209 323.752 263.348 323.473 263.431 323.176C263.475 323.002 263.458 322.818 263.382 322.656C263.305 322.494 263.175 322.363 263.013 322.286C262.861 322.242 262.7 322.238 262.546 322.273C262.392 322.308 262.249 322.382 262.131 322.487C261.781 322.795 261.472 323.146 261.21 323.532C260.824 324.077 260.517 324.674 260.296 325.305C260.194 325.525 260.141 325.766 260.142 326.009C260.503 325.194 260.944 324.416 261.457 323.687C261.715 323.337 262.014 323.02 262.348 322.743C262.416 322.68 262.5 322.635 262.59 322.612C262.681 322.589 262.775 322.588 262.866 322.611C262.943 322.656 263.001 322.726 263.032 322.809C263.063 322.892 263.065 322.984 263.036 323.068C262.962 323.308 262.841 323.532 262.68 323.726C262.518 323.958 262.34 324.182 262.154 324.399C261.756 324.846 261.312 325.251 260.83 325.606C260.604 325.78 260.338 325.897 260.056 325.947C259.942 325.962 259.825 325.945 259.72 325.897C259.614 325.849 259.525 325.772 259.46 325.676C259.159 325.235 258.872 324.685 258.586 324.236C258.451 324.023 258.329 323.8 258.222 323.571C258.145 323.362 258.222 323.223 258.33 323.168C258.663 323.029 258.988 323.408 259.213 323.726C259.71 324.457 260.062 325.277 260.25 326.141Z" fill="#263238"/>
<path d="M241.356 326.791L231.976 347.124L216.836 340.127L226.534 314.964L241.356 326.791Z" fill="#FFBE9D"/>
<path d="M233.748 345.761L228.26 356.218C228.26 356.218 242.262 370.746 240.977 373.966L207.989 358.153L217.053 337.186L233.748 345.761Z" fill="white"/>
<path d="M218.748 349.895C218.385 349.84 218.015 349.922 217.708 350.123C217.401 350.324 217.179 350.631 217.084 350.986C217.012 351.347 217.082 351.721 217.279 352.031C217.477 352.342 217.787 352.563 218.144 352.65C218.531 352.716 218.928 352.633 219.256 352.417C219.583 352.202 219.817 351.87 219.909 351.489C219.942 351.105 219.825 350.723 219.583 350.422C219.34 350.122 218.991 349.928 218.609 349.879" fill="#E0E0E0"/>
<g opacity="0.6">
<path d="M207.989 358.153L209.367 355.521L240.474 371.675C240.474 371.675 241.643 373.014 240.977 373.997L207.989 358.153Z" fill="white"/>
</g>
<path d="M228.88 356.303C228.795 356.466 227.959 356.148 226.914 356.303C225.869 356.458 225.126 356.915 225.01 356.783C224.894 356.652 225.582 355.831 226.844 355.684C228.106 355.537 228.988 356.172 228.88 356.303Z" fill="#263238"/>
<path d="M231.651 359.399C231.612 359.57 230.784 359.508 229.909 359.926C229.034 360.344 228.531 360.994 228.361 360.909C228.191 360.823 228.539 359.864 229.638 359.361C230.737 358.858 231.72 359.237 231.651 359.399Z" fill="#263238"/>
<path d="M231.635 364.477C231.472 364.477 231.635 363.533 232.471 362.844C233.307 362.155 234.228 362.17 234.228 362.341C234.228 362.511 233.539 362.759 232.866 363.324C232.192 363.889 231.798 364.554 231.635 364.477Z" fill="#263238"/>
<path d="M230.451 352.278C230.312 352.395 229.677 351.814 228.74 351.442C227.804 351.071 226.952 351.017 226.937 350.839C226.921 350.661 227.873 350.413 228.98 350.839C230.087 351.264 230.59 352.17 230.451 352.278Z" fill="#263238"/>
<path d="M236.844 343.052L261.574 281.132C261.574 281.132 261.016 270.575 259.073 267.239C257.131 263.903 198.214 244.452 198.214 244.452C198.214 244.452 183.206 240.838 173.206 244.452C163.206 248.067 155.698 260.567 157.083 267.518C158.469 274.468 164.862 280.118 164.862 280.118L207.664 280.892L231.271 289.476L215.366 335.057L236.844 343.052Z" fill="#263238"/>
<path d="M258.833 300.753L259.391 323.145L242.719 323.547L240.319 296.69L258.833 300.753Z" fill="#FFBE9D"/>
<path d="M260.381 321.141L260.064 332.944C260.064 332.944 279.058 339.771 279.306 343.261L242.727 343.633L241.604 320.815L260.381 321.141Z" fill="white"/>
<path d="M248.748 331.473C248.397 331.584 248.099 331.821 247.912 332.138C247.725 332.455 247.662 332.831 247.734 333.192C247.833 333.546 248.063 333.85 248.378 334.04C248.694 334.23 249.07 334.292 249.429 334.213C249.805 334.1 250.123 333.848 250.319 333.509C250.516 333.17 250.577 332.769 250.49 332.387C250.351 332.028 250.078 331.737 249.728 331.575C249.379 331.413 248.98 331.393 248.617 331.52" fill="#E0E0E0"/>
<g opacity="0.6">
<path d="M242.742 343.656L242.812 340.692L277.858 341.466C277.858 341.466 279.499 342.154 279.321 343.308L242.742 343.656Z" fill="white"/>
</g>
<path d="M260.668 332.751C260.668 332.929 259.77 333.021 258.903 333.602C258.036 334.182 257.564 334.941 257.402 334.871C257.239 334.802 257.494 333.772 258.563 333.083C259.631 332.394 260.707 332.588 260.668 332.751Z" fill="#263238"/>
<path d="M264.522 334.298C264.569 334.469 263.795 334.786 263.199 335.545C262.603 336.303 262.425 337.093 262.255 337.093C262.084 337.093 261.953 336.079 262.711 335.142C263.47 334.206 264.515 334.128 264.522 334.298Z" fill="#263238"/>
<path d="M266.751 338.865C266.589 338.911 266.326 338.021 266.751 337.038C267.177 336.055 268.036 335.653 268.114 335.8C268.191 335.947 267.68 336.481 267.34 337.294C266.999 338.106 266.922 338.85 266.751 338.865Z" fill="#263238"/>
<path d="M260.304 328.447C260.234 328.609 259.406 328.37 258.4 328.447C257.394 328.524 256.604 328.849 256.511 328.702C256.419 328.555 257.169 327.928 258.361 327.828C259.553 327.727 260.389 328.3 260.304 328.447Z" fill="#263238"/>
<path d="M249.096 238.601C249.096 238.601 259.089 237.827 260.196 248.663C261.302 259.499 262.386 310.057 262.386 310.057L239.042 312.007L235.428 260.319L198.19 244.476C198.19 244.476 242.425 237.216 249.096 238.601Z" fill="#263238"/>
<path d="M207.927 223.98C207.927 223.98 213.988 241.008 212.835 242.874C211.681 244.739 196.085 252.556 196.085 252.556L157.076 267.541C157.076 267.541 153.074 261.171 153.074 251.38C153.074 241.589 166.642 223.98 166.642 223.98H207.927Z" fill="#263238"/>
<path d="M196.364 243.609C196.364 243.609 196.418 243.648 196.542 243.71L197.099 243.965L199.259 244.925L207.37 248.454L235.366 260.505L235.234 260.327C235.59 265.436 235.969 270.954 236.372 276.659C237.316 289.995 238.191 302.286 238.887 312.015V312.193H239.065L256.093 310.699L260.737 310.266L261.96 310.134C262.101 310.125 262.241 310.105 262.378 310.072H261.96L260.73 310.15L256.039 310.498L239.011 311.837L239.197 312C238.531 302.27 237.688 289.972 236.774 276.635C236.372 270.931 236 265.412 235.621 260.312V260.18L235.505 260.134L207.447 248.222L199.29 244.801L197.107 243.903L196.534 243.679L196.364 243.609Z" fill="#455A64"/>
<path d="M165.334 245.312C165.709 245.243 166.076 245.142 166.433 245.01L169.367 244.065C172.573 242.98 175.86 242.149 179.197 241.581C182.532 241.034 185.938 241.076 189.259 241.705C190.622 242.025 191.968 242.415 193.291 242.874C192.974 242.664 192.634 242.493 192.277 242.363C191.324 241.958 190.338 241.64 189.328 241.411C185.978 240.676 182.518 240.587 179.135 241.147C175.772 241.726 172.471 242.618 169.274 243.81C168.043 244.243 167.053 244.623 166.379 244.886C166.017 244.992 165.667 245.135 165.334 245.312Z" fill="#455A64"/>
<path d="M170.853 236.349C171.987 236.279 173.124 236.279 174.258 236.349C175.311 236.418 176.58 236.581 177.958 236.743C179.336 236.906 180.868 237.092 182.447 237.394C185.158 237.827 187.756 238.789 190.094 240.226C191.025 240.877 191.909 241.59 192.742 242.363C192.591 242.091 192.401 241.843 192.176 241.627C191.601 241.008 190.96 240.452 190.265 239.971C187.929 238.427 185.29 237.403 182.525 236.968C180.923 236.658 179.382 236.488 177.989 236.341C176.596 236.194 175.342 236.07 174.274 236.039C173.429 236.002 172.582 236.038 171.743 236.147C171.438 236.169 171.138 236.237 170.853 236.349Z" fill="#455A64"/>
<path d="M188.082 99.761C183.593 98.987 179.645 100.721 175.861 103.252C172.085 105.857 169.195 109.554 167.579 113.848C165.781 118.337 165.493 123.29 166.758 127.958C167.408 130.272 168.519 132.43 170.024 134.303C171.53 136.176 173.4 137.725 175.52 138.856C181.356 141.82 188.825 140.791 194.05 136.843C199.274 132.896 202.262 126.363 202.509 119.815C202.747 115.275 201.55 110.774 199.088 106.951C197.845 105.062 196.227 103.448 194.333 102.211C192.44 100.974 190.312 100.14 188.082 99.761Z" fill="#263238"/>
<path d="M175.319 115.024C175.977 113.306 175.721 111.386 175.977 109.567C176.549 105.558 179.777 102.346 183.515 100.783C186.991 99.3274 191.255 99.6448 195.42 100.999C198.324 101.882 200.917 103.574 202.896 105.875C204.158 107.437 205.026 109.278 205.43 111.244C205.834 113.21 205.762 115.244 205.218 117.176L184.715 114.196C182.796 115.783 180.845 117.393 178.523 118.283C177.852 118.579 177.116 118.696 176.387 118.623C176.023 118.581 175.678 118.434 175.396 118.201C175.113 117.967 174.903 117.657 174.792 117.307C174.568 116.533 175.032 115.767 175.319 115.024Z" fill="#263238"/>
<path d="M195.822 106.657L177.919 110.45C177.089 110.513 176.312 110.884 175.739 111.489C175.167 112.094 174.84 112.891 174.823 113.724L175.04 152.47C175.057 155.114 175.943 157.679 177.563 159.769L179.274 161.975C183.144 166.998 191.047 166.488 194.019 160.876C194.2 160.557 194.341 160.216 194.437 159.862C194.491 159.514 194.584 159.282 194.599 158.987L194.947 155.21C195.118 151.758 195.141 148.244 195.141 148.291C195.141 148.337 202.471 147.362 204.344 137.919C205.28 133.229 205.342 125.473 205.188 119.126C205.064 113.414 201.557 106.278 195.822 106.657Z" fill="#FFBE9D"/>
<path d="M202.184 127.044C202.174 127.362 202.041 127.663 201.813 127.884C201.585 128.105 201.279 128.229 200.962 128.229C200.806 128.235 200.651 128.21 200.505 128.156C200.36 128.101 200.226 128.018 200.113 127.911C200 127.805 199.909 127.676 199.846 127.534C199.783 127.392 199.749 127.239 199.746 127.083C199.754 126.765 199.887 126.463 200.116 126.241C200.344 126.02 200.651 125.897 200.969 125.899C201.125 125.892 201.28 125.916 201.427 125.97C201.573 126.024 201.707 126.107 201.82 126.214C201.933 126.321 202.024 126.449 202.087 126.592C202.149 126.735 202.183 126.889 202.184 127.044Z" fill="#263238"/>
<path d="M203.361 123.066C203.206 123.221 202.308 122.501 201 122.455C199.692 122.408 198.678 123.027 198.562 122.865C198.446 122.702 198.663 122.509 199.096 122.215C199.678 121.847 200.359 121.666 201.047 121.696C201.729 121.72 202.385 121.961 202.92 122.385C203.314 122.733 203.438 123.066 203.361 123.066Z" fill="#263238"/>
<path d="M190.071 126.417C190.061 126.735 189.928 127.036 189.7 127.257C189.471 127.478 189.166 127.602 188.848 127.602C188.694 127.607 188.539 127.581 188.395 127.526C188.25 127.471 188.117 127.388 188.005 127.281C187.893 127.175 187.803 127.047 187.74 126.905C187.678 126.764 187.644 126.611 187.641 126.456C187.649 126.138 187.782 125.836 188.01 125.614C188.239 125.393 188.545 125.27 188.864 125.272C189.019 125.266 189.174 125.291 189.319 125.345C189.464 125.4 189.597 125.483 189.709 125.59C189.822 125.697 189.912 125.825 189.974 125.967C190.036 126.109 190.069 126.262 190.071 126.417Z" fill="#263238"/>
<path d="M190.915 122.772C190.76 122.927 189.862 122.207 188.547 122.161C187.231 122.114 186.225 122.733 186.116 122.563C186.008 122.393 186.217 122.207 186.642 121.921C187.226 121.55 187.91 121.369 188.601 121.402C189.283 121.425 189.939 121.667 190.474 122.091C190.869 122.416 190.992 122.702 190.915 122.772Z" fill="#263238"/>
<path d="M194.847 132.741C195.547 132.554 196.267 132.453 196.991 132.439C197.324 132.439 197.649 132.362 197.711 132.137C197.754 131.793 197.689 131.444 197.525 131.139C197.246 130.318 196.944 129.452 196.635 128.554C195.404 124.869 194.522 121.843 194.669 121.797C194.816 121.75 195.938 124.691 197.177 128.376C197.471 129.281 197.757 130.148 198.02 130.976C198.219 131.388 198.263 131.858 198.144 132.3C198.092 132.416 198.014 132.518 197.916 132.599C197.818 132.679 197.703 132.736 197.579 132.764C197.391 132.809 197.199 132.829 197.006 132.826C196.286 132.89 195.56 132.861 194.847 132.741Z" fill="#263238"/>
<path d="M195.149 148.291C190.676 148.19 186.319 146.851 182.563 144.421C182.563 144.421 185.505 151.123 195.048 150.613L195.149 148.291Z" fill="#EB996E"/>
<path d="M194.173 135.883C193.938 135.556 193.622 135.295 193.256 135.127C192.889 134.958 192.485 134.888 192.084 134.924C191.786 134.939 191.495 135.016 191.229 135.149C190.962 135.282 190.726 135.469 190.536 135.698C190.354 135.908 190.241 136.169 190.212 136.446C190.182 136.723 190.239 137.002 190.373 137.246C190.572 137.493 190.842 137.673 191.147 137.761C191.451 137.85 191.776 137.843 192.076 137.741C192.702 137.548 193.284 137.233 193.786 136.812C193.939 136.712 194.071 136.584 194.173 136.433C194.222 136.361 194.249 136.276 194.249 136.189C194.249 136.102 194.222 136.017 194.173 135.945" fill="#EB996E"/>
<path d="M190.954 133.5C191.17 133.5 191.116 134.916 192.293 135.976C193.469 137.037 194.994 136.936 194.994 137.137C194.994 137.222 194.646 137.4 194.011 137.393C193.176 137.371 192.376 137.056 191.751 136.503C191.15 135.972 190.778 135.228 190.714 134.428C190.683 133.832 190.861 133.484 190.954 133.5Z" fill="#263238"/>
<path d="M190.837 118.886C190.698 119.235 189.398 119.018 187.85 119.142C186.302 119.266 185.048 119.637 184.854 119.312C184.769 119.15 185.001 118.825 185.512 118.499C186.198 118.103 186.964 117.867 187.754 117.811C188.544 117.755 189.336 117.879 190.071 118.174C190.628 118.422 190.907 118.716 190.837 118.886Z" fill="#263238"/>
<path d="M203.206 117.346C202.958 117.633 202.068 117.292 200.985 117.238C199.901 117.184 198.972 117.354 198.771 117.037C198.686 116.882 198.841 116.588 199.259 116.325C199.806 115.999 200.443 115.852 201.078 115.907C201.715 115.943 202.326 116.175 202.827 116.572C203.198 116.874 203.314 117.207 203.206 117.346Z" fill="#263238"/>
<path d="M172.037 112.23C173.895 106.812 181.998 99.3508 187.734 99.8462L196.79 105.527C196.462 107.087 195.718 108.529 194.638 109.701C193.557 110.873 192.18 111.731 190.652 112.184C189.019 112.64 187.068 112.741 186.07 114.119C185.071 115.496 185.598 117.602 184.645 119.057C183.337 121.062 179.87 120.899 178.871 123.082C178.438 124.034 178.632 125.187 178.175 126.139C177.571 127.393 174.305 128.941 173.005 128.461C171.704 127.981 171.72 125.752 171.309 124.591C170.786 123.24 170.747 121.749 171.201 120.373C171.828 117.733 171.147 114.854 172.037 112.23Z" fill="#263238"/>
<path d="M176.906 129.738C176.906 129.034 176.178 127.339 175.489 127.199C173.632 126.836 170.265 126.859 170.071 131.588C169.777 138.066 176.341 137.006 176.356 136.843C176.371 136.681 176.82 132.184 176.906 129.738Z" fill="#FFBE9D"/>
<path d="M174.467 134.297C174.467 134.297 174.351 134.374 174.158 134.452C173.887 134.56 173.585 134.56 173.314 134.452C172.641 134.173 172.114 133.059 172.138 131.89C172.144 131.333 172.276 130.786 172.525 130.288C172.595 130.088 172.713 129.908 172.868 129.764C173.023 129.62 173.21 129.515 173.415 129.459C173.546 129.433 173.682 129.452 173.8 129.514C173.919 129.576 174.012 129.677 174.065 129.8C174.142 129.986 174.065 130.117 174.127 130.125C174.189 130.133 174.274 130.024 174.235 129.754C174.202 129.592 174.118 129.446 173.995 129.336C173.825 129.193 173.605 129.124 173.384 129.142C173.116 129.184 172.863 129.293 172.649 129.46C172.435 129.626 172.267 129.845 172.161 130.094C171.856 130.642 171.692 131.256 171.681 131.882C171.681 133.19 172.277 134.436 173.229 134.754C173.4 134.811 173.582 134.829 173.761 134.808C173.941 134.787 174.113 134.726 174.266 134.63C174.452 134.452 174.491 134.312 174.467 134.297Z" fill="#EB996E"/>
<path d="M170.652 110.574C170.652 108.554 168.144 107.23 166.17 106.766C164.154 106.419 162.081 106.815 160.334 107.88C159.289 108.453 158.244 109.258 158.012 110.427C157.78 111.595 158.902 112.973 160.009 112.555C159.451 112.721 158.938 113.01 158.507 113.402C158.076 113.793 157.739 114.277 157.521 114.817C157.303 115.357 157.21 115.939 157.248 116.519C157.287 117.1 157.455 117.665 157.742 118.172C158.029 118.678 158.426 119.114 158.905 119.445C159.383 119.777 159.93 119.997 160.505 120.088C161.08 120.179 161.668 120.139 162.225 119.971C162.783 119.803 163.295 119.512 163.724 119.119C163.16 120.991 161.972 122.613 160.357 123.716C162.035 123.956 163.745 123.749 165.317 123.117C166.889 122.485 168.266 121.449 169.31 120.115C170.354 118.78 171.028 117.194 171.263 115.516C171.499 113.839 171.288 112.128 170.652 110.558V110.574Z" fill="#263238"/>
<path d="M166.155 120.876C165.966 120.246 165.885 119.589 165.915 118.933C165.884 115.733 166.934 112.616 168.895 110.086C169.269 109.547 169.729 109.074 170.257 108.685C170.381 108.77 168.206 110.922 167.068 114.397C165.93 117.872 166.302 120.876 166.155 120.876Z" fill="white"/>
<path d="M194.909 103.616C195.505 106.255 199.514 109.637 201.271 111.688C204.63 115.605 205.288 116.905 205.257 125.62C206.805 122.594 208.051 119.63 207.927 116.224C207.856 112.774 206.523 109.47 204.181 106.936C203.002 105.691 201.548 104.739 199.935 104.156C198.323 103.573 196.596 103.375 194.893 103.577" fill="#263238"/>
<path d="M222.37 175.652C222.37 175.652 215.404 164.042 213.454 161.665C211.896 159.848 209.942 158.413 207.742 157.47C206.87 157.106 205.958 156.847 205.025 156.696L194.963 154.475C194.963 154.475 194.963 161.317 187.772 161.743C180.582 162.169 174.553 152.168 174.553 152.168C174.553 152.168 162.943 153.964 160.179 155.388C157.416 156.812 153.051 158.631 150.651 170.644L148.964 182.393L168.98 184.212L170.892 213.918L180.806 220.822C180.806 220.822 208.291 227.966 210.048 228.438C211.805 228.911 212.37 184.212 212.37 184.212C212.37 184.212 219.445 179.653 222.37 175.652Z" fill="white"/>
<path d="M209.212 170.659C209.373 170.928 209.503 171.213 209.599 171.511C209.824 172.076 210.118 172.896 210.443 173.933C212.12 179.331 212.812 184.986 212.486 190.629C212.417 191.704 212.339 192.579 212.246 193.175C212.225 193.487 212.171 193.796 212.084 194.096C212.047 193.785 212.047 193.471 212.084 193.16C212.122 192.556 212.169 191.689 212.192 190.613C212.267 187.813 212.138 185.012 211.805 182.231C211.456 179.455 210.908 176.708 210.164 174.011C209.878 172.974 209.622 172.138 209.444 171.565C209.336 171.272 209.258 170.968 209.212 170.659Z" fill="#263238"/>
<path d="M208.361 219.313L170.721 211.124L168.98 184.212L152.246 182.664C152.246 182.664 152.865 201.054 153.507 206.526C154.429 214.39 159.08 225.102 161.797 227.262C164.514 229.421 210.048 228.438 210.048 228.438L208.361 219.313Z" fill="#FFBE9D"/>
<path d="M229.723 224.189C229.598 224.45 229.397 224.667 229.148 224.813C228.898 224.959 228.611 225.028 228.322 225.01C228.199 224.998 228.076 224.972 227.959 224.932C227.123 224.669 227.185 222.974 227.185 222.974L223.199 222.324C223.199 222.324 218.013 225.668 216.163 227.881C214.313 230.095 209.615 228.307 209.615 228.307L207.982 219.793L215.327 213.152C215.327 213.152 214.87 213.555 215.381 212.308C215.892 211.062 218.191 211.534 218.191 211.534C218.555 210.923 220.056 210.698 220.056 210.698L226.496 211.472C227.151 211.548 227.781 211.769 228.34 212.12C228.898 212.471 229.371 212.943 229.723 213.5L232.448 217.812C232.448 217.812 233.887 220.908 233.655 221.643C233.552 221.943 233.342 222.196 233.065 222.351C232.789 222.507 232.464 222.555 232.154 222.487C232.154 222.487 231.836 224.53 231.302 224.6C230.751 224.571 230.211 224.44 229.708 224.213L229.723 224.189Z" fill="#FFBE9D"/>
<path d="M216.016 218.082C216.016 218.152 216.883 218.082 218.252 218.137C220.042 218.216 221.811 218.547 223.508 219.12C224.442 219.432 225.351 219.818 226.225 220.273C226.999 220.714 227.811 221.047 228.059 221.643C228.117 221.767 228.141 221.903 228.128 222.039C228.116 222.175 228.068 222.305 227.989 222.417C227.873 222.601 227.703 222.744 227.502 222.827C227.319 222.886 227.129 222.915 226.937 222.912C226.937 222.912 227.138 223.09 227.556 222.974C227.803 222.903 228.02 222.754 228.175 222.548C228.286 222.408 228.359 222.242 228.386 222.066C228.413 221.889 228.394 221.709 228.33 221.542C228.169 221.169 227.899 220.853 227.556 220.637C227.208 220.404 226.844 220.172 226.434 219.948C225.55 219.463 224.625 219.056 223.67 218.733C221.937 218.148 220.12 217.85 218.291 217.85C217.525 217.814 216.758 217.893 216.016 218.082Z" fill="#EB996E"/>
<path d="M215.567 222.192C215.567 222.316 218.198 222.192 221.418 222.394C224.638 222.595 227.231 222.974 227.247 222.858C226.71 222.646 226.148 222.508 225.575 222.448C224.207 222.215 222.827 222.06 221.442 221.983C220.055 221.906 218.664 221.906 217.277 221.983C216.7 221.974 216.125 222.044 215.567 222.192Z" fill="#EB996E"/>
<path d="M229.685 224.027C229.743 223.804 229.772 223.575 229.77 223.345C229.809 222.717 229.809 222.086 229.77 221.457C229.748 221.017 229.688 220.579 229.592 220.149C229.476 219.644 229.26 219.168 228.957 218.748C228.326 217.774 227.508 216.934 226.55 216.279C225.596 215.62 224.554 215.098 223.454 214.731C222.547 214.472 221.611 214.332 220.668 214.313C219.894 214.313 219.228 214.313 218.787 214.313C218.555 214.298 218.322 214.321 218.098 214.383C218.945 214.499 219.798 214.569 220.652 214.591C221.563 214.653 222.465 214.819 223.338 215.087C224.388 215.469 225.382 215.99 226.295 216.635C227.206 217.258 227.994 218.045 228.617 218.957C229.119 219.704 229.408 220.573 229.452 221.472C229.638 223.044 229.6 224.034 229.685 224.027Z" fill="#EB996E"/>
<path d="M220.381 212.347C220.381 212.409 221.349 212.432 222.889 212.61C224.429 212.788 226.759 212.943 228.09 214.986C229.402 216.513 230.496 218.214 231.341 220.041C231.617 220.823 231.821 221.629 231.952 222.448C232.007 222.225 232.02 221.994 231.991 221.767C231.952 221.143 231.824 220.528 231.612 219.94C230.832 218.042 229.75 216.283 228.407 214.731C228.048 214.258 227.629 213.834 227.161 213.469C226.697 213.133 226.171 212.891 225.613 212.757C224.72 212.521 223.804 212.376 222.881 212.324C222.05 212.222 221.21 212.23 220.381 212.347Z" fill="#EB996E"/>
<path d="M217.587 226.511C217.727 226.429 217.857 226.33 217.974 226.217C218.253 226 218.609 225.706 219.05 225.35C220.404 224.3 221.818 223.328 223.284 222.44H223.191L227.177 223.121L227.037 222.951C227.029 223.278 227.055 223.605 227.115 223.926C227.168 224.283 227.324 224.616 227.564 224.886C227.715 225.015 227.901 225.098 228.098 225.126C228.282 225.164 228.471 225.164 228.655 225.126C229.041 225.068 229.393 224.873 229.646 224.576C229.714 224.506 229.773 224.428 229.824 224.344L229.863 224.282V224.243L229.63 224.329L229.754 224.375L230.265 224.561C230.443 224.615 230.621 224.661 230.815 224.7C230.912 224.708 231.011 224.708 231.109 224.7C231.237 224.71 231.365 224.686 231.48 224.63C231.656 224.492 231.79 224.307 231.867 224.096C231.948 223.921 232.015 223.74 232.068 223.555C232.177 223.184 232.263 222.806 232.324 222.425L232.092 222.587C232.362 222.642 232.643 222.624 232.904 222.534C233.166 222.444 233.398 222.286 233.578 222.076C233.757 221.858 233.853 221.584 233.849 221.302C233.835 221.039 233.789 220.779 233.709 220.528C233.413 219.546 233.045 218.586 232.61 217.657C232.154 216.921 231.658 216.147 231.163 215.335L230.242 213.88C229.957 213.372 229.617 212.897 229.228 212.463C228.819 212.048 228.329 211.722 227.788 211.503C227.258 211.31 226.703 211.195 226.14 211.163L220.071 210.482H220.025C219.661 210.543 219.304 210.636 218.957 210.76C218.588 210.873 218.265 211.101 218.036 211.41L218.26 211.341C217.931 211.19 217.57 211.122 217.209 211.142C216.847 211.163 216.496 211.271 216.186 211.457C215.65 211.851 215.284 212.435 215.164 213.09L215.218 213.005L210.157 217.556C209.584 218.075 209.135 218.493 208.794 218.81C208.627 218.946 208.474 219.099 208.338 219.267C208.521 219.152 208.692 219.02 208.848 218.872L210.265 217.68L215.42 213.229V213.175C215.532 212.608 215.852 212.103 216.318 211.759C216.582 211.608 216.879 211.523 217.184 211.511C217.488 211.499 217.791 211.56 218.067 211.689L218.206 211.743L218.291 211.619C218.493 211.38 218.763 211.207 219.065 211.124C219.388 211.013 219.719 210.93 220.056 210.876H220.01L226.07 211.589C226.599 211.619 227.121 211.728 227.618 211.914C228.11 212.108 228.555 212.403 228.926 212.78C229.29 213.194 229.61 213.646 229.878 214.127L230.799 215.582L232.254 217.904C232.678 218.813 233.04 219.749 233.338 220.706C233.406 220.928 233.45 221.156 233.469 221.387C233.479 221.589 233.41 221.786 233.276 221.937C233.144 222.091 232.973 222.206 232.781 222.27C232.589 222.335 232.382 222.345 232.185 222.301H231.983V222.494C231.923 222.86 231.843 223.221 231.743 223.578C231.68 223.895 231.536 224.191 231.325 224.437C231.274 224.445 231.222 224.445 231.171 224.437C231.088 224.445 231.005 224.445 230.923 224.437C230.753 224.406 230.585 224.364 230.42 224.313C230.257 224.267 230.095 224.205 229.932 224.143L229.816 224.096L229.584 224.181V224.228C229.547 224.297 229.503 224.362 229.452 224.421C229.253 224.652 228.979 224.805 228.678 224.855C228.533 224.882 228.383 224.882 228.237 224.855C228.103 224.842 227.976 224.788 227.873 224.7C227.535 224.215 227.381 223.625 227.44 223.036V222.889H227.308L223.315 222.262H223.26H223.222C221.757 223.174 220.358 224.188 219.034 225.296C218.578 225.683 218.26 226 217.997 226.217C217.851 226.301 217.713 226.4 217.587 226.511Z" fill="#EB996E"/>
<path d="M270.947 199.46L221.372 199.862C219.762 199.862 218.229 200.636 217.99 202.184L212.572 238.322H187.03C186.635 238.322 186.257 238.479 185.979 238.758C185.7 239.036 185.543 239.414 185.543 239.809C185.543 240.203 185.7 240.581 185.979 240.859C186.257 241.138 186.635 241.295 187.03 241.295H268.578L274.151 203.16C274.215 202.701 274.18 202.233 274.049 201.789C273.917 201.344 273.692 200.933 273.389 200.582C273.085 200.232 272.71 199.951 272.289 199.757C271.868 199.563 271.41 199.462 270.947 199.46Z" fill="#E0E0E0"/>
<path d="M270.946 199.46C271.207 199.443 271.468 199.466 271.72 199.53C272.483 199.71 273.156 200.157 273.617 200.791C273.954 201.244 274.165 201.778 274.228 202.339C274.246 203.025 274.186 203.71 274.05 204.383L273.33 209.414C272.239 216.983 270.668 227.904 268.733 241.326V241.457H268.578L189.452 241.504H187.308C186.919 241.543 186.527 241.471 186.178 241.295C185.819 241.1 185.543 240.781 185.404 240.397C185.266 240.018 185.267 239.602 185.409 239.224C185.551 238.846 185.824 238.532 186.178 238.338C186.522 238.162 186.909 238.09 187.293 238.129H212.533L212.339 238.291L217.757 202.448C217.807 201.724 218.134 201.047 218.671 200.559C219.213 200.109 219.869 199.82 220.567 199.723C221.231 199.662 221.897 199.639 222.564 199.653H224.514L231.976 199.607L245.242 199.522L264.128 199.429H269.182H270.482H270.923C270.923 199.429 270.776 199.429 270.482 199.429H269.182L264.128 199.506L245.242 199.715L231.976 199.847L224.514 199.917H222.571C221.921 199.904 221.269 199.928 220.621 199.986C219.981 200.074 219.38 200.343 218.887 200.76C218.418 201.202 218.14 201.811 218.113 202.455C216.496 213.291 214.7 225.358 212.765 238.299V238.47H187.308C186.992 238.43 186.672 238.484 186.387 238.624C186.124 238.774 185.922 239.01 185.815 239.293C185.707 239.575 185.702 239.886 185.799 240.172C185.907 240.46 186.113 240.701 186.379 240.853C186.668 241.001 186.994 241.06 187.316 241.024H189.444L268.57 241.07L268.416 241.202L273.145 209.297C273.431 207.417 273.679 205.737 273.919 204.274C274.056 203.615 274.124 202.943 274.12 202.27C274.069 201.712 273.871 201.178 273.547 200.722C273.103 200.098 272.454 199.651 271.713 199.46C271.458 199.439 271.201 199.439 270.946 199.46Z" fill="#263238"/>
<path d="M240.954 219.94C240.954 220.552 241.136 221.151 241.476 221.66C241.816 222.169 242.3 222.566 242.865 222.8C243.431 223.035 244.054 223.096 244.654 222.976C245.255 222.857 245.806 222.562 246.239 222.129C246.672 221.696 246.967 221.145 247.087 220.544C247.206 219.943 247.145 219.321 246.91 218.755C246.676 218.189 246.279 217.706 245.77 217.366C245.261 217.026 244.662 216.844 244.05 216.844C243.229 216.844 242.442 217.17 241.861 217.751C241.28 218.331 240.954 219.119 240.954 219.94Z" fill="white"/>
<path d="M214.576 241C214.646 241 216.225 231.813 218.098 220.451C219.971 209.088 221.441 199.87 221.372 199.862C221.302 199.855 219.723 209.05 217.85 220.412C215.977 231.774 214.506 240.993 214.576 241Z" fill="#263238"/>
<path d="M242.933 138.1C237.639 135.066 232.097 132.302 226.145 130.987C225.319 130.761 224.459 130.687 223.607 130.77C223.181 130.819 222.774 130.968 222.417 131.205C222.061 131.441 221.765 131.759 221.555 132.132C221.045 133.193 221.555 134.454 222.182 135.437C223.614 137.604 225.758 139.176 227.918 140.608C233.839 144.532 240.193 147.728 246.494 150.917C245.72 146.397 244.11 142.519 242.895 138.1" fill="#D0D0D0"/>
<path d="M283.522 149.764C285.256 155.615 287.338 161.436 290.728 166.506C291.17 167.242 291.745 167.89 292.423 168.417C292.762 168.679 293.159 168.855 293.581 168.931C294.003 169.006 294.437 168.979 294.846 168.851C295.945 168.441 296.471 167.187 296.672 166.033C297.137 163.479 296.672 160.855 296.107 158.332C294.559 151.366 292.16 144.702 289.784 138.015C287.237 141.83 285.697 145.755 283.522 149.764Z" fill="#D0D0D0"/>
<path d="M242.856 137.976C242.856 137.976 243.266 178.495 266.007 179.292C288.747 180.089 289.699 138.27 289.699 137.976C289.699 137.976 287.013 131.939 266.277 132.171C245.542 132.403 242.856 137.976 242.856 137.976Z" fill="#D0D0D0"/>
<path d="M273.058 154.068C272.945 155.614 272.376 157.093 271.422 158.316C270.469 159.54 269.174 160.453 267.702 160.94C266.23 161.428 264.646 161.467 263.151 161.055C261.656 160.642 260.317 159.795 259.303 158.621C258.29 157.447 257.647 155.999 257.457 154.46C257.266 152.921 257.536 151.36 258.233 149.974C258.93 148.589 260.022 147.441 261.371 146.676C262.721 145.911 264.266 145.564 265.813 145.677C267.886 145.83 269.814 146.799 271.172 148.373C272.531 149.946 273.209 151.994 273.058 154.068Z" fill="#263238"/>
<path d="M270.937 153.913C270.854 155.039 270.439 156.116 269.745 157.007C269.05 157.898 268.107 158.563 267.034 158.918C265.961 159.273 264.808 159.302 263.719 159.001C262.63 158.7 261.654 158.083 260.916 157.228C260.178 156.372 259.71 155.317 259.571 154.196C259.432 153.075 259.629 151.938 260.137 150.929C260.644 149.919 261.44 149.083 262.423 148.526C263.405 147.969 264.531 147.715 265.658 147.798C267.168 147.911 268.572 148.618 269.561 149.764C270.551 150.91 271.045 152.402 270.937 153.913Z" fill="#D0D0D0"/>
<path d="M268.182 154.958C268.138 154.645 268.12 154.329 268.127 154.014C268.127 153.418 268.127 152.582 268.127 151.552L268.189 151.661L265.225 149.95H265.387L262.423 151.614C262.346 151.753 262.531 151.436 262.516 151.467V152.342C262.516 152.628 262.516 152.922 262.516 153.209C262.516 153.774 262.516 154.323 262.516 154.857L262.438 154.71L265.341 156.483H265.209C266.115 155.995 266.866 155.608 267.392 155.337C267.664 155.182 267.949 155.05 268.243 154.942C268 155.127 267.741 155.29 267.469 155.43C266.974 155.732 266.231 156.204 265.302 156.707L265.24 156.746L265.178 156.707L262.237 154.997L262.152 154.95V154.849C262.152 154.315 262.152 153.766 262.152 153.201C262.152 152.914 262.152 152.628 262.152 152.334V151.498C262.152 151.498 262.322 151.212 262.237 151.343L265.217 149.695L265.302 149.648L265.38 149.695L268.282 151.475H268.352V151.544C268.352 152.613 268.29 153.472 268.259 154.06C268.261 154.361 268.235 154.662 268.182 154.958Z" fill="#D0D0D0"/>
<path d="M242.756 137.945C242.756 137.945 242.802 137.945 242.88 137.945L243.22 138.061L244.544 138.526L245.488 138.866L246.641 139.222C247.462 139.47 248.391 139.787 249.451 139.996L251.1 140.414C251.672 140.561 252.276 140.67 252.903 140.801C254.141 141.088 255.496 141.281 256.905 141.513C263.065 142.399 269.32 142.399 275.481 141.513C276.897 141.289 278.244 141.095 279.482 140.809C280.109 140.67 280.713 140.561 281.286 140.422L282.934 139.996C283.995 139.749 284.923 139.431 285.752 139.222C286.162 139.099 286.526 138.99 286.897 138.874L287.849 138.534L289.165 138.069L289.505 137.953L289.629 137.914C289.629 137.914 289.591 137.914 289.513 137.968L289.173 138.1L287.865 138.588L286.92 138.944C286.572 139.068 286.146 139.176 285.775 139.315C284.954 139.563 284.026 139.888 282.965 140.143L281.317 140.577C280.744 140.724 280.14 140.84 279.513 140.979C278.267 141.266 276.92 141.467 275.504 141.699C269.327 142.607 263.05 142.607 256.874 141.699C255.449 141.467 254.103 141.266 252.857 140.972C252.237 140.84 251.626 140.724 251.053 140.577L249.405 140.143C248.344 139.888 247.423 139.563 246.595 139.308L245.449 138.944L244.505 138.588L243.197 138.092L242.856 137.961L242.756 137.945Z" fill="#263238"/>
<g opacity="0.3">
<path d="M242.856 137.976C242.856 137.976 245.542 132.411 266.277 132.171C287.013 131.931 289.699 137.976 289.699 137.976C289.699 137.976 268.785 148.293 242.856 137.976Z" fill="black"/>
</g>
<path d="M249.984 166.815C249.968 166.797 249.955 166.776 249.945 166.753L249.845 166.575L249.465 165.863L249.202 165.352L248.908 164.726C248.699 164.277 248.467 163.766 248.235 163.178L247.863 162.272L247.499 161.281C247.228 160.6 247.004 159.849 246.725 159.068C246.238 157.52 245.766 155.747 245.348 153.89C244.93 152.032 244.628 150.252 244.38 148.619C244.132 146.985 243.97 145.523 243.877 144.276C243.815 143.657 243.776 143.1 243.745 142.605C243.714 142.109 243.691 141.684 243.676 141.335V140.561V140.275C243.676 140.275 243.676 140.275 243.676 140.352V140.554C243.676 140.755 243.676 141.018 243.738 141.328C243.8 141.637 243.784 142.102 243.831 142.589C243.877 143.077 243.916 143.642 243.978 144.261C244.094 145.499 244.287 146.962 244.519 148.595C244.752 150.229 245.092 151.993 245.495 153.851C245.897 155.708 246.385 157.442 246.857 159.013C247.12 159.787 247.337 160.561 247.631 161.227L247.987 162.226L248.351 163.131C248.567 163.712 248.8 164.222 249.001 164.679L249.28 165.314L249.535 165.832L249.883 166.552L249.968 166.738L249.984 166.815Z" fill="#D0D0D0"/>
<path d="M260.945 176.56C260.822 176.556 260.701 176.54 260.581 176.514C260.253 176.461 259.93 176.384 259.614 176.281C259.142 176.14 258.681 175.964 258.236 175.755C257.697 175.492 257.179 175.186 256.688 174.842C256.196 174.492 255.732 174.104 255.302 173.681C254.951 173.332 254.628 172.957 254.335 172.559C254.134 172.296 253.953 172.02 253.793 171.73C253.725 171.628 253.668 171.519 253.623 171.405C253.623 171.405 253.909 171.839 254.397 172.489C254.699 172.87 255.024 173.232 255.372 173.572C255.803 173.984 256.264 174.365 256.75 174.71C257.242 175.052 257.759 175.354 258.298 175.616C258.734 175.83 259.184 176.016 259.645 176.173C260.434 176.436 260.945 176.529 260.945 176.56Z" fill="#D0D0D0"/>
<path d="M265.682 162.264H265.465C265.326 162.264 265.109 162.264 264.838 162.264C264.072 162.251 263.311 162.129 262.578 161.9C261.483 161.568 260.461 161.03 259.567 160.314C258.454 159.453 257.575 158.325 257.014 157.034C256.452 155.743 256.226 154.331 256.355 152.93C256.407 152.32 256.515 151.716 256.68 151.126C256.833 150.619 257.024 150.125 257.253 149.648C257.59 148.954 258.022 148.31 258.538 147.736C258.675 147.582 258.819 147.434 258.971 147.295C259.08 147.194 259.134 147.148 259.142 147.156C259.149 147.163 258.933 147.372 258.584 147.783C258.091 148.361 257.679 149.004 257.362 149.694C257.137 150.168 256.953 150.66 256.812 151.165C256.656 151.745 256.555 152.338 256.51 152.937C256.386 154.314 256.61 155.701 257.16 156.969C257.71 158.237 258.57 159.347 259.66 160.198C260.13 160.572 260.633 160.903 261.162 161.188C261.629 161.424 262.113 161.626 262.609 161.792C263.334 162.024 264.086 162.161 264.846 162.202C265.38 162.264 265.682 162.249 265.682 162.264Z" fill="#D0D0D0"/>
<path d="M264.698 95.8473C264.698 95.8473 244.868 95.6074 241.772 112.798C238.676 129.988 255.402 130.283 260.224 130.6C262.415 130.747 267.09 130.762 271.215 130.685C280.356 130.53 286.811 128.758 289.017 120.282C289.28 119.287 289.445 118.268 289.512 117.241C290.046 107.953 283.754 95.3906 264.698 95.8473Z" fill="#D0D0D0"/>
<path d="M279.079 122.001L250.278 122.45C249.557 122.461 248.841 122.329 248.171 122.063C247.502 121.796 246.891 121.399 246.375 120.896C245.86 120.392 245.448 119.791 245.166 119.128C244.883 118.465 244.734 117.752 244.728 117.032C244.706 115.582 245.259 114.182 246.268 113.14C247.277 112.098 248.658 111.499 250.108 111.474L278.924 111.064C279.645 111.054 280.361 111.186 281.03 111.453C281.7 111.72 282.311 112.116 282.827 112.62C283.343 113.123 283.755 113.723 284.039 114.386C284.323 115.049 284.473 115.761 284.481 116.482C284.493 117.929 283.932 119.323 282.919 120.357C281.907 121.391 280.526 121.982 279.079 122.001Z" fill="#263238"/>
<path d="M256.254 116.474C256.187 116.816 256.021 117.13 255.775 117.377C255.53 117.623 255.217 117.792 254.876 117.86C254.535 117.929 254.181 117.895 253.859 117.762C253.538 117.629 253.262 117.404 253.069 117.115C252.875 116.826 252.772 116.486 252.772 116.138C252.772 115.79 252.876 115.45 253.069 115.161C253.263 114.871 253.538 114.646 253.859 114.514C254.181 114.381 254.535 114.347 254.876 114.415C255.331 114.507 255.731 114.775 255.989 115.161C256.248 115.546 256.343 116.019 256.254 116.474Z" fill="#D0D0D0"/>
<path d="M276.378 116.149C276.311 116.491 276.145 116.805 275.901 117.051C275.656 117.298 275.343 117.467 275.002 117.536C274.662 117.605 274.308 117.572 273.986 117.44C273.665 117.308 273.389 117.084 273.195 116.795C273.001 116.507 272.897 116.167 272.896 115.82C272.895 115.472 272.997 115.132 273.19 114.842C273.382 114.552 273.656 114.326 273.977 114.193C274.298 114.059 274.651 114.023 274.992 114.09C275.449 114.18 275.851 114.447 276.111 114.833C276.37 115.219 276.466 115.693 276.378 116.149Z" fill="#D0D0D0"/>
<path d="M261.301 115.661C261.432 115.661 261.362 116.288 261.749 117.109C261.971 117.576 262.288 117.993 262.678 118.332C263.141 118.736 263.716 118.989 264.327 119.059C264.942 119.104 265.555 118.958 266.084 118.641C266.531 118.378 266.919 118.025 267.222 117.604C267.748 116.869 267.794 116.257 267.926 116.265C268.058 116.273 268.027 116.42 268.027 116.714C268.009 117.127 267.901 117.532 267.709 117.898C267.422 118.452 266.998 118.923 266.479 119.268C265.826 119.71 265.044 119.92 264.257 119.864C263.473 119.781 262.741 119.431 262.183 118.874C261.733 118.449 261.4 117.916 261.215 117.326C261.089 116.931 261.055 116.513 261.115 116.103C261.169 115.793 261.246 115.654 261.301 115.661Z" fill="#D0D0D0"/>
<path d="M262.191 97.1321H262.121H261.912C261.726 97.1321 261.456 97.1321 261.138 97.194C260.153 97.2919 259.176 97.4548 258.212 97.6816C256.784 98.0198 255.394 98.5022 254.064 99.1213C252.431 99.8848 250.902 100.852 249.513 102.001C246.998 104.103 244.994 106.749 243.654 109.741C243.247 110.642 242.903 111.57 242.624 112.519C242.516 112.86 242.462 113.123 242.407 113.293L242.345 113.494V113.564C242.345 113.564 242.345 113.564 242.345 113.494L242.392 113.285C242.431 113.107 242.477 112.837 242.578 112.511C242.822 111.553 243.137 110.613 243.522 109.702C244.107 108.338 244.836 107.04 245.697 105.832C248.692 101.647 253.127 98.7145 258.151 97.5965C259.129 97.3784 260.123 97.2335 261.123 97.163C261.471 97.163 261.75 97.163 261.897 97.163H262.175L262.191 97.1321Z" fill="#D0D0D0"/>
<path d="M242.794 120.917C242.667 120.727 242.57 120.518 242.508 120.298C242.328 119.795 242.193 119.277 242.105 118.75C242.024 118.209 241.99 117.663 242.005 117.116C242 116.89 242.026 116.663 242.082 116.443C242.136 116.443 242.082 117.48 242.268 118.765C242.453 120.05 242.84 120.901 242.794 120.917Z" fill="#D0D0D0"/>
<path d="M274.319 110.058C274.319 110.104 270.526 110.143 265.851 110.143C261.176 110.143 257.376 110.143 257.376 110.058C257.376 109.973 261.169 109.98 265.851 109.98C270.534 109.98 274.319 110.019 274.319 110.058Z" fill="#D0D0D0"/>
<path d="M259.861 129.377C259.861 129.377 259.814 129.377 259.721 129.377H259.311C259.125 129.377 258.909 129.377 258.653 129.377C258.398 129.377 258.104 129.377 257.779 129.377C257.023 129.371 256.269 129.324 255.518 129.238C254.6 129.131 253.688 128.973 252.786 128.765C251.887 128.561 251 128.302 250.131 127.991C249.422 127.735 248.727 127.44 248.049 127.109C247.755 126.97 247.5 126.83 247.275 126.707C247.051 126.583 246.857 126.482 246.703 126.389L246.347 126.173L246.23 126.087C246.23 126.087 246.277 126.087 246.362 126.142L246.734 126.327C246.888 126.412 247.082 126.521 247.314 126.629C247.546 126.738 247.802 126.877 248.088 127.001C248.669 127.272 249.373 127.566 250.17 127.852C251.039 128.155 251.922 128.413 252.817 128.626C253.714 128.833 254.621 128.993 255.534 129.106C256.37 129.207 257.136 129.261 257.779 129.276C258.096 129.276 258.39 129.276 258.645 129.276H259.853L259.861 129.377Z" fill="#D0D0D0"/>
<path d="M284.103 140.453H284.033L283.809 140.538L282.95 140.848C282.578 140.979 282.121 141.134 281.58 141.296C281.038 141.459 280.426 141.66 279.745 141.831L278.669 142.117L277.493 142.388C276.719 142.581 275.805 142.736 274.884 142.914C272.878 143.253 270.855 143.491 268.824 143.626C266.795 143.73 264.762 143.73 262.733 143.626C261.796 143.564 260.906 143.518 260.078 143.425L258.878 143.301L257.771 143.146C257.067 143.061 256.44 142.937 255.883 142.844C255.325 142.752 254.853 142.651 254.466 142.566L253.576 142.365L253.344 142.31H253.267C253.267 142.31 253.267 142.31 253.352 142.31L253.584 142.349L254.482 142.519C254.869 142.597 255.341 142.69 255.898 142.767C256.455 142.844 257.082 142.976 257.787 143.053L258.894 143.193C259.273 143.239 259.668 143.27 260.086 143.309C260.914 143.394 261.804 143.44 262.733 143.495C264.606 143.572 266.665 143.572 268.816 143.448C270.968 143.324 273.011 143.053 274.853 142.752C275.775 142.581 276.649 142.434 277.462 142.241C277.864 142.148 278.236 142.07 278.638 141.978L279.714 141.707C280.403 141.544 281.015 141.351 281.549 141.196C282.083 141.041 282.555 140.894 282.934 140.77L283.801 140.492L284.025 140.422L284.103 140.453Z" fill="#D0D0D0"/>
</svg>
